<?xml version="1.0" encoding="utf-8"?>
<!-- Generator: Adobe Illustrator 19.0.0, SVG Export Plug-In . SVG Version: 6.00 Build 0)  -->
<svg version="1.1" xmlns="http://www.w3.org/2000/svg" xmlns:xlink="http://www.w3.org/1999/xlink" x="0px" y="0px"
	 viewBox="-63 65 128 128" style="enable-background:new -63 65 128 128;" xml:space="preserve">
<style type="text/css">
	.st0{fill:none;stroke:#CCEBF8;stroke-width:4;stroke-miterlimit:10;}
	.st1{fill:#FAA93B;}
	.st2{clip-path:url(#SVGID_2_);fill:#545465;}
	.st3{fill:#FFD7A3;}
	.st4{fill:#E4EBF0;}
	.st5{fill:#FDC88E;}
	.st6{fill:#FFE1B2;}
	.st7{fill:#545465;}
	.st8{fill:#D0D7DC;}
	.st9{fill:#527992;}
	.st10{fill:#475F7F;}
</style>
<g id="Layer_1">
	<g id="Layer_1_3_">
		<g id="Layer_1_2_">
			<g id="Layer_1_1_">
				<circle id="XMLID_1_" class="st0" cx="1" cy="129" r="62"/>
			</g>
			<g id="Layer_2">
				<circle id="XMLID_2_" class="st1" cx="1" cy="129" r="52.5"/>
			</g>
		</g>
	</g>
</g>
<g id="Layer_2_1_">
	<g>
		<g>
			<defs>
				<rect id="SVGID_1_" x="-23.9" y="94.5" width="48.9" height="63.9"/>
			</defs>
			<clipPath id="SVGID_2_">
				<use xlink:href="#SVGID_1_"  style="overflow:visible;"/>
			</clipPath>
			<path class="st2" d="M-7.4,97.5l4.7,32.9l-6.1,10.8C-18.4,126.6-20.9,97.5-7.4,97.5L-7.4,97.5z M-7.4,97.5"/>
			<path class="st2" d="M-7.9,97.5c3.1-2.8,11.1-4.5,17.9-1.1c9.3,4.7,9.2,25.6,0.9,42.9c0,0-6.6-5-6.6-5L-7.9,97.5z M-7.9,97.5"/>
		</g>
		<path class="st3" d="M8,129.7L8,129.7L8,127.3H-6v2.3c0,2.3,0,4.7-2,6.2v22.3H9.9v-22.3C8,134.4,8,131.9,8,129.7L8,129.7z
			 M8,129.7"/>
		<path class="st4" d="M15.9,137.3h-0.3c-3.8,0-5.7-1-6.6-2.4L2,139.6l0,0l-1,7.3l-1-7.2l-7-4.8c-1,1.4-2.9,2.4-6.6,2.4h-0.3
			c-6,0-10.9,4.9-10.9,10.9v7c0,1.6,1.3,3,3,3h45.8c1.6,0,3-1.3,3-3v-7C26.9,142.2,22,137.3,15.9,137.3L15.9,137.3z M15.9,137.3"/>
		<path class="st5" d="M8,139.3c0.4,0.1-0.3-1,0-1l2-2.5c-1.9-1.5-1.9-4-1.9-6.2H8v-2.3H-3l-3,1C-4,130.6,1.1,137.5,8,139.3L8,139.3
			z M8,139.3"/>
		<path class="st6" d="M13.7,114.4c0,8-7.5,17.9-13.2,17.9c-5.7,0-13.2-9.9-13.2-17.9c0-8,5.9-10.9,13.2-10.9S13.7,106.4,13.7,114.4
			L13.7,114.4z M13.7,114.4"/>
		<path class="st7" d="M-1.3,98.5c0.5,0,2.2,0.6,3.6,1.2l0.1-0.2c0,0,0.2,0.2,0.5,0.4c0.8,0.3,1.4,0.6,1.4,0.6l-0.2,0.4
			c3.6,3,11.7,9.8,12.4,10.6c0.9,1-4.7,25.9-4.7,11.4c0-12.1-6.3-14.5-12.2-15.9c-2.7-0.7-4.4-1.8-4.7-3.5
			C-5.3,101.8-2.2,98.5-1.3,98.5L-1.3,98.5z M-1.3,98.5"/>
		<path class="st7" d="M-4.1,105.2c0,0-7.2,2.3-8.4,10.5c-0.3,1.9-2.8-6.5-2.8-6.5s1.4-6.6,1.7-6.8c0.3-0.2,6.7-2.9,6.7-2.9l1.9,1.7
			L-4.1,105.2z M-4.1,105.2"/>
		<path class="st8" d="M0,139.6l-6.9-4.9l-2.4,1.9l4.6,6.4c0.4,0.5,1.1,0.6,1.6,0.1L0,139.6z M0,139.6"/>
		<path class="st8" d="M2,139.6l6.9-4.9l2.4,1.9L6.7,143c-0.4,0.5-1.1,0.6-1.6,0.1L2,139.6z M2,139.6"/>
		<path class="st9" d="M-9.3,136.6c-1.1,0.4-2.4,0.7-4.3,0.7h-0.3c-6,0-10.9,4.9-10.9,10.9v7c0,1.6,1.3,3,3,3H-5L-9.3,136.6
			C-9.3,136.6-9.3,136.6-9.3,136.6L-9.3,136.6z M-9.3,136.6"/>
		<path class="st9" d="M11.3,136.6c1.1,0.4,2.4,0.7,4.3,0.7h0.3c6,0,10.9,4.9,10.9,10.9v7c0,1.6-1.3,3-3,3H7L11.3,136.6
			C11.3,136.6,11.3,136.6,11.3,136.6L11.3,136.6z M11.3,136.6"/>
		<path class="st6" d="M-11.6,115.8c-1.4-0.4-2.3,0.4-2.3,2c0,2.1,1.9,7.2,3.9,4C-8.1,118.6-11.6,115.8-11.6,115.8L-11.6,115.8z
			 M-11.6,115.8"/>
		<path class="st7" d="M-9.9,147.3c0,0.5-0.4,1-1,1c-0.6,0-1-0.4-1-1c0-0.6,0.4-1,1-1C-10.4,146.3-9.9,146.8-9.9,147.3L-9.9,147.3z
			 M-9.9,147.3"/>
		<path class="st8" d="M2,150.3c0,0.5-0.4,1-1,1c-0.5,0-1-0.4-1-1c0-0.6,0.4-1,1-1C1.5,149.3,2,149.7,2,150.3L2,150.3z M2,150.3"/>
		<path class="st8" d="M2,155.3c0,0.5-0.4,1-1,1c-0.5,0-1-0.4-1-1c0-0.5,0.4-1,1-1C1.6,154.3,2,154.8,2,155.3L2,155.3z M2,155.3"/>
		<path class="st7" d="M-8.9,153.3c0,0.5-0.4,1-1,1c-0.5,0-1-0.4-1-1c0-0.6,0.4-1,1-1C-9.4,152.3-8.9,152.7-8.9,153.3L-8.9,153.3z
			 M-8.9,153.3"/>
		<path class="st7" d="M-1.2,115.5v0.7c0,2.2-1.8,4-4,4h-1c-1.1,0-2-0.9-2-2v-2.7H-1.2 M-1.2,114.5h-7c-0.6,0-1,0.4-1,1v2.7
			c0,1.6,1.3,3,3,3h1c2.7,0,5-2.2,5-5v-0.7C-0.2,115-0.7,114.5-1.2,114.5L-1.2,114.5z M-1.2,114.5"/>
		<path class="st7" d="M10.2,115.5v2.7c0,1.1-0.9,2-2,2h-1c-2.2,0-4-1.8-4-4v-0.7H10.2 M10.2,114.5h-7c-0.5,0-1,0.4-1,1v0.7
			c0,2.7,2.2,5,5,5h1c1.6,0,3-1.3,3-3v-2.7C11.2,115,10.8,114.5,10.2,114.5L10.2,114.5z M10.2,114.5"/>
		<path class="st7" d="M-12.9,114.5h4.8v2.4l-4.8-1.1V114.5z M-12.9,114.5"/>
		<path class="st7" d="M15,114.5h-4.8v2.4l4.8-1.1V114.5z M15,114.5"/>
		<path class="st7" d="M3.3,116.9h-1c0-0.4-0.6-0.8-1.3-0.8c-0.7,0-1.3,0.4-1.3,0.8h-1c0-1,1-1.8,2.3-1.8
			C2.3,115.1,3.3,115.9,3.3,116.9L3.3,116.9z M3.3,116.9"/>
		<path class="st10" d="M17.7,154.3H12c-0.8,0-1.5,0.7-1.5,1.5v2.4h8.7v-2.4C19.2,155,18.5,154.3,17.7,154.3L17.7,154.3z
			 M17.7,154.3"/>
	</g>
</g>
</svg>
