<?xml version="1.0" encoding="utf-8"?>
<!-- Generator: Adobe Illustrator 19.0.0, SVG Export Plug-In . SVG Version: 6.00 Build 0)  -->
<svg version="1.1" xmlns="http://www.w3.org/2000/svg" xmlns:xlink="http://www.w3.org/1999/xlink" x="0px" y="0px"
	 viewBox="0 0 150 150" style="enable-background:new 0 0 150 150;" xml:space="preserve">
<style type="text/css">
	.st0{opacity:0.94;fill:#BCBCBC;}
	.st1{fill:none;stroke:#FFFFFF;stroke-miterlimit:10;}
	.st2{fill:#6BB1B5;}
	.st3{fill:#E0C2A8;}
	.st4{fill:#EAD2BC;}
	.st5{fill:#FFFFFF;}
	.st6{fill:#663300;}
	.st7{fill-rule:evenodd;clip-rule:evenodd;fill:#373737;}
	.st8{fill:#BF6262;}
	.st9{fill:#C9ADA1;}
	.st10{fill:#142428;}
</style>
<g id="Layer_2">
	<circle id="XMLID_5_" class="st0" cx="100.7" cy="49.9" r="38.3"/>
	<polyline id="XMLID_16_" class="st1" points="99.5,26 99.5,52 128.9,52 	"/>
</g>
<g id="Layer_1">
</g>
<g id="Layer_3">
	<g id="XMLID_318_">
		<g id="XMLID_292_">
			<path id="XMLID_317_" class="st2" d="M50.7,103.9c-0.1,0-0.1,0-0.2,0l0,0c-0.4,0.1-2.2,0.2-4.6,0.5c-0.1,0-0.3,0-0.4,0.1
				c-0.2,0-0.3,0-0.5,0.1c-0.2,0-0.3,0-0.5,0.1c-0.2,0-0.3,0-0.5,0.1c-0.2,0-0.4,0.1-0.6,0.1c-0.2,0-0.3,0-0.5,0.1
				c-0.3,0.1-0.6,0.1-1,0.2c-0.1,0-0.2,0-0.2,0c-0.3,0.1-0.7,0.1-1,0.2c-0.1,0-0.3,0-0.4,0.1c-0.3,0-0.5,0.1-0.8,0.1
				c-0.1,0-0.3,0.1-0.4,0.1c-0.3,0.1-0.6,0.1-0.8,0.2c-0.1,0-0.3,0.1-0.4,0.1c-0.4,0.1-0.8,0.2-1.1,0.2c0,0-0.1,0-0.1,0
				c-0.4,0.1-0.8,0.2-1.3,0.3c-0.1,0-0.2,0.1-0.3,0.1c-0.3,0.1-0.6,0.2-0.9,0.2c-0.1,0-0.3,0.1-0.4,0.1c-0.3,0.1-0.6,0.2-0.9,0.2
				c-0.1,0-0.3,0.1-0.4,0.1c-0.4,0.1-0.7,0.2-1.1,0.3c-0.1,0-0.1,0-0.2,0.1c-0.4,0.1-0.8,0.3-1.2,0.4c-0.1,0-0.2,0.1-0.2,0.1
				c-0.3,0.1-0.6,0.2-0.9,0.3c-0.1,0-0.2,0.1-0.4,0.1c-0.3,0.1-0.5,0.2-0.8,0.3c-0.1,0-0.2,0.1-0.4,0.1c-0.3,0.1-0.6,0.2-0.9,0.4
				c-0.1,0-0.2,0.1-0.2,0.1c-0.4,0.2-0.7,0.3-1,0.5c-0.1,0-0.1,0.1-0.2,0.1c-0.3,0.1-0.5,0.3-0.8,0.4c-0.1,0.1-0.2,0.1-0.3,0.2
				c-0.2,0.1-0.4,0.3-0.6,0.4c-0.1,0.1-0.2,0.1-0.3,0.2c-0.2,0.1-0.4,0.3-0.6,0.4c-0.1,0.1-0.1,0.1-0.2,0.2
				c-0.3,0.2-0.5,0.4-0.7,0.6c0,0-0.1,0.1-0.1,0.1c-0.2,0.2-0.4,0.4-0.6,0.6c-0.1,0.1-0.1,0.1-0.2,0.2c-0.1,0.2-0.2,0.3-0.4,0.5
				c-0.1,0.1-0.1,0.2-0.2,0.3c-0.1,0.2-0.2,0.3-0.3,0.5c0,0.1-0.1,0.2-0.1,0.2c-0.1,0.3-0.2,0.5-0.3,0.8c-5,10.2-5,33.5-5,33.5h50.3
				h2.4H70h3.7v-36.7L50.7,103.9z"/>
			<path id="XMLID_347_" class="st3" d="M65.2,84.2H52.4v10.4v6.9c0,2.6,4.1,10.8,12.8,10.8V84.2z"/>
			<g id="XMLID_345_">
				<path id="XMLID_346_" class="st4" d="M65.4,49.7c-15.7,0-18,10.4-18,23.8c0,14.8,9.2,24.6,18,24.6V49.7z"/>
			</g>
			<path id="XMLID_344_" class="st4" d="M47.6,71.8c-1.1-4-2.6-4-3.2-3c-0.6,1-0.2,3.4,0.9,7.3c0.9,3.1,1.7,4.5,2.9,3.4
				C49.4,78.3,47.6,71.8,47.6,71.8z"/>
			<g id="XMLID_337_">
				<path id="XMLID_338_" class="st5" d="M56.5,104.6l-5.1-4.4c-2.5,1.3-6,4.4-6,4.4l16.3,17.9l3.4-9.6v-0.8L56.5,104.6z"/>
			</g>
		</g>
		<g id="XMLID_19_">
			<path id="XMLID_30_" class="st2" d="M80.1,104.6c0,0,4.7,0,4.7,0l0,0c0.4,0.1,1.9,0.2,4,0.5c0.1,0,0.2,0,0.4,0.1
				c0.1,0,0.3,0,0.4,0.1c0.1,0,0.3,0,0.4,0.1c0.1,0,0.3,0,0.4,0.1c0.2,0,0.3,0.1,0.5,0.1c0.1,0,0.3,0,0.4,0.1c0.3,0,0.6,0.1,0.8,0.2
				c0.1,0,0.1,0,0.2,0c0.3,0.1,0.6,0.1,0.9,0.2c0.1,0,0.2,0,0.3,0.1c0.2,0,0.5,0.1,0.7,0.1c0.1,0,0.2,0.1,0.4,0.1
				c0.2,0.1,0.5,0.1,0.7,0.2c0.1,0,0.2,0.1,0.3,0.1c0.3,0.1,0.6,0.2,1,0.2c0,0,0.1,0,0.1,0c0.4,0.1,0.7,0.2,1.1,0.3
				c0.1,0,0.2,0.1,0.3,0.1c0.3,0.1,0.5,0.2,0.8,0.2c0.1,0,0.2,0.1,0.3,0.1c0.3,0.1,0.5,0.2,0.8,0.2c0.1,0,0.2,0.1,0.3,0.1
				c0.3,0.1,0.6,0.2,0.9,0.3c0,0,0.1,0,0.1,0.1c0.4,0.1,0.7,0.3,1,0.4c0.1,0,0.1,0.1,0.2,0.1c0.3,0.1,0.5,0.2,0.8,0.3
				c0.1,0,0.2,0.1,0.3,0.1c0.2,0.1,0.5,0.2,0.7,0.3c0.1,0,0.2,0.1,0.3,0.1c0.3,0.1,0.5,0.2,0.7,0.4c0.1,0,0.1,0.1,0.2,0.1
				c0.3,0.2,0.6,0.3,0.9,0.5c0.1,0,0.1,0.1,0.1,0.1c0.2,0.1,0.5,0.3,0.7,0.4c0.1,0.1,0.2,0.1,0.3,0.2c0.2,0.1,0.4,0.3,0.5,0.4
				c0.1,0.1,0.2,0.1,0.2,0.2c0.2,0.1,0.3,0.3,0.5,0.4c0.1,0.1,0.1,0.1,0.2,0.2c0.2,0.2,0.4,0.4,0.6,0.6c0,0,0,0.1,0.1,0.1
				c0.2,0.2,0.3,0.4,0.5,0.6c0.1,0.1,0.1,0.1,0.2,0.2c0.1,0.2,0.2,0.3,0.3,0.5c0,0.1,0.1,0.2,0.1,0.2c0.1,0.2,0.2,0.3,0.2,0.5
				c0,0.1,0.1,0.2,0.1,0.2c0.1,0.2,0.2,0.5,0.3,0.8c1.4,5.5,4.3,32.9,4.3,32.9l-43.1,0l-2.1,0l-2.5,0l-3.2,0l0-36.1L80.1,104.6z"/>
			<path id="XMLID_29_" class="st3" d="M64.9,84.1l12.8,0l0,10.4l0,6.9c0,2.6-4.1,10.8-12.8,10.8L64.9,84.1z"/>
			<g id="XMLID_26_">
				<path id="XMLID_27_" class="st4" d="M64.7,49.7c15.7,0,18.1,10.4,18.1,23.8c0,14.8-9.2,24.6-18.1,24.6L64.7,49.7z"/>
			</g>
			<path id="XMLID_25_" class="st4" d="M82.5,71.8c1-4,2.4-4,3-3c0.6,1,0.1,3.4-0.9,7.3c-0.8,3.1-1.6,4.5-2.8,3.4
				C80.7,78.3,82.5,71.8,82.5,71.8z"/>
			<g id="XMLID_21_">
				<path id="XMLID_23_" class="st5" d="M73.5,104.6l5.1-4.4c2.5,1.3,6,4.4,6,4.4l-16.5,17.8l-3.5-9.6l0-0.8L73.5,104.6z"/>
			</g>
		</g>
		<path id="XMLID_323_" class="st6" d="M64.7,41.7L64.7,41.7c-7.6,0-18.6,2.7-19.9,18c-1,11.6,2.8,18.2,2.8,18.2s-0.5-10.1,2-17.2
			c1.3,0.1,3.1-0.1,5.5-0.4c3-0.5,5-1.3,8.1-3c-4,2.8-7.5,5.3-7.5,5.3s4.3,0.9,9.1,0.1L64.7,41.7L64.7,41.7z"/>
		<path id="XMLID_332_" class="st6" d="M73.8,59.1c-1.4,3.8-5.9,5.8-5.9,5.8s8.6-1.7,11.5-7.3c3.8,6.8,2.8,20.5,2.8,20.5
			S86,71.3,85,59.8c-1.4-15.4-12.6-18-20.4-18v0l-0.9,21.1c1.1-0.2,3-0.5,4.1-0.9C71.3,60.9,72.9,60.1,73.8,59.1z"/>
	</g>
	<path id="XMLID_15_" class="st7" d="M62.2,121.1l1.1,1.9c0.8,0,2.4,0,3.2,0l1.2-2l-2.8-7.9L62.2,121.1z"/>
	<polygon id="XMLID_14_" class="st7" points="63.4,122.6 60.6,149 69.3,149 66.4,122.6 	"/>
	<g id="XMLID_7_">
		<g id="XMLID_28_">
			<path id="XMLID_3_" class="st8" d="M60.4,88.7c2.8-1,6-1,8.8,0c0.5,0.2,0.7-0.6,0.2-0.7c-2.9-1-6.2-1-9.2,0
				C59.7,88.2,59.9,88.9,60.4,88.7L60.4,88.7z"/>
		</g>
	</g>
	<path id="XMLID_9_" class="st9" d="M62.3,80.5c0,0,1.9,1.5,2.7,1.5c0.8,0,2.9-1.5,2.9-1.5H62.3z"/>
</g>
<g id="Layer_4">
	<circle id="XMLID_12_" class="st10" cx="55.6" cy="71.4" r="2.1"/>
	<circle id="XMLID_11_" class="st10" cx="74.6" cy="71.4" r="2.1"/>
	<path id="XMLID_10_" class="st6" d="M69.6,68.8c0,0-0.2-1.5,0.4-1.8c0.6-0.3,4.9-1.1,8.2,0.2c0,0,2,1.6,2,2.7c0,0-2.5-2-5-2
		C72.8,68.1,69.6,68.8,69.6,68.8z"/>
	<path id="XMLID_8_" class="st6" d="M60.7,69.1c0,0,0.3-1.5-0.3-1.8c-0.6-0.3-4.8-1.4-8.2-0.2c0,0-2.1,1.5-2.1,2.6
		c0,0,2.6-1.9,5.1-1.7C57.6,68.2,60.7,69.1,60.7,69.1z"/>
</g>
</svg>
