<?xml version="1.0" encoding="utf-8"?>
<!-- Generator: Adobe Illustrator 19.0.0, SVG Export Plug-In . SVG Version: 6.00 Build 0)  -->
<svg version="1.1" xmlns="http://www.w3.org/2000/svg" xmlns:xlink="http://www.w3.org/1999/xlink" x="0px" y="0px"
	 viewBox="-63 65 128 128" style="enable-background:new -63 65 128 128;" xml:space="preserve">
<style type="text/css">
	.st0{fill:none;stroke:#CCEBF8;stroke-width:4;stroke-miterlimit:10;}
	.st1{fill:#80397B;}
	.st2{fill:#FFD7A3;}
	.st3{fill:#FDC88E;}
	.st4{fill:#FFE1B2;}
	.st5{fill:#545465;}
	.st6{fill:#E4EBF0;}
	.st7{fill:#D0D7DC;}
	.st8{fill:#21597C;}
	.st9{fill:#000007;}
</style>
<g id="Layer_1">
	<g id="Layer_1_2_">
		<g id="Layer_1_1_">
			<circle id="XMLID_1_" class="st0" cx="1" cy="129" r="62"/>
		</g>
		<g id="Layer_2">
			<circle id="XMLID_2_" class="st1" cx="1" cy="129" r="52.5"/>
		</g>
	</g>
	<g id="Layer_3">
	</g>
	<g>
		<path class="st2" d="M-8.5,136.5c1.9-1.5,1.7-6.1,1.7-7.1H8.6c0,1.1-0.2,5.6,1.7,7.1l-9.4,13L-8.5,136.5z M-8.5,136.5"/>
		<path class="st3" d="M6.8,141l3.4-4.5c-1.9-1.5-1.7-6.1-1.7-7.1H-6.8C-5.7,133.3,1.6,140,6.8,141L6.8,141z M6.8,141"/>
		<path class="st4" d="M14.9,115.4c0,8.1-4.4,18.1-13.4,18.1s-13.4-10-13.4-18.1c0-8.1,6-11.1,13.4-11.1S14.9,107.3,14.9,115.4
			L14.9,115.4z M14.9,115.4"/>
		<path class="st5" d="M-12.1,117.3c-0.7-2.9-1.8-12.9,0.4-15.8c2.9-3.9,5.2-1.3,5.2-1.3L-6,107l-4.4,11.1L-12.1,117.3z
			 M-12.1,117.3"/>
		<path class="st5" d="M6,97.1c-7.4-1.7-12.9,1-14.5,2.2c-0.1,0.1-0.3,0.2-0.3,0.3l2.9,7.2c6.9,3.6,11.7,1.9,11.7,1.9l3.1-2.4
			l4.4,11.6l1.6-0.6c0,0,0.8-8.4,0.9-10.3C16,105,14.1,99,6,97.1L6,97.1z M6,97.1"/>
		<path class="st6" d="M23.5,162.2c1.6,0,3-1.4,3-3.2v-10.2c0-4.7-3.4-9.6-7.5-11.1l-6.2-2.1c-3.3,2.7-8.1,6.4-11.9,6.4
			s-8.6-3.7-11.9-6.4l-6.2,2.1c-4.1,1.4-7.5,6.4-7.5,11.1V159c0,1.8,1.3,3.2,3,3.2H23.5z M23.5,162.2"/>
		<path class="st7" d="M0.8,142.2l-5.1,5.3l-8.1-11.7l2.4-2.5c0.4-0.4,1-0.4,1.4,0L0.8,142.2z M0.8,142.2"/>
		<path class="st7" d="M0.8,142.2l5.1,5.3l8.1-11.7l-2.4-2.5c-0.4-0.4-1-0.4-1.4,0L0.8,142.2z M0.8,142.2"/>
		<path class="st7" d="M2.1,151.6c0,0.6-0.5,1.1-1.1,1.1c-0.6,0-1.1-0.5-1.1-1.1c0-0.6,0.5-1.1,1.1-1.1C1.6,150.6,2.1,151,2.1,151.6
			L2.1,151.6z M2.1,151.6"/>
		<path class="st7" d="M2.1,146.6c0,0.6-0.5,1.1-1.1,1.1c-0.6,0-1.1-0.5-1.1-1.1c0-0.6,0.5-1.1,1.1-1.1C1.6,145.6,2.1,146,2.1,146.6
			L2.1,146.6z M2.1,146.6"/>
		<path class="st7" d="M2.1,156.9c0,0.6-0.5,1.1-1.1,1.1c-0.6,0-1.1-0.5-1.1-1.1c0-0.6,0.5-1.1,1.1-1.1
			C1.6,155.9,2.1,156.3,2.1,156.9L2.1,156.9z M2.1,156.9"/>
		<path class="st4" d="M-11.6,117.4c-1.4-0.4-2.4,0.4-2.4,2c0,2.1,1.9,7.2,4,4C-7.9,120.2-11.6,117.4-11.6,117.4L-11.6,117.4z
			 M-11.6,117.4"/>
		<path class="st4" d="M14.2,117.4c1.6-0.4,2.6,0.4,2.6,2c0,2.1-2.1,7.2-4.3,4C10.2,120.2,14.2,117.4,14.2,117.4L14.2,117.4z
			 M14.2,117.4"/>
		<path class="st8" d="M6.9,162.3h17.5c1.5-0.2,2.7-1.5,2.7-3.1v-10.2c0-4.7-3.5-9.6-7.7-11.1l-5.5-1.8h0L6.9,162.3z M6.9,162.3"/>
		<path class="st8" d="M-12.2,136l-5.5,1.8c-4.2,1.4-7.7,6.4-7.7,11.1v10.2c0,1.6,1.2,3,2.7,3.1h17.5L-12.2,136z M-12.2,136"/>
	</g>
	<path class="st9" d="M-0.8,115.6v0.8c0,2.5-1.8,4.5-4,4.5h-1c-1.1,0-2-1-2-2.2v-3.1H-0.8 M-0.8,114.5h-7c-0.6,0-1,0.5-1,1.1v3.1
		c0,1.8,1.3,3.3,3,3.3h1c2.8,0,5-2.5,5-5.6v-0.8C0.2,115-0.3,114.5-0.8,114.5L-0.8,114.5z M-0.8,114.5"/>
	<path class="st9" d="M10.6,115.6v3c0,1.2-0.9,2.2-2,2.2h-1c-2.2,0-4-2-4-4.4v-0.8H10.6 M10.6,114.5h-7c-0.6,0-1,0.5-1,1.1v0.8
		c0,3,2.2,5.5,5,5.5h1c1.7,0,3-1.5,3-3.3v-3C11.6,115,11.2,114.5,10.6,114.5L10.6,114.5z M10.6,114.5"/>
	<path class="st9" d="M-11.8,115.1h3.2v1.2l-3.2-0.6V115.1z M-11.8,115.1"/>
	<path class="st9" d="M14.4,115.1h-3.8v1.3l3.8-0.6V115.1z M14.4,115.1"/>
	<path class="st9" d="M3.7,117.2h-1c0-0.5-0.6-0.9-1.3-0.9c-0.7,0-1.3,0.4-1.3,0.9h-1c0-1.2,1-2.1,2.3-2.1
		C2.7,115.1,3.7,116,3.7,117.2L3.7,117.2z M3.7,117.2"/>
</g>
<g id="Layer_2_1_">
</g>
</svg>
