<?xml version="1.0" encoding="utf-8"?>
<!-- Generator: Adobe Illustrator 19.0.0, SVG Export Plug-In . SVG Version: 6.00 Build 0)  -->
<svg version="1.1" xmlns="http://www.w3.org/2000/svg" xmlns:xlink="http://www.w3.org/1999/xlink" x="0px" y="0px"
	 viewBox="0 0 150 150" style="enable-background:new 0 0 150 150;" xml:space="preserve">
<style type="text/css">
	.st0{fill:#A34358;}
	.st1{fill:#F2CCA2;}
	.st2{fill:#663300;}
	.st3{fill:#592D06;}
	.st4{fill:#000407;}
	.st5{fill:#EFEFEF;}
	.st6{fill:#B7465B;}
	.st7{fill:#21040C;}
	.st8{fill:#DFE5E1;}
	.st9{fill:#0F3551;}
	.st10{fill:#8EE1EF;}
	.st11{fill:#F3ECE1;}
	.st12{fill:#262428;}
	.st13{fill:#4D3829;}
	.st14{fill:#E1A224;}
	.st15{fill:#FFFFFF;}
	.st16{fill:#26356C;}
	.st17{fill:#B22320;}
	.st18{fill-rule:evenodd;clip-rule:evenodd;fill:#D6B8A0;}
	.st19{fill:#E5E5E5;}
	.st20{fill:#FDFBFA;}
	.st21{fill:#0F0A08;}
	.st22{opacity:0.52;}
	.st23{fill:#D8B695;}
	.st24{fill:#C17449;}
</style>
<g id="head">
	<path id="XMLID_272_" class="st0" d="M44.7,86.2c0,0,9.3,23.2,5.8,41.2c0,0-2.5,3.5-5.9,2.2"/>
	<g id="XMLID_273_">
		<path id="XMLID_274_" class="st1" d="M125.6,69.4c1.4,3.3,1,3.9,2.7,3.7l-1.7,4.1c0.6,3.4,0.8,9.1-4.5,10.4
			c-2.8,0.7-6.6-1.3-7.5-4.7l-0.6-1.6c-3.1-0.2-5.9-0.7-6.6-2.2c-2-4.2-2.3-8.4-2.4-8.7c0,0,0.8-11.5,4.5-15c4.4,0.6,10,0.2,15-0.9
			c-0.1,1.7,0.3,7,0.4,9.4c0,0,2.6-0.9,2.9,1.9C128.2,68.8,125.6,69.4,125.6,69.4z"/>
	</g>
	<g id="XMLID_275_">
		<path id="XMLID_276_" class="st1" d="M26.5,68.6c-1.3,3.3-1,3.9-2.6,3.8l1.8,4.1c-0.6,3.4-0.7,9.1,4.7,10.4
			c2.8,0.7,6.6-1.4,7.4-4.8l0.6-1.6c3.1-0.3,5.9-0.8,6.5-2.3c1.9-4.3,2.2-8.5,2.2-8.7c0,0-1-11.5-4.8-14.9c-4.4,0.7-10,0.4-15-0.7
			c0.2,1.7-0.2,7-0.3,9.4c0,0-2.7-0.8-2.9,2C23.9,68,26.5,68.6,26.5,68.6z"/>
	</g>
	<path id="XMLID_277_" class="st2" d="M108.3,57.2c0,0-7.2-2.9-5-7.2c0,0,1,3.5,3.7,2.8c2.7-0.7,14-6,15.7-4c0,0,5.4,0.9,5,2.9
		l-4.5,4.2C123.3,55.8,112.7,59.1,108.3,57.2z"/>
	<path id="XMLID_278_" class="st2" d="M123.1,55.9c0,0-0.9,1.6,0.5,8.4c0,0,2.6-1,3.1,1.9c0.4,2.8-2.2,3.2-2.2,3.2s0.8,4.7,2.5,4.1
		c1.6-0.6,7.3,0.1,6.4-8.5c-0.7-7.6-5.7-13.7-5.7-13.7"/>
	<path id="XMLID_279_" class="st3" d="M35.5,54.8l-8.1-0.2l-0.3,8.6c0,0-2.8-0.7-2.9,2.2s2.3,2.8,2.4,3.2S26,72.9,24,72.4
		s-6.5-0.1-4.8-11.4s5.6-10.7,5.6-10.7L35.5,54.8z"/>
	<path id="XMLID_280_" class="st2" d="M42.9,54.6c0,0,3.3-4.3,0-6c-3.3-1.7-21.7-3.8-24.1-0.6C18.8,48,24.2,60.5,42.9,54.6z"/>
	<path id="XMLID_281_" class="st4" d="M114.3,86.9"/>
	<path id="XMLID_282_" class="st5" d="M104.1,97.5l-0.5-10.2c0,0-12.6,15.7-13.8,16.4s-13-18.8-13-18.8l-6.2,4.4
		c0,0,17,24.4,18.4,24.1C90.5,113.1,104.1,97.5,104.1,97.5"/>
	<path id="XMLID_283_" class="st6" d="M24.1,83.5l-8.5,6.2l6.5,60.3c0,0,22.7,0,25.7,0c2.6,0,3-15.2,3-15.2S46.6,86,44.7,86
		c-1.9,0-6.3-1.1-6.3-1.1l0.6,4.2L34.7,86l-3.4,6.5L24.1,83.5z"/>
	<path id="XMLID_284_" class="st7" d="M25.1,80.3c0,0-1.4,1.2-0.8,4.5l8.2,10.1l2.9-7.3L25.1,80.3z"/>
	<path id="XMLID_285_" class="st7" d="M34.7,87.4l3.1-5.5c0,0,4.5,8.5,1.2,11.3L34.7,87.4z"/>
	<polygon id="XMLID_286_" class="st1" points="33.8,86.4 34.8,87.2 36.2,84.8 	"/>
	<path id="XMLID_287_" class="st8" d="M26.9,109.1l2.6,25.8c0.1,1.2,1.2,2.1,2.4,2l17.8-1.7c1.2-0.1,2.1-1.2,2-2.4L49.3,106
		c-0.1-1.3-1.3-2.2-2.5-2l-18,2.7C27.6,106.9,26.8,107.9,26.9,109.1z"/>
	<path id="XMLID_288_" class="st9" d="M112.7,83.7l2,5.5l2.9-3.6l4.8,4.7l4.9-9.4l10.4,2.8c0,0,2.1,66.3-0.2,66.3
		c-3.3,0-29.6,0-29.6,0l-4.4-62.7C103.6,87.3,105.2,86.1,112.7,83.7z"/>
	<path id="XMLID_289_" class="st0" d="M20,90l3.7,36.4c0.6,1.4,13.5-4.6,13.5-4.6l1.3,6.4c0,0-17.9,7.7-21.2,8.6
		c-3.3,1-2.4-46.8-2.4-46.8S16.8,85.6,20,90z"/>
	<polygon id="XMLID_290_" class="st10" points="115.2,88.7 117.7,85.5 122.1,89.8 	"/>
	<polygon id="XMLID_291_" class="st10" points="119.1,92.7 122.1,89.8 115.2,88.7 117.2,90.8 	"/>
	<polyline id="XMLID_292_" class="st10" points="117.2,90.5 115.9,113.1 119.4,118.9 122.7,113.1 120.9,90.7 	"/>
	<path id="XMLID_293_" class="st5" d="M126.6,78.9l-9.2,7.2l5,4.3C122.5,90.4,130.4,80.7,126.6,78.9z"/>
	<path id="XMLID_294_" class="st5" d="M118,85.9l-3.1,3.6l-2.8-5.4l-0.1-0.1c0,0,0.7-0.3,0.8-0.5"/>
	<path id="XMLID_295_" class="st5" d="M117.5,85.5l-3.3-3.6c0,0-2,1.8-1.4,2.4C112.7,84.4,114.6,85.2,117.5,85.5z"/>
	<path id="XMLID_296_" class="st5" d="M139.8,83.7c-3.2-1.1-4,1-4,1l-0.6,33c-0.4,1.3-20.5-5.4-20.5-5.4l-1.5,7.7
		c0,0,25.8,9.1,26.6,7.5c0,0,2.3,0.9,2.2-32.8C142,94.8,141.5,84.3,139.8,83.7z"/>
</g>
<g id="Layer_1">
	<g>
		<g id="XMLID_298_">
			<g id="XMLID_299_">
				<path id="XMLID_300_" class="st11" d="M-117.4,294c0-1-0.3-1.9-0.9-2.7c0.1-0.3,0.1-0.6,0.1-1c0-2.6-2.4-4.8-5.4-4.8
					c-0.1,0-0.1,0-0.2,0c-1-1.2-2.6-2-4.4-2c-1.1,0-2.1,0.3-3,0.8c-0.7-0.3-1.5-0.5-2.3-0.5c-2.6,0-4.8,1.6-5.3,3.8
					c-1.7,0.3-3,1.7-3,3.3c0,0.7,0.3,1.4,0.7,2c-0.5,0.6-0.8,1.3-0.8,2.1c0,1.9,2,3.5,4.1,3.5c0.2,0-0.3,0,0.7,0c0,0,0,0,0,0
					c0,2.6,2.2,4.8,5.2,4.8c1.4,0,2.5-0.5,3.5-1.2c0.7,0.3,1.4,0.5,2.3,0.5c2.8,0,5-1.9,5.3-4.2C-118.8,297.7-117.4,296-117.4,294z"
					/>
				<circle id="XMLID_301_" class="st11" cx="-123.2" cy="311.3" r="1"/>
				<circle id="XMLID_302_" class="st11" cx="-126.3" cy="309.8" r="1.4"/>
				<circle id="XMLID_303_" class="st11" cx="-128.4" cy="306.3" r="1.5"/>
			</g>
			<g id="XMLID_304_">
				<g id="XMLID_305_">
					<path id="XMLID_306_" class="st12" d="M-122.9,351.1l7.9-0.4l7.5,0.3c-0.5,2.4-0.7,3.7-2,4.6l0.2,17.4h-1.3l-1.3-10.6l-0.6-6.1
						c-2.4,0.2-2.7,0.3-4.7,0.2l-1.4,16.4h-1.7l-0.3-17.3C-120.8,355.7-122.2,354-122.9,351.1z"/>
					<g id="XMLID_307_">
						<path id="XMLID_308_" class="st13" d="M-118.7,373c0-2-1.9-1.6-2.7-1.4c-0.7,0.2-2.7,1.4-2.7,1.4H-118.7z"/>
						<path id="XMLID_309_" class="st13" d="M-105.3,373c0,0-1.9-1.2-2.7-1.4c-0.7-0.2-2.8-0.6-2.7,1.4H-105.3z"/>
					</g>
				</g>
				<g id="XMLID_310_">
					<path id="XMLID_311_" class="st1" d="M-109.6,320.9c0.9,0,1.7-0.7,1.7-1.7c0-0.9-0.7-1.6-1.5-1.7c0.3-1.4,0.6-2.7,1-3.7
						c-3-0.1-6.3-0.7-8.8-1.7c-1,1.1-7.1,6.9-7.1,6.9l2.3,1.1c0,0.1-0.5,2.6,0.1,5.3c0.2,0.9,1.7,1.6,3.5,2.2l0.1,1
						c0,2.1,1.9,3.8,3.6,3.8c3.3,0,4-3.3,4.1-5.3l1.6-2.1c-1-0.1-1.1-2-0.9-4.2C-109.8,320.9-109.7,320.9-109.6,320.9z"/>
					<path id="XMLID_312_" class="st14" d="M-103,311.6c-0.1-0.1-0.2-0.1-0.4-0.2c-0.1-0.4-0.1-0.8,0-1c0.1-0.2-0.3,0.1-0.8,0.5
						c-0.2-0.5-0.4-1-0.3-1.2c0.1-0.3-0.3,0.3-0.7,0.8c-4.9-2.2-8.4-2.2-10.7-1.5c-0.1-0.6-0.2-1.1-0.3-0.8c-0.1,0.4-1,1.2-1.5,1.5
						c-1.7,1-2.4,2.3-2.4,2.3c1.2,2.1,5.7,1.3,5.7,1.3l-0.3,0.6l3.4-0.2l-0.6,1.5c0,0,2.1-0.7,2.8-0.7c-1.2,3.4-2.3,10.8,0.2,10.7
						C-101.5,324.8-102,312.1-103,311.6z"/>
					<g id="XMLID_313_">
						<circle id="XMLID_314_" class="st12" cx="-118.7" cy="316.8" r="0.7"/>
						<circle id="XMLID_315_" class="st15" cx="-118.9" cy="316.5" r="0.2"/>
					</g>
				</g>
				<g id="XMLID_316_">
					<g id="XMLID_317_">
						<path id="XMLID_318_" class="st11" d="M-127.1,335.7c3.2-3,8.9-5.8,8.9-5.8l0.6,0.2c4.3,2.7,6.6-0.4,6.6-0.4l8.6,0.1l0.6,3.9
							l-5.7,0.7c0,0,0.8,14.2,0,17c0,0-4.9-0.4-7.4-0.4c-2.4,0-8.3,0.4-8.3,0.4c0-3.1,1.1-10.4,1.3-14.6c-1,0.6-2,1.6-2.6,2
							L-127.1,335.7z"/>
						<g id="XMLID_319_">
							<polygon id="XMLID_320_" class="st15" points="-111,329.7 -114.8,330.6 -118.2,329.9 -117.9,333.5 -114.8,330.6 
								-111.7,333.5 							"/>
							<g id="XMLID_321_">
								<polygon id="XMLID_322_" class="st16" points="-116.4,332.1 -114.8,330.6 -113.1,332.2 -114.3,334.2 -112.2,344.7 
									-114.7,347.2 -117.2,344.7 -115,334.2 								"/>
							</g>
						</g>
					</g>
					<g id="XMLID_323_">
						<path id="XMLID_324_" class="st1" d="M-120.6,348.7c-0.4-0.2-1.5-1.1-1.5-1.1l-0.7-0.4l0-0.4c-0.6-0.1-1.1-0.1-1.4,0
							c-0.9-1-3.1-6-2.9-6.9c0-0.3,1.3-1.1,2-1.9l-1.7-1.9c-0.3,0.3-1.9,1.7-3,3.1c-1.1,1.4,3.9,8.3,4.9,8.9
							c0.1,0.7,0.7,1.6,1.7,1.8c0.1,0,0.6,0.9,0.9,1.2c0.1,0.1,0.3,0,0.3-0.1c0-0.1-0.7-1.2-0.7-1.2c0.1,0,0.1-0.1,0.2-0.1l1.2,1.1
							c0.2,0.1,0.3,0,0.4-0.1c0-0.1-0.2-0.4-0.2-0.4l-1-1c0,0,0.1-0.1,0.1-0.1l1.3,1.2c0.2,0.1,0.3,0,0.4-0.1c0-0.1-0.1-0.3-0.2-0.4
							c-0.4-0.2-1.3-1.2-1.3-1.2c0-0.1,0-0.1,0-0.2l1.2,0.9c0.2,0.1,0.3,0,0.4-0.1C-120.3,348.9-120.5,348.7-120.6,348.7z"/>
						<g id="XMLID_325_">
							<path id="XMLID_326_" class="st1" d="M-101.8,320.5c0.2-0.5,0-1-0.2-1.4l0-0.5c0-0.2-0.2-0.3-0.3-0.3c0,0-0.1,0-0.1,0
								l-1.3-2.3c-0.1-0.2-0.4-0.2-0.5-0.2c-0.1,0.1-0.3,0.3-0.2,0.5l1.1,2c0,0,0,0,0,0c0,0,0,0,0,0l-0.3-0.5
								c-0.1-0.2-0.3-0.2-0.4-0.1c-0.2,0.1-0.2,0.3-0.1,0.4l0.1,0.2c-0.1-0.1-0.3-0.1-0.4-0.1c-0.2,0.1-0.2,0.3-0.1,0.4l0.1,0.3
								c-0.1-0.1-0.2-0.1-0.4,0c-0.2,0.1-0.2,0.3-0.1,0.4l0.3,0.5c0,0,0,0,0,0c0.3,0.7,0.9,1.5,1.7,1.5c0.5,1.3,2.3,9,2.3,9
								l-1.6,0.3l0.4,2.6c0.9-0.2,3.3-0.9,3.6-1.4C-97.8,331-101.2,321.7-101.8,320.5z"/>
							<g id="XMLID_327_">
								<path id="XMLID_328_" class="st14" d="M-106.6,317.4c0,0,2.3-0.7,2.8-0.3c0.5,0.3-1.5-1.9-1.5-1.9"/>
								<path id="XMLID_329_" class="st14" d="M-105.7,316.8c0,0,1.5-0.8,1.9-0.7c0.4,0.1-1.3-1-1.3-1"/>
								<path id="XMLID_330_" class="st14" d="M-105.9,317c0,0,1.5-0.8,1.9-0.7c0.4,0.1-1.3-1-1.3-1"/>
							</g>
						</g>
					</g>
				</g>
				<ellipse id="XMLID_331_" class="st5" cx="-115" cy="373" rx="14.6" ry="0.9"/>
			</g>
		</g>
		<g id="XMLID_332_">
			<g id="XMLID_333_">
				<g id="XMLID_334_">
					<path id="XMLID_335_" class="st1" d="M-177.8,319.6l-3.6-2l0,0c-0.5-1.3-1.3-2.4-2.2-3.5c-2.4,1-5.7,1.6-8.8,1.7
						c0.3,1,0.7,2.3,1,3.7c-0.9,0.1-1.5,0.8-1.5,1.7c0,0.9,0.7,1.7,1.7,1.7c0.1,0,0.3,0,0.4,0c0.2,2.3,0.1,4.1-0.9,4.2l1.9,2.5
						l0.2,1.1c0,2.1,2,3.8,3.7,3.8c1.7,0,3.6-1.7,3.6-3.8l0.1-0.7c0.5-1,0.9-2.3,1.1-3.7c-0.4,0-0.9-0.1-1.3-0.3
						c-1.1-0.5-1.7-1.4-1.4-2c0.3-0.6,1.4-0.8,2.4-0.3c0.3,0.1,0.5,0.2,0.7,0.4c0.1-1,0.2-2,0.2-2.9c0-0.3,0-0.5,0-0.8L-177.8,319.6
						z"/>
					<path id="XMLID_336_" class="st13" d="M-180.2,310c0-2.1-1.7-3.8-3.7-3.8c-1.8,0-3.2,1.2-3.6,2.9c-3.5,0.5-7.6,1.7-10.3,4.4
						c-0.8,0.8,2.9,13,5.7,13.6c1.2,0.2,1.4-1.8,1.2-4.2c-0.1,0-0.2,0-0.4,0c-0.9,0-1.7-0.7-1.7-1.7c0-0.9,0.7-1.6,1.5-1.7
						c-0.3-1.4-0.6-2.7-1-3.7c5.7-0.1,12.5-2.1,12.3-5.4C-180.2,310.3-180.2,310.1-180.2,310z"/>
					<g id="XMLID_337_">
						<circle id="XMLID_338_" class="st12" cx="-185.4" cy="318" r="0.7"/>
						<circle id="XMLID_339_" class="st15" cx="-185.2" cy="317.7" r="0.2"/>
					</g>
				</g>
				<g id="XMLID_340_">
					<ellipse id="XMLID_341_" class="st5" cx="-185" cy="374.9" rx="14.6" ry="0.9"/>
					<g id="XMLID_342_">
						<path id="XMLID_343_" class="st12" d="M-176.4,353.1l-9.6-0.4l-9.9,0.4c0.2,0.9,1.2,3,2.1,3.9l1.4,7.6l-1.4,10.4h2.3l1.5-10.6
							l0-6.1c2.7,0.5,5.1,0.6,7.7,0.1l1.6,6.3l-0.9,10.4h2.3l1.1-10.7l-0.7-6.7C-178.7,357.5-176.7,354.1-176.4,353.1z"/>
						<g id="XMLID_344_">
							<path id="XMLID_345_" class="st13" d="M-188.6,375c0,0-1.9-1.2-2.7-1.4c-0.7-0.2-2.8-0.6-2.7,1.4H-188.6z"/>
							<path id="XMLID_346_" class="st13" d="M-181.6,375c0-2,1.9-1.6,2.7-1.4c0.7,0.2,2.7,1.4,2.7,1.4H-181.6z"/>
						</g>
					</g>
					<g id="XMLID_347_">
						<path id="XMLID_348_" class="st1" d="M-162.9,338.3l-2.1,0.7c0-0.1,0-0.1,0-0.2l2.3-0.8c0.2-0.1,0.3-0.2,0.2-0.3
							c-0.1-0.1-0.3-0.2-0.4-0.1l-2.3,0.8c0,0-0.1-0.1-0.1-0.1l2.1-0.7c0.2-0.1,0.3-0.2,0.2-0.3c-0.1-0.1-0.3-0.2-0.4-0.1l-3.1,1.1
							c-0.1,0-0.1-0.1-0.2-0.1l0.9-0.3c0.3-0.1,0.4-0.4,0.3-0.6c0,0-1.6,0.5-1.7,0.6c-0.6,0.2-1,0.8-0.9,1.3c-1.2,1-4.1,2.9-4.1,2.9
							c-1.2-1.5-2-3.1-2.9-5.6l-2.2,1.5c1.3,2.6,3.5,7.6,5.2,7.7c0.9,0,4.2-3.5,5.1-4.9c0.4,0.1,0.8,0.2,1.2,0
							c0.1,0,2.7-0.9,2.7-0.9c0.1,0,0.2-0.2,0.1-0.3c-0.1-0.1-0.2-0.2-0.4-0.1l-1.6,0.5c0-0.1,0-0.1,0-0.2l2.3-0.8
							c0.2-0.1,0.3-0.2,0.2-0.3C-162.5,338.3-162.7,338.2-162.9,338.3z"/>
						<g id="XMLID_349_">
							<g id="XMLID_489_">
								<path id="XMLID_494_" class="st1" d="M-171.6,340.8c-0.9-2.3-4.8-7.9-10.1-9.4c-0.1,0-0.2,0-0.2,0l0,0c-0.2,0-0.3,0-0.3,0
									c-4.3,2.7-7.9,0-7.9,0s-1.4,0.2-3.3,0.8c-3.9,1.2-6.9,8.2-7.8,10.6l4.6,1.7c0.4-0.7,1.7-2.5,2.2-3.6
									c-0.2,4.1-2.3,9.8-1.5,12.5c0,0,7.4-0.5,9.8-0.5c2.4,0,9.7,0.2,9.7,0.2c0-3.1-1.8-8.5-2.1-12.7c0.3,0.6,1.5,1.9,1.8,2.5
									L-171.6,340.8z"/>
								<g id="XMLID_490_">
									<polygon id="XMLID_493_" class="st1" points="-182.2,331.4 -186.2,332.5 -190.1,331.4 -189.3,335.4 -186.2,332.6 
										-183.1,335.4 									"/>
									<g id="XMLID_491_">
										<polygon id="XMLID_492_" class="st1" points="-184.6,334 -186.1,332.6 -187.8,334.1 -186.6,336.1 -188.7,346.6 
											-186.2,349.1 -183.7,346.6 -185.9,336.1 										"/>
									</g>
								</g>
							</g>
							<g id="XMLID_483_">
								<path id="XMLID_488_" class="st11" d="M-171.6,340.8c-0.9-2.3-4.8-7.9-10.1-9.4c-0.1,0-0.2,0-0.2,0l0,0c-0.2,0-0.3,0-0.3,0
									c-4.3,2.7-7.9,0-7.9,0s-1.4,0.2-3.3,0.8c-3.9,1.2-6.9,8.2-7.8,10.6l4.6,1.7c0.4-0.7,1.7-2.5,2.2-3.6
									c-0.2,4.1-2.3,9.8-1.5,12.5c0,0,7.4-0.5,9.8-0.5c2.4,0,9.7,0.2,9.7,0.2c0-3.1-1.8-8.5-2.1-12.7c0.3,0.6,1.5,1.9,1.8,2.5
									L-171.6,340.8z"/>
								<g id="XMLID_484_">
									<polygon id="XMLID_487_" class="st15" points="-182.2,331.4 -186.2,332.5 -190.1,331.4 -189.3,335.4 -186.2,332.6 
										-183.1,335.4 									"/>
									<g id="XMLID_485_">
										<polygon id="XMLID_486_" class="st17" points="-184.6,334 -186.1,332.6 -187.8,334.1 -186.6,336.1 -188.7,346.6 
											-186.2,349.1 -183.7,346.6 -185.9,336.1 										"/>
									</g>
								</g>
							</g>
						</g>
						<path id="XMLID_355_" class="st1" d="M-193.6,353l0.8,0.4c0.3,0.1,0.5,0,0.6-0.3c0,0-1.5-0.8-1.6-0.8
							c-0.5-0.3-1.1-0.2-1.4,0.1c-1.3-1.3-4.1-4.9-4.1-4.9c0.6-1.7,0.2-1,1.6-3.5l-2.4-0.9c-1.2,2.6-2.6,4.7-1.6,6
							c0.5,0.7,4.4,4,6.1,5.2c0.1,0.4,0.4,0.7,0.7,0.9L-193.6,353z"/>
					</g>
				</g>
			</g>
			<path id="XMLID_356_" class="st11" d="M-171.1,259.3c-14.9,0-27,9.1-27,20.3c0,9.9,9.3,18.1,21.7,19.9c-0.8,2.2-2.1,4.2-4.1,5.7
				c3.7,0.2,6.7-2.2,9-5.3c0.1,0,0.3,0,0.4,0c14.9,0,27-9.1,27-20.3C-144.1,268.4-156.2,259.3-171.1,259.3z"/>
		</g>
	</g>
	<g id="XMLID_357_">
		<g id="XMLID_358_">
			<g id="XMLID_359_">
				<g id="XMLID_360_">
					<g id="XMLID_361_">
						<path id="XMLID_362_" class="st1" d="M110.1,117.4c-1.8,0.9-4.3,0.4-6-1.9c-0.1-0.2-2.6-2.7-3.5-3c-0.3-0.1-0.1-0.8,0.1-1.1
							c0.2-0.3,3.1,2.1,3.1,2.1c0-0.2,0,0.4,0,0.2l-3.6-2.7c-0.4-0.3-0.3-0.8-0.1-1.1c0.2-0.3,0.6,0.1,0.6,0.1l3.5,1.7
							c0,0-0.1,0.4,0,0.3l-4-2.2c-0.4-0.3-0.4-0.7-0.1-1c0.2-0.3,0.4-0.3,0.8,0c1,0.6,4.2,1.7,4.2,1.7c0.1-0.1-0.3,0.3-0.2,0.2
							l-3.7-1.5c-0.4-0.3-1.3-1-1.1-1.3c0.2-0.3,0.7-0.6,1.1-0.3c1,0.7,6,1.9,6,1.9l1.9,1.3l0.8-0.5c0.9,1.4,1.5,2.7,1.6,3.4
							c0,0,2.5,0.4,2.5,0.8c0,0.7-0.6,3.5-0.6,3.5L110.1,117.4z"/>
					</g>
				</g>
			</g>
		</g>
	</g>
	<g id="XMLID_363_">
		<g id="XMLID_364_">
			<g id="XMLID_365_">
				<g id="XMLID_366_">
					<g id="XMLID_367_">
						<path id="XMLID_368_" class="st1" d="M71.2,86.8c-1.9-1-3.5-2.8-4.3-5.4c-0.1-0.2-2.1-2.4-2.6-3.3c-0.2-0.3,0.1-0.7,0.5-0.8
							c0.4-0.1,3.2,2.8,3.2,2.8c0.1-0.1,0,0,0.1-0.1l-2.6-4.6c-0.1-0.5,0.1-1,0.5-1c0.4-0.1,1,0.8,1,0.8l2.4,4.1
							c0.1-0.1,0.1-0.1,0.3-0.1l-2.5-5c-0.1-0.5,0.1-1,0.5-1c0.4-0.1,0.8,0.3,1,0.8c0.5,1.2,2.6,4.6,2.6,4.6c0.1,0,0.2-0.1,0.4-0.1
							l-1.7-4c-0.1-0.5,0.1-1,0.5-1c0.4-0.1,0.8,0.3,1,0.8c0.5,1.3,2.2,4.8,2.2,4.8l1.2,2.3l1,0.2c-0.1,1.7-0.2,3.1-0.6,3.7
							c0,0,0.7,0.4,0.5,0.7c-0.4,0.5-3,2.2-3,2.2L71.2,86.8z"/>
					</g>
				</g>
			</g>
		</g>
	</g>
	<g id="XMLID_369_">
		<g id="XMLID_370_">
			<g id="XMLID_371_">
				<g id="XMLID_372_">
					<g id="XMLID_373_">
						<path id="XMLID_374_" class="st1" d="M109.7,111.6c0-0.3-2.2-2.4-2.7-3.4c-0.2-0.4,0.1-0.9,0.5-1c0.4-0.1,2.8,2.8,2.8,2.8"/>
					</g>
				</g>
			</g>
		</g>
	</g>
	<g id="XMLID_375_">
		<g id="XMLID_376_">
			<g id="XMLID_377_">
				<g id="XMLID_378_">
					<g id="XMLID_379_">
						<path id="XMLID_380_" class="st1" d="M42,126c2,0.8,4.7,0,6.2-2.5c0.1-0.2,2.5-3.1,3.4-3.6c0.3-0.2,0.1-0.9-0.2-1.2
							c-0.3-0.3-3.2,2.5-3.2,2.5c0-0.2,0.1,0.4,0,0.2l3.6-3.2c0.4-0.4,0.2-0.9,0-1.2c-0.3-0.3-0.7,0.1-0.7,0.1l-3.6,2.1
							c0,0,0.1,0.4,0,0.3l4-2.7c0.4-0.4,0.3-0.7,0-1c-0.3-0.3-0.5-0.3-0.9,0c-1,0.7-4.3,2.2-4.3,2.2c-0.1-0.1,0.3,0.3,0.2,0.2l3.8-2
							c0.4-0.4,1.3-1.2,1-1.5c-0.3-0.3-0.8-0.6-1.2-0.3c-1,0.8-6.2,2.5-6.2,2.5l-1.9,1.5l-0.9-0.5c-0.8,1.6-1.4,3-1.4,3.8
							c0,0-2.6,0.7-2.6,1.1c0,0.7,1,3.7,1,3.7L42,126z"/>
					</g>
				</g>
			</g>
		</g>
	</g>
	<g id="XMLID_381_">
		<g id="XMLID_382_">
			<g id="XMLID_383_">
				<g id="XMLID_384_">
					<g id="XMLID_385_">
						<path id="XMLID_386_" class="st1" d="M41.5,120.1c0-0.3,2-2.5,2.4-3.6c0.2-0.4-0.2-0.9-0.6-0.9c-0.4-0.1-2.6,3.1-2.6,3.1"/>
					</g>
				</g>
			</g>
		</g>
	</g>
	<g id="XMLID_387_">
		<g id="XMLID_388_">
			<g id="XMLID_389_">
				<g id="XMLID_390_">
					<g id="XMLID_391_">
						<path id="XMLID_392_" class="st1" d="M74.2,82.4c0.2-0.2,0.2-3.3,0.6-4.4c0.1-0.4,0.7-0.4,1-0.2c0.3,0.3-0.1,4.2-0.1,4.2"/>
					</g>
				</g>
			</g>
		</g>
	</g>
</g>
<g id="Layer_3">
	<path id="XMLID_393_" class="st18" d="M129.5,86"/>
</g>
<g id="Layer_5">
	<g id="XMLID_394_">
		<path id="XMLID_395_" class="st19" d="M80.1,43c-7.2-7.2-7.2-18.8,0-26c7.2-7.2,18.8-7.2,26,0c6.2,6.2,7,15.8,2.4,22.9l2.5,7.9
			l-7.9-2.5C95.9,50,86.4,49.2,80.1,43z"/>
	</g>
	<g id="XMLID_396_">
		<path id="XMLID_397_" class="st19" d="M38.7,10.6C44.1,2,55.4-0.6,64,4.9c8.6,5.4,11.1,16.7,5.7,25.3c-4.7,7.5-13.9,10.4-21.8,7.4
			l-7.2,4.2l0.6-8.3C35.3,27.6,34,18,38.7,10.6z"/>
	</g>
	<polygon id="XMLID_398_" class="st5" points="112.9,83.4 116.3,84.2 118.2,85.9 116.6,86 	"/>
	<path id="XMLID_399_" class="st2" d="M110.4,62.9c0.2,0,0.3-0.7,0.2-1.1c-0.1-0.4-0.5-0.6-0.6-0.6c-0.1,0-0.3,0.1-0.3,0.1
		s-0.8-0.2-1-0.2c-0.1,0-0.3,0-0.3,0s-0.6-0.1-0.8,0c-0.2,0.1-0.4,0.2-0.4,0.2s-0.5,0.1-0.7,0.3c-0.2,0.2-0.2,0.3-0.2,0.3
		s-0.4,0.4-0.5,0.5c-0.1,0.1-0.1,0.1-0.1,0.1s-0.3,0.4-0.2,0.5c0.1,0.1,0.8-0.5,1-0.7c0.2-0.2,1-0.3,1.6-0.2
		C108.9,62.2,110.1,62.8,110.4,62.9z"/>
	<path id="XMLID_400_" class="st2" d="M115.7,62.9c-0.2,0-0.3-0.7-0.2-1.1c0.1-0.4,0.5-0.6,0.6-0.6c0.1,0,0.4,0.1,0.4,0.1
		s0.9-0.2,1-0.2c0.1,0,0.3,0,0.3,0s0.6-0.1,0.8,0c0.2,0.1,0.4,0.2,0.4,0.2s0.5,0.1,0.7,0.3c0.2,0.2,0.2,0.3,0.2,0.3s0.4,0.4,0.5,0.5
		c0.1,0.1,0.1,0.1,0.1,0.1s0.3,0.4,0.2,0.5c-0.1,0.1-0.8-0.5-1.1-0.7c-0.3-0.2-1-0.3-1.7-0.2C117.3,62.1,116,62.8,115.7,62.9z"/>
	<path id="XMLID_401_" class="st20" d="M120,65.9c0,0,0.1-0.4-0.5-0.8c-1.4-0.9-2.5-0.9-4,0.7C115.5,65.8,117.6,67.7,120,65.9z"/>
	<path id="XMLID_402_" class="st20" d="M106.1,65.9c0,0-0.1-0.3,0.5-0.7c1.3-0.9,2.2-0.8,3.5,0.6C110.1,65.8,108.3,67.5,106.1,65.9z
		"/>
	<ellipse id="XMLID_403_" class="st21" cx="117.7" cy="65.6" rx="0.9" ry="1.1"/>
	<ellipse id="XMLID_404_" class="st21" cx="108" cy="65.6" rx="0.9" ry="1"/>
	<path id="XMLID_405_" class="st20" d="M47.1,63.4c0,0,0.1-0.4-0.6-0.8c-1.5-0.8-2.5-0.7-3.9,1C42.5,63.6,44.7,65.4,47.1,63.4z"/>
	<path id="XMLID_406_" class="st20" d="M33.2,64.3c0,0-0.1-0.4,0.5-0.9c1.4-1.1,2.5-1.1,4.1,0.4C37.7,63.8,35.8,66,33.2,64.3z"/>
	
		<ellipse id="XMLID_407_" transform="matrix(0.9971 -7.602839e-02 7.602839e-02 0.9971 -4.678 3.5775)" class="st21" cx="44.6" cy="63.2" rx="0.9" ry="1.1"/>
	
		<ellipse id="XMLID_408_" transform="matrix(0.9971 -7.602839e-02 7.602839e-02 0.9971 -4.7492 2.868)" class="st21" cx="35.3" cy="63.8" rx="1.1" ry="1.2"/>
	<path id="XMLID_409_" class="st20" d="M109.8,75.4l7-1.4c0,0-0.3,3.7-2.7,3.6C111.7,77.6,109.8,75.4,109.8,75.4z"/>
	<g id="XMLID_410_" class="st22">
		<g id="XMLID_448_">
			<path id="XMLID_456_" class="st23" d="M111.9,68.3c-0.2,1-0.5,2-0.6,3c0,0.3-0.1,0.8,0.3,1c0.2,0.1,0.6-0.1,0.8-0.1
				c0.3-0.1,0.6-0.1,0.9-0.2c0.5-0.1,0.3-0.8-0.2-0.7c-0.2,0-0.4,0.1-0.6,0.1c-0.2,0-0.3,0.1-0.5,0.1c-0.2,0-0.4,0-0.2,0.2
				c0.2,0.2,0.1-0.1,0.1-0.3c0-0.2,0.1-0.5,0.1-0.7c0.1-0.7,0.3-1.4,0.5-2.1C112.7,68,112,67.8,111.9,68.3L111.9,68.3z"/>
		</g>
	</g>
	<g id="XMLID_411_" class="st22">
		<g id="XMLID_442_">
			<path id="XMLID_446_" class="st23" d="M40.9,65.3c-0.2,1-0.5,2-0.6,3c0,0.3-0.1,0.8,0.3,1c0.2,0.1,0.6-0.1,0.8-0.1
				c0.3-0.1,0.6-0.1,0.9-0.2c0.5-0.1,0.3-0.8-0.2-0.7c-0.2,0-0.4,0.1-0.6,0.1c-0.2,0-0.3,0.1-0.5,0.1c-0.2,0-0.4,0-0.2,0.2
				c0.2,0.2,0.1-0.1,0.1-0.3c0-0.2,0.1-0.5,0.1-0.7c0.1-0.7,0.3-1.4,0.5-2.1C41.7,65,41,64.8,40.9,65.3L40.9,65.3z"/>
		</g>
	</g>
	<path id="XMLID_412_" class="st2" d="M37.2,61.5c0,0-0.1-1.1-0.5-1.2c-0.4-0.1-2.7-0.3-4.3,1c0,0-0.8,1.3-0.7,2.1
		c0,0,1-1.7,2.3-1.9C35.4,61.3,37.2,61.5,37.2,61.5z"/>
	<path id="XMLID_413_" class="st2" d="M42.1,61.2c0,0-0.2-1.1,0.1-1.3c0.2-0.2,1.9-1,3.4-0.1c0,0,0.9,1.1,1,1.9c0,0-1.1-1.4-2.1-1.3
		C43.4,60.6,42.1,61.2,42.1,61.2z"/>
	<g id="XMLID_414_">
		<g id="XMLID_428_">
			<path id="XMLID_437_" class="st24" d="M39.3,73.6c0.6-0.2,1.1-0.4,1.7-0.6c0.5-0.2,1.8-0.8,2.3-0.5c0.4,0.3,0.8-0.4,0.4-0.6
				c-0.7-0.4-1.8,0-2.4,0.3c-0.7,0.2-1.5,0.5-2.2,0.8C38.7,73.1,38.9,73.8,39.3,73.6L39.3,73.6z"/>
		</g>
	</g>
</g>
</svg>
