<?xml version="1.0" encoding="utf-8"?>
<!-- Generator: Adobe Illustrator 19.0.0, SVG Export Plug-In . SVG Version: 6.00 Build 0)  -->
<svg version="1.1" xmlns="http://www.w3.org/2000/svg" xmlns:xlink="http://www.w3.org/1999/xlink" x="0px" y="0px"
	 viewBox="-63 65 128 128" style="enable-background:new -63 65 128 128;" xml:space="preserve">
<style type="text/css">
	.st0{fill:none;stroke:#CCEBF8;stroke-width:4;stroke-miterlimit:10;}
	.st1{fill:#80397B;}
	.st2{fill:#FFFFFF;}
	.st3{fill:#B6B6BA;}
	.st4{fill:#7C0E28;}
	.st5{font-family:'MyriadPro-Regular';}
	.st6{font-size:11.3289px;}
	.st7{font-size:9.913px;}
</style>
<g id="Layer_1">
	<g id="Layer_1_2_">
		<g id="Layer_1_1_">
			<circle id="XMLID_1_" class="st0" cx="1" cy="129" r="62"/>
		</g>
		<g id="Layer_2">
			<circle id="XMLID_2_" class="st1" cx="1" cy="129" r="52.5"/>
		</g>
	</g>
	<g id="Layer_3">
	</g>
</g>
<g id="Layer_2_1_">
	<g>
		
			<image style="overflow:visible;opacity:0.25;" width="50" height="57" xlink:href="26B7AC3A6584051B.png"  transform="matrix(1 0 0 1 -33.0603 104.9397)">
		</image>
		<g>
			<g>
				<g>
					<polygon class="st2" points="11.5,148.8 -20,156.3 -30.2,113.9 -3.8,107.6 2.5,111.3 					"/>
					<polyline class="st3" points="-3.3,107.5 -1.9,113.1 2.6,112 					"/>
				</g>
				
					<rect x="-22.9" y="117.2" transform="matrix(0.9722 -0.2341 0.2341 0.9722 -27.9688 -0.435)" class="st3" width="14.2" height="0.7"/>
				
					<rect x="-16" y="146.2" transform="matrix(0.9722 -0.2341 0.2341 0.9722 -34.6464 1.2722)" class="st3" width="8.1" height="0.7"/>
				
					<rect x="-21.7" y="122" transform="matrix(0.9722 -0.2341 0.2341 0.9722 -28.9504 0.8626)" class="st3" width="21.6" height="0.7"/>
				
					<rect x="-21" y="124.8" transform="matrix(0.9722 -0.2341 0.2341 0.9722 -29.5933 1.1005)" class="st3" width="21.6" height="0.7"/>
				
					<rect x="-20.3" y="127.6" transform="matrix(0.9722 -0.2341 0.2341 0.9722 -30.2361 1.3385)" class="st3" width="21.6" height="0.7"/>
				
					<rect x="-19.6" y="130.5" transform="matrix(0.9722 -0.2341 0.2341 0.9722 -30.879 1.5765)" class="st3" width="21.6" height="0.7"/>
				
					<rect x="-18.8" y="134" transform="matrix(0.9722 -0.2341 0.2341 0.9722 -31.6826 1.8739)" class="st3" width="21.6" height="0.7"/>
				
					<rect x="-18.1" y="136.8" transform="matrix(0.9722 -0.2341 0.2341 0.9722 -32.3255 2.1118)" class="st3" width="21.6" height="0.7"/>
				
					<rect x="-17.4" y="139.7" transform="matrix(0.9722 -0.2341 0.2341 0.9722 -32.9683 2.3498)" class="st3" width="21.6" height="0.7"/>
			</g>
		</g>
	</g>
	<g>
		
			<image style="overflow:visible;opacity:0.25;" width="51" height="60" xlink:href="26B7AC3A65840519.png"  transform="matrix(1 0 0 1 -11.0603 102.9397)">
		</image>
		<g>
			<g>
				<g>
					<polygon class="st2" points="22.6,157.1 -8.2,147 5.5,105.6 31.3,114.1 34.7,120.6 					"/>
					<polyline class="st3" points="31.8,114.3 30,119.8 34.5,121.3 					"/>
				</g>
				
					<rect x="8.8" y="115.9" transform="matrix(0.9493 0.3143 -0.3143 0.9493 37.3387 0.9045)" class="st3" width="14.2" height="0.7"/>
				
					<rect x="-0.2" y="142.5" transform="matrix(0.9493 0.3143 -0.3143 0.9493 45.1033 6.0334)" class="st3" width="8.1" height="0.7"/>
				
					<rect x="6.8" y="122.6" transform="matrix(0.9493 0.3143 -0.3143 0.9493 39.5267 0.709)" class="st3" width="21.6" height="0.7"/>
				
					<rect x="5.8" y="125.3" transform="matrix(0.9493 0.3143 -0.3143 0.9493 40.3478 1.136)" class="st3" width="21.6" height="0.7"/>
				
					<rect x="4.9" y="128.1" transform="matrix(0.9493 0.3143 -0.3143 0.9493 41.169 1.563)" class="st3" width="21.6" height="0.7"/>
				<rect x="4" y="130.9" transform="matrix(0.9493 0.3143 -0.3143 0.9493 41.9901 1.99)" class="st3" width="21.6" height="0.7"/>
				
					<rect x="2.9" y="134.3" transform="matrix(0.9493 0.3143 -0.3143 0.9493 43.0165 2.5238)" class="st3" width="21.6" height="0.7"/>
				
					<rect x="2" y="137.1" transform="matrix(0.9493 0.3143 -0.3143 0.9493 43.8376 2.9508)" class="st3" width="21.6" height="0.7"/>
				
					<rect x="1" y="139.8" transform="matrix(0.9493 0.3143 -0.3143 0.9493 44.6587 3.3778)" class="st3" width="21.6" height="0.7"/>
			</g>
		</g>
	</g>
	<g>
		
			<image style="overflow:visible;opacity:0.25;" width="43" height="54" xlink:href="26B7AC3A6584051F.png"  transform="matrix(1 0 0 1 -17.0603 98.9397)">
		</image>
		<g>
			<g>
				<g>
					<polygon class="st2" points="20.1,147.9 -14.3,148 -14.3,101.7 14.5,101.7 20.1,107.1 					"/>
					<polyline class="st3" points="15,101.7 15,107.9 20.1,107.9 					"/>
				</g>
				<rect x="-8" y="108.7" class="st3" width="15" height="0.8"/>
				<rect x="-8" y="139.5" class="st3" width="9" height="0.8"/>
				<rect x="-8" y="114.8" class="st3" width="23" height="0.8"/>
				<rect x="-8" y="117.9" class="st3" width="23" height="0.8"/>
				<rect x="-8" y="121" class="st3" width="23" height="0.8"/>
				<rect x="-8" y="124.1" class="st3" width="23" height="0.8"/>
				<rect x="-8" y="127.9" class="st3" width="23" height="0.8"/>
				<rect x="-8" y="131" class="st3" width="23" height="0.8"/>
				<rect x="-8" y="134.1" class="st3" width="23" height="0.8"/>
			</g>
		</g>
	</g>
	<text transform="matrix(1.1552 0 0 1 10.207 143.1397)" class="st4 st5 st6">?</text>
	<g>
		<text transform="matrix(0.6914 0.5571 -0.6274 0.7787 18.7492 152.0714)" class="st4 st5 st7">?</text>
	</g>
	<g>
		<text transform="matrix(1.0719 -0.4309 0.373 0.9278 -18.0463 152.393)" class="st4 st5 st6">!</text>
	</g>
</g>
</svg>
