<?xml version="1.0" encoding="utf-8"?>
<!-- Generator: Adobe Illustrator 19.0.0, SVG Export Plug-In . SVG Version: 6.00 Build 0)  -->
<svg version="1.1" xmlns="http://www.w3.org/2000/svg" xmlns:xlink="http://www.w3.org/1999/xlink" x="0px" y="0px"
	 viewBox="-63 65 128 128" style="enable-background:new -63 65 128 128;" xml:space="preserve">
<style type="text/css">
	.st0{fill:none;stroke:#CCEBF8;stroke-width:4;stroke-miterlimit:10;}
	.st1{fill:#FAA93B;}
	.st2{fill:#F2E9D1;stroke:#999896;stroke-width:0.25;stroke-miterlimit:10;}
	.st3{fill:#73D14F;}
	.st4{fill:#8A8895;}
	.st5{fill:#5C546A;}
</style>
<g id="Layer_1">
	<g id="Layer_1_3_">
		<g id="Layer_1_2_">
			<g id="Layer_1_1_">
				<circle id="XMLID_1_" class="st0" cx="1" cy="129" r="62"/>
			</g>
			<g id="Layer_2">
				<circle id="XMLID_2_" class="st1" cx="1" cy="129" r="52.5"/>
			</g>
		</g>
	</g>
</g>
<g id="Layer_2_1_">
	<g>
		<path class="st2" d="M26.4,108.1h-53.9c-2.8,0-5,2.2-5,5v22c0,2.8,2.2,5,5,5h53.9c2.8,0,5-2.2,5-5v-22
			C31.4,110.3,29.2,108.1,26.4,108.1L26.4,108.1z M26.4,108.1"/>
		<path class="st3" d="M-21,122.5c-2,0-3.5-1.1-3.5-2c0-0.9,1.5-2,3.5-2c2,0,3.5,1.1,3.5,2c0,0.8,0.7,1.5,1.5,1.5
			c0.8,0,1.5-0.7,1.5-1.5c0-2.4-2.1-4.4-5-4.9v-1.6c0-0.8-0.7-1.5-1.5-1.5c-0.8,0-1.5,0.7-1.5,1.5v1.6c-2.9,0.5-5,2.5-5,4.9
			c0,2.8,2.9,5,6.5,5c2,0,3.5,1.1,3.5,2s-1.5,2-3.5,2c-2,0-3.5-1.1-3.5-2c0-0.8-0.7-1.5-1.5-1.5c-0.8,0-1.5,0.7-1.5,1.5
			c0,2.4,2.1,4.4,5,4.9v1.6c0,0.8,0.7,1.5,1.5,1.5c0.8,0,1.5-0.7,1.5-1.5v-1.6c2.9-0.5,5-2.5,5-4.9C-14.5,124.7-17.3,122.5-21,122.5
			L-21,122.5z M-21,122.5"/>
		<path class="st4" d="M2.5,116.1h-12c-0.6,0-1-0.4-1-1c0-0.6,0.4-1,1-1h12c0.6,0,1,0.4,1,1C3.5,115.6,3,116.1,2.5,116.1L2.5,116.1z
			 M2.5,116.1"/>
		<path class="st4" d="M16.4,120h-26c-0.6,0-1-0.4-1-1c0-0.6,0.4-1,1-1h26c0.6,0,1,0.4,1,1C17.4,119.6,17,120,16.4,120L16.4,120z
			 M16.4,120"/>
		<path class="st5" d="M-5.5,126h-4c-0.6,0-1-0.4-1-1c0-0.6,0.4-1,1-1h4c0.6,0,1,0.4,1,1C-4.5,125.6-5,126-5.5,126L-5.5,126z
			 M-5.5,126"/>
		<path class="st5" d="M-5.5,130h-4c-0.6,0-1-0.4-1-1c0-0.6,0.4-1,1-1h4c0.6,0,1,0.4,1,1C-4.5,129.6-5,130-5.5,130L-5.5,130z
			 M-5.5,130"/>
		<path class="st5" d="M-5.5,134h-4c-0.6,0-1-0.4-1-1c0-0.6,0.4-1,1-1h4c0.6,0,1,0.4,1,1C-4.5,133.6-5,134-5.5,134L-5.5,134z
			 M-5.5,134"/>
		<path class="st4" d="M10.4,126h-12c-0.6,0-1-0.4-1-1c0-0.6,0.4-1,1-1h12c0.6,0,1,0.4,1,1C11.4,125.6,11,126,10.4,126L10.4,126z
			 M10.4,126"/>
		<path class="st4" d="M12.4,130h-14c-0.6,0-1-0.4-1-1c0-0.6,0.4-1,1-1h14c0.6,0,1,0.4,1,1C13.4,129.6,13,130,12.4,130L12.4,130z
			 M12.4,130"/>
		<path class="st4" d="M9.4,134h-11c-0.6,0-1-0.4-1-1c0-0.6,0.4-1,1-1h11c0.6,0,1,0.4,1,1C10.4,133.6,10,134,9.4,134L9.4,134z
			 M9.4,134"/>
		<path class="st5" d="M17.4,135c-0.3,0-0.5-0.1-0.7-0.3l-2-2c-0.4-0.4-0.4-1,0-1.4c0.4-0.4,1-0.4,1.4,0l0.9,0.9l0.7-1.8
			c0.3-0.7,0.9-1.2,1.7-1.3c0.8-0.1,1.5,0.3,1.9,0.9l4.2-7.5c0.3-0.5,0.9-0.7,1.4-0.4c0.5,0.3,0.7,0.9,0.4,1.4l-4.2,7.5
			c-0.3,0.6-1,1-1.7,1c-0.7,0-1.4-0.3-1.8-0.9l-1.3,3.2c-0.1,0.3-0.4,0.5-0.7,0.6C17.6,135,17.5,135,17.4,135L17.4,135z M17.4,135"
			/>
	</g>
	<g>
		<path class="st2" d="M33.4,120.5h-53.9c-2.8,0-5,2.2-5,5v22c0,2.8,2.2,5,5,5h53.9c2.8,0,5-2.2,5-5v-22
			C38.4,122.7,36.2,120.5,33.4,120.5L33.4,120.5z M33.4,120.5"/>
		<path class="st3" d="M-14,135c-2,0-3.5-1.1-3.5-2c0-0.9,1.5-2,3.5-2c2,0,3.5,1.1,3.5,2c0,0.8,0.7,1.5,1.5,1.5
			c0.8,0,1.5-0.7,1.5-1.5c0-2.4-2.1-4.4-5-4.9v-1.6c0-0.8-0.7-1.5-1.5-1.5c-0.8,0-1.5,0.7-1.5,1.5v1.6c-2.9,0.5-5,2.5-5,4.9
			c0,2.8,2.9,5,6.5,5c2,0,3.5,1.1,3.5,2s-1.5,2-3.5,2c-2,0-3.5-1.1-3.5-2c0-0.8-0.7-1.5-1.5-1.5c-0.8,0-1.5,0.7-1.5,1.5
			c0,2.4,2.1,4.4,5,4.9v1.6c0,0.8,0.7,1.5,1.5,1.5c0.8,0,1.5-0.7,1.5-1.5v-1.6c2.9-0.5,5-2.5,5-4.9C-7.5,137.2-10.3,135-14,135
			L-14,135z M-14,135"/>
		<path class="st4" d="M9.5,128.5h-12c-0.6,0-1-0.4-1-1c0-0.6,0.4-1,1-1h12c0.6,0,1,0.4,1,1C10.5,128,10,128.5,9.5,128.5L9.5,128.5z
			 M9.5,128.5"/>
		<path class="st4" d="M23.4,132.5h-26c-0.6,0-1-0.4-1-1c0-0.6,0.4-1,1-1h26c0.6,0,1,0.4,1,1C24.4,132,24,132.5,23.4,132.5
			L23.4,132.5z M23.4,132.5"/>
		<path class="st5" d="M1.5,138.5h-4c-0.6,0-1-0.4-1-1c0-0.6,0.4-1,1-1h4c0.6,0,1,0.4,1,1C2.5,138,2,138.5,1.5,138.5L1.5,138.5z
			 M1.5,138.5"/>
		<path class="st5" d="M1.5,142.5h-4c-0.6,0-1-0.4-1-1c0-0.6,0.4-1,1-1h4c0.6,0,1,0.4,1,1C2.5,142,2,142.5,1.5,142.5L1.5,142.5z
			 M1.5,142.5"/>
		<path class="st5" d="M1.5,146.5h-4c-0.6,0-1-0.4-1-1s0.4-1,1-1h4c0.6,0,1,0.4,1,1S2,146.5,1.5,146.5L1.5,146.5z M1.5,146.5"/>
		<path class="st4" d="M17.5,138.5h-12c-0.6,0-1-0.4-1-1c0-0.6,0.4-1,1-1h12c0.6,0,1,0.4,1,1C18.5,138,18,138.5,17.5,138.5
			L17.5,138.5z M17.5,138.5"/>
		<path class="st4" d="M19.4,142.5h-14c-0.6,0-1-0.4-1-1c0-0.6,0.4-1,1-1h14c0.6,0,1,0.4,1,1C20.4,142,20,142.5,19.4,142.5
			L19.4,142.5z M19.4,142.5"/>
		<path class="st4" d="M16.5,146.5h-11c-0.6,0-1-0.4-1-1s0.4-1,1-1h11c0.6,0,1,0.4,1,1S17,146.5,16.5,146.5L16.5,146.5z M16.5,146.5
			"/>
		<path class="st5" d="M24.4,147.5c-0.3,0-0.5-0.1-0.7-0.3l-2-2c-0.4-0.4-0.4-1,0-1.4c0.4-0.4,1-0.4,1.4,0l0.9,0.9l0.7-1.8
			c0.3-0.7,0.9-1.2,1.7-1.3c0.8-0.1,1.5,0.3,1.9,0.9l4.2-7.5c0.3-0.5,0.9-0.7,1.4-0.4c0.5,0.3,0.7,0.9,0.4,1.4l-4.2,7.5
			c-0.3,0.6-1,1-1.7,1c-0.7,0-1.4-0.3-1.8-0.9l-1.3,3.2c-0.1,0.3-0.4,0.5-0.7,0.6C24.6,147.5,24.5,147.5,24.4,147.5L24.4,147.5z
			 M24.4,147.5"/>
	</g>
</g>
</svg>
