<?xml version="1.0" encoding="utf-8"?>
<!-- Generator: Adobe Illustrator 19.0.0, SVG Export Plug-In . SVG Version: 6.00 Build 0)  -->
<svg version="1.1" id="Layer_1" xmlns="http://www.w3.org/2000/svg" xmlns:xlink="http://www.w3.org/1999/xlink" x="0px" y="0px"
	 viewBox="0 0 256 256" style="enable-background:new 0 0 256 256;" xml:space="preserve">
<style type="text/css">
	.st0{clip-path:url(#XMLID_3_);}
	.st1{fill:none;stroke:#363636;stroke-width:6.6459;stroke-linecap:round;stroke-miterlimit:10;}
	.st2{fill:#363636;}
	.st3{fill:#4E4E4E;}
	.st4{fill:#EBD0A7;}
	.st5{fill:#6E2023;}
	.st6{fill:#A42B31;}
	.st7{fill:#DCBE90;}
	.st8{fill:#EDEDED;}
	.st9{fill:#C7C7C7;}
	.st10{fill:#D8D8D8;}
	.st11{fill:#1B303F;}
	.st12{fill:#F0F0F0;}
</style>
<g id="XMLID_87_">
	<defs>
		<rect id="XMLID_2_" width="256" height="254.2"/>
	</defs>
	<clipPath id="XMLID_3_">
		<use xlink:href="#XMLID_2_"  style="overflow:visible;"/>
	</clipPath>
	<g id="XMLID_165_" class="st0">
		<path id="XMLID_84_" class="st1" d="M197.6,120.4c0,0,8.3,0.9,8.8,7.7"/>
		<path id="XMLID_83_" class="st1" d="M162.2,212.8c0,0-5,7.8-15.5-0.7"/>
		<path id="XMLID_82_" class="st2" d="M204.6,133.9c-0.4,0.3-1,0.3-1.3-0.1l-2.5-3.2c-0.3-0.4-0.3-1,0.1-1.3l0,0
			c0.4-0.3,1-0.3,1.3,0.1l2.5,3.2C205,133,204.9,133.6,204.6,133.9L204.6,133.9z"/>
		<path id="XMLID_81_" class="st2" d="M202.1,139.1c-0.4,0.3-1,0.3-1.3-0.1l-2.5-3.2c-0.3-0.4-0.3-1,0.1-1.3l0,0
			c0.4-0.3,1-0.3,1.3,0.1l2.5,3.2C202.5,138.2,202.5,138.8,202.1,139.1L202.1,139.1z"/>
		<path id="XMLID_80_" class="st2" d="M199.6,144.3c-0.4,0.3-1,0.3-1.3-0.1l-2.5-3.2c-0.3-0.4-0.3-1,0.1-1.3l0,0
			c0.4-0.3,1-0.3,1.3,0.1l2.5,3.2C200,143.4,200,144,199.6,144.3L199.6,144.3z"/>
		<path id="XMLID_79_" class="st2" d="M197.1,149.6c-0.4,0.3-1,0.3-1.3-0.1l-2.5-3.2c-0.3-0.4-0.3-1,0.1-1.3l0,0
			c0.4-0.3,1-0.3,1.3,0.1l2.5,3.2C197.5,148.6,197.5,149.2,197.1,149.6L197.1,149.6z"/>
		<path id="XMLID_78_" class="st2" d="M194.6,154.8c-0.4,0.3-1,0.3-1.3-0.1l-2.5-3.2c-0.3-0.4-0.3-1,0.1-1.3l0,0
			c0.4-0.3,1-0.3,1.3,0.1l2.5,3.2C195.1,153.8,195,154.4,194.6,154.8L194.6,154.8z"/>
		<path id="XMLID_77_" class="st2" d="M192.1,160c-0.4,0.3-1,0.3-1.3-0.1l-2.5-3.2c-0.3-0.4-0.3-1,0.1-1.3l0,0
			c0.4-0.3,1-0.3,1.3,0.1l2.5,3.2C192.6,159,192.5,159.6,192.1,160L192.1,160z"/>
		<path id="XMLID_76_" class="st2" d="M189.7,165.2c-0.4,0.3-1,0.3-1.3-0.1l-2.5-3.2c-0.3-0.4-0.3-1,0.1-1.3l0,0
			c0.4-0.3,1-0.3,1.3,0.1l2.5,3.2C190.1,164.3,190.1,164.8,189.7,165.2L189.7,165.2z"/>
		<path id="XMLID_75_" class="st2" d="M187.2,170.4c-0.4,0.3-1,0.3-1.3-0.1l-2.5-3.2c-0.3-0.4-0.3-1,0.1-1.3l0,0
			c0.4-0.3,1-0.3,1.3,0.1l2.5,3.2C187.6,169.5,187.6,170.1,187.2,170.4L187.2,170.4z"/>
		<path id="XMLID_74_" class="st2" d="M184.8,175.3c-0.4,0.3-1,0.3-1.3-0.1l-2.5-3.2c-0.3-0.4-0.3-1,0.1-1.3l0,0
			c0.4-0.3,1-0.3,1.3,0.1l2.5,3.2C185.3,174.4,185.2,175,184.8,175.3L184.8,175.3z"/>
		<path id="XMLID_73_" class="st2" d="M182.4,180.5c-0.4,0.3-1,0.3-1.3-0.1l-2.5-3.2c-0.3-0.4-0.3-1,0.1-1.3l0,0
			c0.4-0.3,1-0.3,1.3,0.1l2.5,3.2C182.8,179.6,182.8,180.2,182.4,180.5L182.4,180.5z"/>
		<path id="XMLID_72_" class="st2" d="M179.9,185.7c-0.4,0.3-1,0.3-1.3-0.1l-2.5-3.2c-0.3-0.4-0.3-1,0.1-1.3l0,0
			c0.4-0.3,1-0.3,1.3,0.1l2.5,3.2C180.3,184.8,180.3,185.3,179.9,185.7L179.9,185.7z"/>
		<path id="XMLID_71_" class="st2" d="M177.4,190.9c-0.4,0.3-1,0.3-1.3-0.1l-2.5-3.2c-0.3-0.4-0.3-1,0.1-1.3l0,0
			c0.4-0.3,1-0.3,1.3,0.1l2.5,3.2C177.9,189.9,177.8,190.5,177.4,190.9L177.4,190.9z"/>
		<path id="XMLID_70_" class="st2" d="M175,196c-0.4,0.3-1,0.3-1.3-0.1l-2.5-3.2c-0.3-0.4-0.3-1,0.1-1.3l0,0c0.4-0.3,1-0.3,1.3,0.1
			l2.5,3.2C175.4,195.1,175.4,195.7,175,196L175,196z"/>
		<path id="XMLID_69_" class="st2" d="M172.5,201.2c-0.4,0.3-1,0.3-1.3-0.1l-2.5-3.2c-0.3-0.4-0.3-1,0.1-1.3l0,0
			c0.4-0.3,1-0.3,1.3,0.1l2.5,3.2C172.9,200.3,172.9,200.9,172.5,201.2L172.5,201.2z"/>
		<path id="XMLID_68_" class="st2" d="M170,206.4c-0.4,0.3-1,0.3-1.3-0.1l-2.5-3.2c-0.3-0.4-0.3-1,0.1-1.3l0,0
			c0.4-0.3,1-0.3,1.3,0.1l2.5,3.2C170.5,205.5,170.4,206.1,170,206.4L170,206.4z"/>
		<path id="XMLID_67_" class="st2" d="M167.6,211.5c-0.4,0.3-1,0.3-1.3-0.1l-2.5-3.2c-0.3-0.4-0.3-1,0.1-1.3l0,0
			c0.4-0.3,1-0.3,1.3,0.1l2.5,3.2C168,210.6,168,211.2,167.6,211.5L167.6,211.5z"/>
		<path id="XMLID_66_" class="st3" d="M207.4,127.9c0.2,0.5-0.1,1-0.6,1.2l-5.2,1.8c-0.5,0.2-1-0.1-1.2-0.6l0,0
			c-0.2-0.5,0.1-1,0.6-1.2l5.2-1.8C206.7,127.1,207.2,127.4,207.4,127.9L207.4,127.9z"/>
		<path id="XMLID_65_" class="st3" d="M204.9,133c0.2,0.5-0.1,1-0.6,1.2l-5.2,1.8c-0.5,0.2-1-0.1-1.2-0.6l0,0
			c-0.2-0.5,0.1-1,0.6-1.2l5.2-1.8C204.2,132.3,204.7,132.5,204.9,133L204.9,133z"/>
		<path id="XMLID_64_" class="st3" d="M202.4,138.2c0.2,0.5-0.1,1-0.6,1.2l-5.2,1.8c-0.5,0.2-1-0.1-1.2-0.6l0,0
			c-0.2-0.5,0.1-1,0.6-1.2l5.2-1.8C201.7,137.5,202.3,137.7,202.4,138.2L202.4,138.2z"/>
		<path id="XMLID_63_" class="st3" d="M200,143.4c0.2,0.5-0.1,1-0.6,1.2l-5.2,1.8c-0.5,0.2-1-0.1-1.2-0.6l0,0
			c-0.2-0.5,0.1-1,0.6-1.2l5.2-1.8C199.3,142.6,199.8,142.9,200,143.4L200,143.4z"/>
		<path id="XMLID_62_" class="st3" d="M197.5,148.5c0.2,0.5-0.1,1-0.6,1.2l-5.2,1.8c-0.5,0.2-1-0.1-1.2-0.6l0,0
			c-0.2-0.5,0.1-1,0.6-1.2l5.2-1.8C196.8,147.8,197.3,148.1,197.5,148.5L197.5,148.5z"/>
		<path id="XMLID_61_" class="st3" d="M195,153.7c0.2,0.5-0.1,1-0.6,1.2l-5.2,1.8c-0.5,0.2-1-0.1-1.2-0.6l0,0
			c-0.2-0.5,0.1-1,0.6-1.2l5.2-1.8C194.3,153,194.9,153.2,195,153.7L195,153.7z"/>
		<path id="XMLID_60_" class="st3" d="M192.6,158.9c0.2,0.5-0.1,1-0.6,1.2l-5.2,1.8c-0.5,0.2-1-0.1-1.2-0.6l0,0
			c-0.2-0.5,0.1-1,0.6-1.2l5.2-1.8C191.9,158.2,192.4,158.4,192.6,158.9L192.6,158.9z"/>
		<path id="XMLID_59_" class="st3" d="M190.1,164.1c0.2,0.5-0.1,1-0.6,1.2l-5.2,1.8c-0.5,0.2-1-0.1-1.2-0.6l0,0
			c-0.2-0.5,0.1-1,0.6-1.2l5.2-1.8C189.4,163.3,189.9,163.6,190.1,164.1L190.1,164.1z"/>
		<path id="XMLID_58_" class="st3" d="M187.7,169.2c0.2,0.5-0.1,1-0.6,1.2l-5.2,1.8c-0.5,0.2-1-0.1-1.2-0.6l0,0
			c-0.2-0.5,0.1-1,0.6-1.2l5.2-1.8C186.9,168.5,187.5,168.7,187.7,169.2L187.7,169.2z"/>
		<path id="XMLID_57_" class="st3" d="M185.2,174.4c0.2,0.5-0.1,1-0.6,1.2l-5.2,1.8c-0.5,0.2-1-0.1-1.2-0.6l0,0
			c-0.2-0.5,0.1-1,0.6-1.2l5.2-1.8C184.5,173.7,185,173.9,185.2,174.4L185.2,174.4z"/>
		<path id="XMLID_56_" class="st3" d="M182.7,179.6c0.2,0.5-0.1,1-0.6,1.2l-5.2,1.8c-0.5,0.2-1-0.1-1.2-0.6l0,0
			c-0.2-0.5,0.1-1,0.6-1.2l5.2-1.8C182,178.8,182.6,179.1,182.7,179.6L182.7,179.6z"/>
		<path id="XMLID_55_" class="st3" d="M180.3,184.8c0.2,0.5-0.1,1-0.6,1.2l-5.2,1.8c-0.5,0.2-1-0.1-1.2-0.6l0,0
			c-0.2-0.5,0.1-1,0.6-1.2l5.2-1.8C179.6,184,180.1,184.3,180.3,184.8L180.3,184.8z"/>
		<path id="XMLID_54_" class="st3" d="M177.8,189.9c0.2,0.5-0.1,1-0.6,1.2l-5.2,1.8c-0.5,0.2-1-0.1-1.2-0.6l0,0
			c-0.2-0.5,0.1-1,0.6-1.2l5.2-1.8C177.1,189.2,177.6,189.4,177.8,189.9L177.8,189.9z"/>
		<path id="XMLID_53_" class="st3" d="M175.3,195.1c0.2,0.5-0.1,1-0.6,1.2l-5.2,1.8c-0.5,0.2-1-0.1-1.2-0.6l0,0
			c-0.2-0.5,0.1-1,0.6-1.2l5.2-1.8C174.6,194.4,175.2,194.6,175.3,195.1L175.3,195.1z"/>
		<path id="XMLID_52_" class="st3" d="M172.9,200.3c0.2,0.5-0.1,1-0.6,1.2l-5.2,1.8c-0.5,0.2-1-0.1-1.2-0.6l0,0
			c-0.2-0.5,0.1-1,0.6-1.2l5.2-1.8C172.2,199.5,172.7,199.8,172.9,200.3L172.9,200.3z"/>
		<path id="XMLID_51_" class="st3" d="M170.4,205.4c0.2,0.5-0.1,1-0.6,1.2l-5.2,1.8c-0.5,0.2-1-0.1-1.2-0.6l0,0
			c-0.2-0.5,0.1-1,0.6-1.2l5.2-1.8C169.7,204.7,170.2,205,170.4,205.4L170.4,205.4z"/>
		<path id="XMLID_50_" class="st3" d="M168,210.6c0.2,0.5-0.1,1-0.6,1.2l-5.2,1.8c-0.5,0.2-1-0.1-1.2-0.6l0,0
			c-0.2-0.5,0.1-1,0.6-1.2l5.2-1.8C167.2,209.9,167.8,210.1,168,210.6L168,210.6z"/>
	</g>
	<g id="XMLID_151_" class="st0">
		<path id="XMLID_49_" class="st4" d="M189.4,29.4c0,0-3.1,3.6-9.2,3.1c-6-0.4-18.1,2.2-22.6,8l38.2,37.9c0,0,11.6-13,13.2-26.5
			l1.6-1.6L189.4,29.4z"/>
		<g id="XMLID_160_">
			<path id="XMLID_48_" class="st5" d="M141.8,44.2l-9.4,9.3l-16.8-16.7l3.2-3.2c11.5-11.4,30.2-11.4,41.7,0l41.7,41.4
				c11.5,11.4,11.5,30,0,41.4l-3.2,3.2l-16.8-16.7l9.4-9.3c0.7-0.7,0.7-1.9,0-2.7l-47-46.7C143.8,43.5,142.6,43.5,141.8,44.2z"/>
			<path id="XMLID_47_" class="st6" d="M126.4,58.4c0.8,0.8,2,0.8,2.8,0l6-6c0.8-0.8,0.8-2,0-2.7l-15.9-15.8c-0.8-0.8-2-0.8-2.8,0
				l-6,6c-0.8,0.8-0.8,2,0,2.7L126.4,58.4z"/>
			<path id="XMLID_46_" class="st6" d="M192.8,126c0.8,0.8,2.1,0.8,2.9,0l6.4-6.4c0.8-0.8,0.8-2.1,0-2.9L185.3,100
				c-0.8-0.8-2.1-0.8-2.9,0l-6.4,6.4c-0.8,0.8-0.8,2.1,0,2.9L192.8,126z"/>
		</g>
		<path id="XMLID_45_" class="st7" d="M158.8,80.4c2.6,2.1,6.3,1.7,8.4-0.9l7.4-9.1c2.1-2.6,1.7-6.3-0.9-8.4l0,0
			c-2.6-2.1-6.3-1.7-8.4,0.9l-7.4,9.1C155.8,74.6,156.2,78.4,158.8,80.4L158.8,80.4z"/>
		<path id="XMLID_44_" class="st4" d="M150.8,54c2,1.9,5.1,1.8,7-0.2l12.4-10.6c1.9-2-0.3-2.8-2.3-4.6l-0.7-0.8
			c-2-1.9-2.2-3.3-4.1-1.3L150.6,47C148.7,49,148.8,52.1,150.8,54L150.8,54z"/>
		<path id="XMLID_43_" class="st7" d="M151.1,70.9c2.6,2.1,6.3,1.7,8.4-0.9l7.4-9.1c2.1-2.6,1.7-6.3-0.9-8.4l0,0
			c-2.6-2.1-6.3-1.7-8.4,0.9l-7.4,9.1C148.1,65.1,148.5,68.9,151.1,70.9L151.1,70.9z"/>
		<path id="XMLID_42_" class="st7" d="M168.6,86.5c2.3,1.8,5.6,1.5,7.5-0.8l6.5-8c1.8-2.3,1.5-5.6-0.8-7.4l0,0
			c-2.3-1.8-5.6-1.5-7.5,0.8l-6.5,8C166,81.3,166.4,84.7,168.6,86.5L168.6,86.5z"/>
		<path id="XMLID_41_" class="st7" d="M178.8,90.6c2,1.6,5,1.3,6.6-0.7l5.7-7.1c1.6-2,1.3-4.9-0.7-6.5l0,0c-2-1.6-5-1.3-6.6,0.7
			l-5.7,7.1C176.5,86.1,176.8,89,178.8,90.6L178.8,90.6z"/>
		<polygon id="XMLID_40_" class="st8" points="216.7,49.9 213.4,53.2 186.8,26.8 190,23.5 		"/>
		<polygon id="XMLID_39_" class="st5" points="306.7,-34.2 219.3,52.5 187.4,20.9 274.8,-65.9 		"/>
		<path id="XMLID_38_" class="st8" d="M217.4,45.7c1.1,1.1,2.9,1.1,4,0c1.1-1.1,1.1-2.9,0-4c-1.1-1.1-2.9-1.1-4,0
			C216.3,42.8,216.3,44.6,217.4,45.7z"/>
	</g>
	<g id="XMLID_103_" class="st0">
		<g id="XMLID_118_">
			<path id="XMLID_37_" class="st6" d="M154.4,223.6c0.2,1.6-1,2.9-2.5,3.1L48.3,237.1c-1.6,0.2-3-1-3.1-2.5l-1.7-16.7
				c-0.2-1.6,1-2.9,2.5-3.1l103.6-10.4c1.6-0.2,3,1,3.1,2.5L154.4,223.6z"/>
			<polygon id="XMLID_36_" class="st5" points="148.6,196.6 45.4,207.1 46.1,214.8 149.4,204.3 			"/>
			<path id="XMLID_35_" class="st6" d="M120.8,147.7l-0.8-7.3l-10.1,1l0.8,7.3l-19,1.9l-19,1.9l-0.8-7.3l-10.1,1l0.8,7.3
				c0,0-1.8,38.2-17.3,53.5l51.6-5.2l51.6-5.2C130.3,184.7,120.8,147.7,120.8,147.7z"/>
			<g id="XMLID_119_">
				<path id="XMLID_135_" class="st9" d="M112.3,165.4c-6.6-9.2-19.5-11.3-28.8-4.7c-9.3,6.6-11.4,19.4-4.7,28.6
					c6.6,9.2,19.5,11.3,28.8,4.7C116.9,187.4,119,174.6,112.3,165.4z M97.6,159.2c1.6-0.2,3,1,3.1,2.5c0.2,1.6-1,2.9-2.6,3.1
					c-1.6,0.2-3-1-3.1-2.5C94.9,160.8,96,159.4,97.6,159.2z M88.2,160.7c1.3-0.9,3.1-0.6,4,0.6c0.9,1.3,0.6,3-0.7,4
					c-1.3,0.9-3.1,0.6-4-0.6C86.6,163.4,86.9,161.6,88.2,160.7z M80.8,166.6c0.6-1.4,2.3-2.1,3.8-1.4c1.4,0.6,2.1,2.3,1.4,3.7
					c-0.6,1.4-2.3,2.1-3.8,1.4C80.8,169.7,80.1,168,80.8,166.6z M77.3,175.4c-0.2-1.6,1-2.9,2.6-3.1c1.6-0.2,3,1,3.1,2.5
					c0.2,1.6-1,2.9-2.6,3.1C78.9,178.1,77.5,176.9,77.3,175.4z M78.8,184.7c-0.9-1.3-0.6-3,0.7-4c1.3-0.9,3.1-0.6,4,0.6
					c0.9,1.3,0.6,3-0.7,4C81.5,186.3,79.7,186,78.8,184.7z M88.5,190.7c-0.6,1.4-2.3,2.1-3.8,1.4c-1.4-0.6-2.1-2.3-1.4-3.7
					c0.6-1.4,2.3-2.1,3.8-1.4C88.5,187.6,89.2,189.2,88.5,190.7z M93.6,195.5c-1.6,0.2-3-1-3.1-2.5c-0.2-1.6,1-2.9,2.6-3.1
					c1.6-0.2,3,1,3.1,2.5C96.3,194,95.2,195.4,93.6,195.5z M103,194.1c-1.3,0.9-3.1,0.6-4-0.6c-0.9-1.3-0.6-3,0.7-4
					c1.3-0.9,3.1-0.6,4,0.6C104.6,191.4,104.3,193.1,103,194.1z M101.9,186.1c-4.9,3.5-11.7,2.4-15.2-2.5
					c-3.5-4.8-2.4-11.6,2.5-15.1c4.9-3.5,11.7-2.4,15.2,2.5C107.9,175.9,106.8,182.7,101.9,186.1z M104.1,167.8
					c-1.4-0.6-2.1-2.3-1.4-3.7c0.6-1.4,2.3-2.1,3.8-1.4c1.4,0.6,2.1,2.3,1.4,3.7C107.2,167.8,105.5,168.5,104.1,167.8z M111.8,174
					c-1.3,0.9-3.1,0.6-4-0.6c-0.9-1.3-0.6-3,0.7-4c1.3-0.9,3.1-0.6,4,0.6C113.3,171.3,113,173,111.8,174z"/>
				<path id="XMLID_122_" class="st8" d="M112.3,164.5c-6.6-9.2-19.5-11.3-28.8-4.7c-9.3,6.6-11.4,19.4-4.7,28.6
					c6.6,9.2,19.5,11.3,28.8,4.7C116.8,186.5,118.9,173.7,112.3,164.5z M97.5,158.3c1.6-0.2,3,1,3.1,2.5c0.2,1.6-1,2.9-2.6,3.1
					c-1.6,0.2-3-1-3.1-2.5C94.8,159.8,95.9,158.4,97.5,158.3z M88.1,159.7c1.3-0.9,3.1-0.6,4,0.6c0.9,1.3,0.6,3-0.7,4
					c-1.3,0.9-3.1,0.6-4-0.6C86.5,162.4,86.8,160.6,88.1,159.7z M80.7,165.6c0.6-1.4,2.3-2.1,3.8-1.4c1.4,0.6,2.1,2.3,1.4,3.7
					c-0.6,1.4-2.3,2.1-3.8,1.4C80.7,168.8,80,167.1,80.7,165.6z M77.2,174.5c-0.2-1.6,1-2.9,2.6-3.1c1.6-0.2,3,1,3.1,2.5
					c0.2,1.6-1,2.9-2.6,3.1C78.8,177.1,77.4,176,77.2,174.5z M78.7,183.8c-0.9-1.3-0.6-3,0.7-4c1.3-0.9,3.1-0.6,4,0.6
					c0.9,1.3,0.6,3-0.7,4C81.4,185.3,79.6,185.1,78.7,183.8z M88.4,189.7c-0.6,1.4-2.3,2.1-3.8,1.4c-1.4-0.6-2.1-2.3-1.4-3.7
					c0.6-1.4,2.3-2.1,3.8-1.4C88.4,186.6,89.1,188.3,88.4,189.7z M93.5,194.6c-1.6,0.2-3-1-3.1-2.5c-0.2-1.6,1-2.9,2.6-3.1
					c1.6-0.2,3,1,3.1,2.5C96.2,193,95.1,194.4,93.5,194.6z M102.9,193.1c-1.3,0.9-3.1,0.6-4-0.6c-0.9-1.3-0.6-3,0.7-4
					c1.3-0.9,3.1-0.6,4,0.6C104.5,190.4,104.2,192.2,102.9,193.1z M101.8,185.2c-4.9,3.5-11.7,2.4-15.2-2.5
					c-3.5-4.8-2.4-11.6,2.5-15.1c4.9-3.5,11.7-2.4,15.2,2.5C107.8,175,106.7,181.7,101.8,185.2z M104,166.9
					c-1.4-0.6-2.1-2.3-1.4-3.7c0.6-1.4,2.3-2.1,3.8-1.4c1.4,0.6,2.1,2.3,1.4,3.7C107.1,166.9,105.4,167.5,104,166.9z M111.7,173
					c-1.3,0.9-3.1,0.6-4-0.6c-0.9-1.3-0.6-3,0.7-4c1.3-0.9,3.1-0.6,4,0.6C113.2,170.3,112.9,172.1,111.7,173z"/>
				<g id="XMLID_120_">
					<path id="XMLID_10_" class="st5" d="M102.7,182.8l9.7,5.6c0.8,0.5,1.1,1.6,0.6,2.4c-0.5,0.8-1.6,1.1-2.4,0.6
						c-0.2-0.1-0.3-0.2-0.4-0.3L102.7,182.8z"/>
				</g>
			</g>
		</g>
		<g id="XMLID_111_">
			<g id="XMLID_9_">
				<path id="XMLID_101_" class="st10" d="M40.6,153.2c0,0-0.1-0.2-0.2-0.5c-0.1-0.3-0.2-0.8-0.4-1.5c-0.1-0.3-0.1-0.7-0.2-1
					c-0.1-0.4-0.1-0.8-0.1-1.3c0-0.5-0.1-1-0.1-1.5c0-0.5,0-1.1,0.1-1.6c0-0.6,0.1-1.2,0.2-1.8c0.1-0.6,0.3-1.2,0.4-1.9
					c0.1-0.3,0.2-0.7,0.2-1c0.1-0.3,0.2-0.6,0.3-1c0.2-0.7,0.5-1.3,0.8-2c0.7-1.3,1.3-2.7,2.2-3.9c0.8-1.3,1.9-2.4,3-3.6
					c1.2-1,2.3-2.1,3.6-2.9c0.6-0.4,1.3-0.9,1.9-1.2c0.7-0.3,1.3-0.7,2-1c1.4-0.5,2.7-1.1,4-1.3c0.6-0.1,1.3-0.3,1.9-0.4
					c0.6-0.1,1.2-0.1,1.8-0.2c0.6,0,1.1-0.1,1.6-0.1c0.5,0,1,0.1,1.5,0.1c0.5,0,0.9,0.1,1.3,0.1c0.4,0.1,0.7,0.2,1.1,0.2
					c0.6,0.1,1.1,0.3,1.5,0.4c0.3,0.1,0.5,0.2,0.5,0.2s-0.2,0.1-0.5,0.2c-0.3,0.1-0.8,0.3-1.4,0.5c-0.3,0.1-0.6,0.2-1,0.3
					c-0.3,0.2-0.7,0.3-1.1,0.5c-0.8,0.3-1.7,0.6-2.6,1.1c-0.5,0.2-0.9,0.4-1.4,0.7c-0.5,0.3-0.9,0.5-1.4,0.8c-1,0.5-1.9,1.2-3,1.8
					c-1,0.7-2,1.4-2.9,2.2c-1,0.8-1.9,1.6-2.8,2.5c-0.8,0.9-1.8,1.8-2.5,2.8c-0.8,0.9-1.5,2-2.2,2.9c-0.3,0.5-0.6,1-0.9,1.5
					c-0.2,0.2-0.3,0.5-0.5,0.7c-0.1,0.3-0.3,0.5-0.4,0.7c-0.3,0.5-0.5,1-0.8,1.4c-0.2,0.5-0.5,1-0.7,1.4c-0.5,0.9-0.8,1.7-1.1,2.5
					c-0.2,0.4-0.3,0.8-0.5,1.1c-0.1,0.4-0.2,0.7-0.3,1c-0.2,0.6-0.4,1.1-0.5,1.4C40.7,153,40.6,153.2,40.6,153.2z"/>
			</g>
			<g id="XMLID_8_">
				<path id="XMLID_99_" class="st10" d="M27.6,153.2c0,0-0.1-0.3-0.2-0.7c-0.1-0.5-0.4-1.2-0.6-2.1c-0.1-0.5-0.2-1-0.3-1.5
					c-0.1-0.6-0.1-1.2-0.2-1.9c-0.1-0.7-0.1-1.4-0.1-2.2c0-0.8,0.1-1.5,0.1-2.4c0.1-0.8,0.1-1.7,0.2-2.6c0.2-0.9,0.4-1.8,0.6-2.7
					c0.1-0.5,0.2-0.9,0.3-1.4c0.1-0.5,0.3-0.9,0.5-1.4c0.3-1,0.7-1.9,1.1-2.9c0.5-0.9,1-1.9,1.5-2.9c0.5-1,1.1-1.9,1.8-2.8
					c1.2-1.9,2.8-3.5,4.3-5.2c1.7-1.5,3.4-3.1,5.3-4.3c0.5-0.3,0.9-0.6,1.4-0.9c0.5-0.3,1-0.5,1.4-0.8c1-0.5,1.9-1,2.9-1.5
					c1-0.4,2-0.8,2.9-1.1c0.5-0.2,0.9-0.3,1.4-0.5c0.5-0.1,1-0.2,1.4-0.3c0.9-0.2,1.8-0.4,2.7-0.6c0.9-0.1,1.8-0.2,2.6-0.2
					c0.8,0,1.6-0.2,2.4-0.1c0.8,0,1.5,0.1,2.1,0.1c0.7,0.1,1.3,0.1,1.8,0.2c0.6,0.1,1.1,0.2,1.6,0.3c0.9,0.2,1.6,0.4,2.1,0.6
					c0.5,0.1,0.7,0.2,0.7,0.2s-0.3,0.1-0.7,0.3c-0.5,0.2-1.2,0.5-2,0.8c-0.4,0.1-0.9,0.3-1.4,0.5c-0.5,0.2-1,0.4-1.6,0.7
					c-1.1,0.5-2.4,0.9-3.7,1.6c-0.7,0.3-1.3,0.6-2,1c-0.7,0.4-1.4,0.8-2.1,1.2c-0.4,0.2-0.7,0.4-1.1,0.6c-0.4,0.2-0.7,0.5-1.1,0.7
					c-0.7,0.5-1.4,0.9-2.2,1.4c-1.4,1.1-2.9,2-4.2,3.2c-1.4,1.1-2.7,2.4-4.1,3.6c-1.2,1.3-2.5,2.6-3.6,4c-1.2,1.3-2.2,2.8-3.2,4.2
					c-0.5,0.7-0.9,1.5-1.4,2.2c-0.2,0.4-0.5,0.7-0.7,1.1c-0.2,0.4-0.4,0.7-0.6,1.1c-0.4,0.7-0.8,1.4-1.2,2.1c-0.3,0.7-0.7,1.4-1,2
					c-0.3,0.7-0.7,1.3-0.9,1.9c-0.3,0.6-0.5,1.2-0.7,1.7c-0.2,0.6-0.5,1.1-0.7,1.6c-0.2,0.5-0.3,1-0.5,1.5c-0.3,0.9-0.6,1.6-0.8,2
					C27.7,152.9,27.6,153.2,27.6,153.2z"/>
			</g>
		</g>
		<g id="XMLID_104_">
			<g id="XMLID_7_">
				<path id="XMLID_97_" class="st10" d="M178.8,216.4c0,0,0.1,0.2,0.2,0.5c0.1,0.3,0.2,0.8,0.4,1.5c0.1,0.3,0.1,0.7,0.2,1
					c0.1,0.4,0.1,0.8,0.1,1.3c0,0.5,0.1,1,0.1,1.5c0,0.5,0,1.1-0.1,1.6c0,0.6-0.1,1.2-0.2,1.8c-0.1,0.6-0.3,1.2-0.4,1.9
					c-0.1,0.3-0.2,0.7-0.2,1c-0.1,0.3-0.2,0.6-0.3,1c-0.2,0.7-0.5,1.3-0.8,2c-0.7,1.3-1.3,2.7-2.2,3.9c-0.8,1.3-1.9,2.4-3,3.6
					c-1.2,1-2.3,2.1-3.6,2.9c-0.6,0.4-1.3,0.9-1.9,1.2c-0.7,0.3-1.3,0.7-2,1c-1.4,0.5-2.7,1.1-4,1.3c-0.6,0.1-1.3,0.3-1.9,0.4
					c-0.6,0.1-1.2,0.1-1.8,0.2c-0.6,0-1.1,0.1-1.6,0.1c-0.5,0-1-0.1-1.5-0.1c-0.5,0-0.9-0.1-1.3-0.1c-0.4-0.1-0.7-0.2-1.1-0.2
					c-0.6-0.1-1.1-0.3-1.5-0.4c-0.3-0.1-0.5-0.2-0.5-0.2s0.2-0.1,0.5-0.2c0.3-0.1,0.8-0.3,1.4-0.5c0.3-0.1,0.6-0.2,1-0.3
					c0.3-0.2,0.7-0.3,1.1-0.5c0.8-0.3,1.7-0.6,2.6-1.1c0.5-0.2,0.9-0.4,1.4-0.7c0.5-0.3,0.9-0.5,1.4-0.8c1-0.5,1.9-1.2,3-1.8
					c1-0.7,2-1.4,2.9-2.2c1-0.8,1.9-1.6,2.8-2.5c0.8-0.9,1.8-1.8,2.5-2.8c0.8-0.9,1.5-2,2.2-2.9c0.3-0.5,0.6-1,0.9-1.5
					c0.2-0.2,0.3-0.5,0.5-0.7c0.1-0.3,0.3-0.5,0.4-0.7c0.3-0.5,0.5-1,0.8-1.4c0.2-0.5,0.5-1,0.7-1.4c0.5-0.9,0.8-1.7,1.1-2.5
					c0.2-0.4,0.3-0.8,0.5-1.1c0.1-0.4,0.2-0.7,0.3-1c0.2-0.6,0.4-1.1,0.5-1.4C178.7,216.6,178.8,216.4,178.8,216.4z"/>
			</g>
			<g id="XMLID_6_">
				<path id="XMLID_95_" class="st10" d="M191.8,216.4c0,0,0.1,0.3,0.2,0.7c0.1,0.5,0.4,1.2,0.6,2.1c0.1,0.5,0.2,1,0.3,1.5
					c0.1,0.6,0.1,1.2,0.2,1.9c0.1,0.7,0.1,1.4,0.1,2.2c0,0.8-0.1,1.5-0.1,2.4c-0.1,0.8-0.1,1.7-0.2,2.6c-0.2,0.9-0.4,1.8-0.6,2.7
					c-0.1,0.5-0.2,0.9-0.3,1.4c-0.1,0.5-0.3,0.9-0.5,1.4c-0.3,1-0.7,1.9-1.1,2.9c-0.5,0.9-1,1.9-1.5,2.9c-0.5,1-1.1,1.9-1.8,2.8
					c-1.2,1.9-2.8,3.5-4.3,5.2c-1.7,1.5-3.4,3.1-5.3,4.3c-0.5,0.3-0.9,0.6-1.4,0.9c-0.5,0.3-1,0.5-1.4,0.8c-1,0.5-1.9,1-2.9,1.5
					c-1,0.4-2,0.8-2.9,1.1c-0.5,0.2-0.9,0.3-1.4,0.5c-0.5,0.1-1,0.2-1.4,0.3c-0.9,0.2-1.8,0.4-2.7,0.6c-0.9,0.1-1.8,0.2-2.6,0.2
					c-0.8,0-1.6,0.2-2.4,0.1c-0.8,0-1.5-0.1-2.1-0.1c-0.7-0.1-1.3-0.1-1.8-0.2c-0.6-0.1-1.1-0.2-1.6-0.3c-0.9-0.2-1.6-0.4-2.1-0.6
					c-0.5-0.1-0.7-0.2-0.7-0.2s0.3-0.1,0.7-0.3c0.5-0.2,1.2-0.5,2-0.8c0.4-0.1,0.9-0.3,1.4-0.5c0.5-0.2,1-0.4,1.6-0.7
					c1.1-0.5,2.4-0.9,3.7-1.6c0.7-0.3,1.3-0.6,2-1c0.7-0.4,1.4-0.8,2.1-1.2c0.4-0.2,0.7-0.4,1.1-0.6c0.4-0.2,0.7-0.5,1.1-0.7
					c0.7-0.5,1.4-0.9,2.2-1.4c1.4-1.1,2.9-2,4.2-3.2c1.4-1.1,2.7-2.4,4.1-3.6c1.2-1.3,2.5-2.6,3.6-4c1.2-1.3,2.2-2.8,3.2-4.2
					c0.5-0.7,0.9-1.5,1.4-2.2c0.2-0.4,0.5-0.7,0.7-1.1c0.2-0.4,0.4-0.7,0.6-1.1c0.4-0.7,0.8-1.4,1.2-2.1c0.3-0.7,0.7-1.4,1-2
					c0.3-0.7,0.7-1.3,0.9-1.9c0.3-0.6,0.5-1.2,0.7-1.7c0.2-0.6,0.5-1.1,0.7-1.6c0.2-0.5,0.3-1,0.5-1.5c0.3-0.9,0.6-1.6,0.8-2
					C191.7,216.6,191.8,216.4,191.8,216.4z"/>
			</g>
		</g>
	</g>
	<g id="XMLID_89_" class="st0">
		<path id="XMLID_5_" class="st11" d="M106.4,52.5c-3.4,2.1-7,1.7-9.3,1V41.8c0-0.8-0.6-1.4-1.4-1.4H68c-0.8,0-1.4,0.6-1.4,1.4v19.1
			c0,0.8,0.6,1.4,1.4,1.4h27.7c0.8,0,1.4-0.6,1.4-1.4v-1.1C104.9,58.6,106.4,52.5,106.4,52.5z"/>
		<g id="XMLID_90_">
			<ellipse id="XMLID_4_" class="st12" cx="73.7" cy="51.3" rx="1.6" ry="1.6"/>
			<ellipse id="XMLID_85_" class="st12" cx="81.4" cy="51.3" rx="1.6" ry="1.6"/>
			<ellipse id="XMLID_86_" class="st12" cx="89.1" cy="51.3" rx="1.6" ry="1.6"/>
		</g>
	</g>
</g>
</svg>
