<?xml version="1.0" encoding="utf-8"?>
<!-- Generator: Adobe Illustrator 19.0.0, SVG Export Plug-In . SVG Version: 6.00 Build 0)  -->
<svg version="1.1" xmlns="http://www.w3.org/2000/svg" xmlns:xlink="http://www.w3.org/1999/xlink" x="0px" y="0px"
	 viewBox="-63 65 128 128" style="enable-background:new -63 65 128 128;" xml:space="preserve">
<style type="text/css">
	.st0{fill:none;stroke:#CCEBF8;stroke-width:4;stroke-miterlimit:10;}
	.st1{fill:#FAA93B;}
	.st2{fill:#DBDDDD;}
	.st3{fill:#FFFFFF;}
	.st4{fill:#99B3B2;}
	.st5{fill:#CACACA;}
	.st6{fill:#AAB8B9;}
	.st7{fill:#747B7B;}
	.st8{fill:#5E8E4B;}
	.st9{opacity:0.5;}
	.st10{fill:#9DDC54;}
</style>
<g id="Layer_1">
	<g id="Layer_1_4_">
		<g id="Layer_1_3_">
			<g id="Layer_1_2_">
				<g id="Layer_1_1_">
					<circle id="XMLID_1_" class="st0" cx="1" cy="129" r="62"/>
				</g>
				<g id="Layer_2">
					<circle id="XMLID_2_" class="st1" cx="1" cy="129" r="52.5"/>
				</g>
			</g>
		</g>
	</g>
</g>
<g id="Layer_2_1_">
	<g>
		<g>
			<rect x="-22.3" y="98.4" class="st2" width="46.7" height="61"/>
			<g>
				<rect x="-18.8" y="103.5" class="st3" width="39.6" height="52"/>
				<rect x="-16.5" y="109.3" class="st4" width="32.2" height="2.7"/>
				<rect x="-16.5" y="131.8" class="st4" width="34.2" height="2.7"/>
				<g>
					<rect x="-3" y="116.4" class="st5" width="21" height="2.1"/>
					<rect x="-3" y="119.5" class="st5" width="21" height="2.1"/>
					<rect x="-3" y="122.7" class="st5" width="21" height="2.1"/>
					<rect x="-3" y="125.8" class="st5" width="21" height="2.1"/>
				</g>
				<g>
					<rect x="-16.2" y="136.6" class="st5" width="33.5" height="2.1"/>
					<rect x="-16.2" y="139.7" class="st5" width="33.5" height="2.1"/>
					<rect x="-16.2" y="142.9" class="st5" width="33.5" height="2.1"/>
					<rect x="-16.2" y="146" class="st5" width="33.5" height="2.1"/>
				</g>
				<path class="st4" d="M-16.5,116.3V128h11.7v-11.7H-16.5z M-6.4,126.4h-8.5v-8.5h8.5V126.4z"/>
			</g>
			<g>
				<rect x="-7.3" y="97.7" class="st6" width="16.7" height="7.4"/>
				<g>
					<rect x="-9.1" y="96.1" class="st7" width="20.2" height="3.1"/>
					<path class="st7" d="M4.8,96.5C4.6,94.5,3,93,1,93s-3.6,1.5-3.8,3.5H4.8z"/>
				</g>
			</g>
		</g>
	</g>
	<g>
		<path class="st8" d="M17.3,162.6c-3.2,0-6.3-1.3-8.5-3.5c-2.3-2.3-3.5-5.3-3.5-8.5s1.3-6.3,3.5-8.5c2.3-2.3,5.3-3.5,8.5-3.5
			c3.2,0,6.3,1.3,8.5,3.5c2.3,2.3,3.5,5.3,3.5,8.5s-1.3,6.3-3.5,8.5C23.5,161.3,20.5,162.6,17.3,162.6z M17.3,141.5c-5,0-9,4-9,9
			c0,5,4,9,9,9c5,0,9-4,9-9C26.3,145.6,22.2,141.5,17.3,141.5z"/>
	</g>
	<g>
		<g class="st9">
			<polygon class="st9" points="31.8,143 29.1,140.3 17.5,151.7 12.9,147.2 10.2,150 17.5,157.1 17.6,157 17.6,157 			"/>
		</g>
		<polygon class="st10" points="31.8,143 29.1,140.3 17.5,151.7 12.9,147.2 10.2,150 17.5,157.1 17.6,157 17.6,157 		"/>
	</g>
</g>
</svg>
