<?xml version="1.0" encoding="utf-8"?>
<!-- Generator: Adobe Illustrator 19.0.0, SVG Export Plug-In . SVG Version: 6.00 Build 0)  -->
<svg version="1.1" xmlns="http://www.w3.org/2000/svg" xmlns:xlink="http://www.w3.org/1999/xlink" x="0px" y="0px"
	 viewBox="-63 65 128 128" style="enable-background:new -63 65 128 128;" xml:space="preserve">
<style type="text/css">
	.st0{fill:none;stroke:#CCEBF8;stroke-width:4;stroke-miterlimit:10;}
	.st1{fill:#80397B;}
	.st2{fill:#BFC4E5;}
	.st3{fill:#D9BBA2;}
	.st4{fill:#46555E;}
	.st5{fill:#38434A;}
	.st6{fill:#4A4A4A;}
	.st7{fill:#D2D6F0;}
	.st8{fill:#969DC8;}
	.st9{fill:#CE5E58;}
	.st10{fill:#E8CBAF;}
	.st11{fill:#6A4E43;}
	.st12{fill:#C68A64;}
	.st13{fill:#F0DFBC;}
	.st14{fill:#FFFFFA;}
	.st15{fill:#596D66;}
	.st16{fill:#922829;}
	.st17{fill:#CCCCCC;}
	.st18{fill:#444441;}
</style>
<g id="Layer_1">
	<g id="Layer_1_3_">
		<g id="Layer_1_2_">
			<g id="Layer_1_1_">
				<circle id="XMLID_1_" class="st0" cx="1" cy="129" r="62"/>
			</g>
			<g id="Layer_2">
				<circle id="XMLID_2_" class="st1" cx="1" cy="129" r="52.5"/>
			</g>
		</g>
		<g id="Layer_3">
		</g>
	</g>
</g>
<g id="Layer_2_1_">
	<g id="XMLID_137_">
		<path id="XMLID_138_" class="st2" d="M-23,156.4h23l-0.1-16.6c0-4,1.5-7.6,3.9-10.4c-2.8-3.2-7-5.3-11.6-5.3l-6.5,0
			c-4.9,0-9.3,2.2-12.2,5.7c2.3,2.7,3.6,6.2,3.6,10L-23,156.4z"/>
		<path id="XMLID_139_" class="st3" d="M-7.4,124.4c0,0-1.1,1.6-3.7,1.6c-2.6,0-3.9-1.6-3.9-1.6v-12.7h7.6V124.4z"/>
		<path id="XMLID_140_" class="st4" d="M-23.9,156.4h9.7c0.1-17-2.6-32.6-2.6-32.6c-7.8,1.2-10,6.2-10,6.2l3.1,6.7L-23.9,156.4z"/>
		<path id="XMLID_141_" class="st4" d="M1.3,156.4l0.3-19.7l3.1-6.7c0,0-2.2-5-10-6.2c0,0-2.7,15.6-2.6,32.6H1.3z"/>
		<path id="XMLID_142_" class="st5" d="M-20.7,124.8c0,0,2.7,12.1,2.5,13.6l1.6-0.1l-1.7,1l4.1,11.5c0,0-0.4-18-2.4-27.6
			C-16.7,123.2-19.4,123.5-20.7,124.8"/>
		<path id="XMLID_143_" class="st5" d="M-1.3,124.8c0,0-2.7,12.1-2.5,13.6l-1.6-0.1l1.7,1l-4.1,11.5c0,0,0.4-18,2.4-27.6
			C-5.4,123.2-2.7,123.5-1.3,124.8"/>
		<path id="XMLID_144_" class="st6" d="M-16.4,156.4c0.2-2.1,0-3.9,0-3.9l-6.4-0.2c0,0-0.1,1.9,0,4.1H-16.4z"/>
		<path id="XMLID_145_" class="st6" d="M0.8,156.4c0.2-2.2,0-4.1,0-4.1l-6.4,0.2c0,0-0.2,1.8,0,3.9H0.8z"/>
		<path id="XMLID_146_" class="st7" d="M-11.6,125.6l-1,4.2c0,0-3.6-3.6-3.7-4.4c-0.1-0.7-0.2-1.4-0.2-1.4s0.6-1.2,0.8-1.5
			C-15.3,122-11.6,125.6-11.6,125.6z"/>
		<path id="XMLID_147_" class="st7" d="M-10.5,125.6l1,4.2c0,0,3.6-4,3.7-4.7c0.1-0.7,0.2-1.2,0.2-1.2s-0.6-1.6-0.9-1.6
			C-7.6,122.7-10.5,125.6-10.5,125.6z"/>
		<path id="XMLID_148_" class="st8" d="M-11.6,125.6l0,2.2l-0.5-0.1C-12.1,127.7-11.8,126.4-11.6,125.6"/>
		<path id="XMLID_149_" class="st8" d="M-10.5,125.6l0,2.2l0.5,0C-10,127.8-10.2,126.4-10.5,125.6"/>
		<polygon id="XMLID_150_" class="st9" points="-11.8,126.4 -10.3,126.3 -9.8,128.4 -10.3,129.7 -11.7,129.7 -12.2,128.3 		"/>
		<polygon id="XMLID_151_" class="st9" points="-11.1,151.3 -14,147.6 -11.7,129.7 -10.3,129.7 -8.2,147.6 		"/>
		<path id="XMLID_152_" class="st4" d="M-27,130c0,0-10.9,17.4-6.1,19.8c4.8,2.3,8.4,2.6,8.4,2.6l3.4-4.8l-5.5-3.3l3-7
			C-23.7,137.3-23.9,126.3-27,130"/>
		<path id="XMLID_153_" class="st10" d="M-21.5,147.6c0,0,3.2,2.3,6.3,2.9c1.7,0.3,3.5,0.5,3,1.4c0,0-7.3,0-8.2,0
			c-0.9-0.1-1.6,0.3-2.8-1.1L-21.5,147.6z"/>
		<path id="XMLID_154_" class="st10" d="M-19.7,100.5l0.1,11.9c0,4.8,3.6,8.6,8,8.6l3.3,0c4.4,0,7.9-3.9,7.8-8.7l-0.3-2.7l0.2-1.9
			l0-7.1H-19.7z"/>
		<path id="XMLID_155_" class="st11" d="M-21.5,99.6c0,0,5.3-4,14.9-3.6c2.6,0.1,5.1,2.5,5.6,3.2c3.9,4.5,2.4,5.4,2,5.6
			c-3.7,2.1-4,1.8-8.3,2c-1.9,0.1-7-2.1-7-2.1l-3.6,0.7c0,0,1.3,4,0.7,4.9c-0.6,0.9-0.5,2.2-0.5,2.2l-1.3,0.5c0,0-0.4-2.7-1.1-2.5
			c-1,0.3,0.9,4.5,1.4,5.7c0.3,0.8,1.8,2.3,1.8,2.3S-27.3,114.3-21.5,99.6z"/>
		<path id="XMLID_156_" class="st10" d="M-19.2,112.2c0,0-0.4-2.5-1.8-1.5c-1.4,1,0,5,1.1,4.3C-18.8,114.4-19.2,112.2-19.2,112.2"/>
		<path id="XMLID_157_" class="st4" d="M1.6,126.4c0,0,16.7,15.1,18.2,16.1c1.5,1,6.9,6.5,6.9,6.5l-5.8,0.4l-4.2-1.8L1.1,136.4
			c0,0-1.7-7.5,0.9-6.5"/>
		<path id="XMLID_158_" class="st10" d="M21.4,149.4c0,0-1.7,1.2-2.5,1.4c-1.1,0.3-0.8,1.3,2.7,0.3c0,0,1.9-0.6,4.7,0
			c3.3,0.7,4.4,0.4,4.5-0.3c0.1-0.3-2.4-0.6-5-1.8C25.5,149,21.4,149.4,21.4,149.4"/>
		<path id="XMLID_159_" class="st5" d="M-16.7,123.2c0,0,0.5-0.1,0.6,0.1l-0.4,1L-16.7,123.2z"/>
		<path id="XMLID_160_" class="st5" d="M-5.4,123.2c0,0-0.2-0.1-0.5,0l0.4,1L-5.4,123.2z"/>
		<path id="XMLID_313_" class="st11" d="M-22.7,97.8c0,0,2.5-0.5,2.8,1c0.3,1.5-2.2,2.8-2.2,2.8S-20.7,98.7-22.7,97.8z"/>
	</g>
	<g id="XMLID_180_">
		<g id="XMLID_181_">
			<path id="XMLID_182_" class="st12" d="M33.4,152.2L33.4,152.2c1.2,0,2.1,1,2.1,2.1c0,1.2-1,2.1-2.1,2.1l0,0l-17.6-0.2l0-4.3
				L33.4,152.2z"/>
			<circle id="XMLID_183_" class="st13" cx="33.1" cy="154.3" r="1.7"/>
			
				<rect id="XMLID_184_" x="15.7" y="152.6" transform="matrix(-1 -8.927743e-03 8.927743e-03 -1 47.4846 308.7469)" class="st14" width="17.4" height="3.4"/>
		</g>
		<g id="XMLID_185_">
			<path id="XMLID_186_" class="st15" d="M33.4,148L33.4,148c1.2,0,2.1,1,2.1,2.1c0,1.2-1,2.1-2.1,2.1l0,0l-17.6-0.2l0-4.3L33.4,148
				z"/>
			<circle id="XMLID_187_" class="st13" cx="33.2" cy="150.1" r="1.7"/>
			
				<rect id="XMLID_188_" x="15.8" y="148.3" transform="matrix(-1 -8.927743e-03 8.927743e-03 -1 47.5982 300.266)" class="st14" width="17.4" height="3.4"/>
		</g>
		<g id="XMLID_193_">
			<polygon id="XMLID_194_" class="st16" points="30.1,154.3 30.9,153.4 31.6,154.3 31.7,150 30.1,150 			"/>
		</g>
	</g>
	<g id="XMLID_210_">
		<g id="XMLID_211_">
			<path id="XMLID_212_" class="st17" d="M16.4,154.2c0,0.6-0.5,1.1-1.1,1.1h-28c-0.6,0-1.1-0.5-1.1-1.1v-18.7
				c0-0.6,0.5-1.1,1.1-1.1h28c0.6,0,1.1,0.5,1.1,1.1V154.2z"/>
			<rect id="XMLID_213_" x="-13.7" y="155.2" class="st17" width="29.9" height="1"/>
		</g>
		<path id="XMLID_214_" class="st18" d="M2.1,145.1c-0.4,0-0.8-0.4-0.8-0.8c0-0.2,0.1-0.4,0.2-0.5c-0.1,0-0.1,0-0.2,0
			c-0.7,0-1.3,0.6-1.3,1.3c0,0.7,0.6,1.3,1.3,1.3s1.3-0.6,1.3-1.3c0-0.1,0-0.1,0-0.2C2.5,145.1,2.3,145.1,2.1,145.1z"/>
	</g>
</g>
</svg>
