<?xml version="1.0" encoding="utf-8"?>
<!-- Generator: Adobe Illustrator 19.0.0, SVG Export Plug-In . SVG Version: 6.00 Build 0)  -->
<svg version="1.1" xmlns="http://www.w3.org/2000/svg" xmlns:xlink="http://www.w3.org/1999/xlink" x="0px" y="0px"
	 viewBox="-63 65 128 128" style="enable-background:new -63 65 128 128;" xml:space="preserve">
<style type="text/css">
	.st0{fill:none;stroke:#CCEBF8;stroke-width:4;stroke-miterlimit:10;}
	.st1{fill:#FAA93B;}
	.st2{fill:#C1C2C6;}
	.st3{fill:#E9EAEA;}
	.st4{fill:#808080;}
	.st5{fill:#E14B33;}
	.st6{fill:#FBAE17;}
	.st7{fill:#EFCF78;}
</style>
<g id="Layer_1">
	<g id="Layer_1_4_">
		<g id="Layer_1_3_">
			<g id="Layer_1_2_">
				<g id="Layer_1_1_">
					<circle id="XMLID_1_" class="st0" cx="1" cy="129" r="62"/>
				</g>
				<g id="Layer_2">
					<circle id="XMLID_2_" class="st1" cx="1" cy="129" r="52.5"/>
				</g>
			</g>
		</g>
	</g>
</g>
<g id="Layer_2_1_">
	<g>
		<path class="st2" d="M22,107c0-4.9-0.7-8.9,5.4-8.9c5.9,0.1,5.1,4,5.4,8.9H22z"/>
		<path class="st3" d="M-24.7,103.8c0,0-0.5-5.5,5.2-5.7c5.7-0.2,45.8,0,45.8,0s-3.9,0.6-4.3,5.7C21.6,108.8-24.7,103.8-24.7,103.8z
			"/>
		<rect x="-24.7" y="103.8" class="st3" width="46.7" height="56.2"/>
		<rect x="-21.4" y="116.8" class="st4" width="39.1" height="1.5"/>
		<rect x="-21.4" y="122" class="st4" width="39.1" height="1.5"/>
		<rect x="-21.4" y="127" class="st4" width="39.1" height="1.5"/>
		<rect x="-21.4" y="131.8" class="st4" width="39.1" height="1.5"/>
		<g>
			<path class="st5" d="M-16,111c-0.3,0.1-0.9,0.3-1.5,0.3c-0.8,0-1.4-0.2-1.9-0.6c-0.4-0.4-0.7-1-0.6-1.7c0-1.5,1.1-2.4,2.6-2.4
				c0.6,0,1,0.1,1.3,0.2l-0.2,0.8c-0.3-0.1-0.6-0.2-1.1-0.2c-0.9,0-1.5,0.5-1.5,1.5c0,0.9,0.6,1.5,1.4,1.5c0.2,0,0.4,0,0.5-0.1v-1
				h-0.7v-0.8h1.7V111z"/>
			<path class="st5" d="M-14.2,106.6v2.6c0,0.8,0.3,1.2,0.8,1.2c0.5,0,0.8-0.4,0.8-1.2v-2.6h1v2.6c0,1.4-0.7,2.1-1.9,2.1
				c-1.2,0-1.8-0.6-1.8-2.1v-2.5H-14.2z"/>
			<path class="st5" d="M-9.7,110l-0.3,1.2h-1.1l1.4-4.6h1.4l1.4,4.6h-1.1l-0.4-1.2H-9.7z M-8.6,109.2l-0.3-1
				c-0.1-0.3-0.2-0.6-0.2-0.9h0c-0.1,0.3-0.1,0.6-0.2,0.9l-0.3,1H-8.6z"/>
			<path class="st5" d="M-6.3,106.7c0.3-0.1,0.8-0.1,1.4-0.1c0.7,0,1.2,0.1,1.5,0.4c0.3,0.2,0.4,0.5,0.4,1c0,0.6-0.4,1-0.8,1.1v0
				c0.3,0.1,0.5,0.4,0.6,0.9c0.1,0.5,0.3,1.1,0.4,1.3H-4c-0.1-0.1-0.2-0.5-0.3-1.1c-0.1-0.6-0.3-0.7-0.7-0.7h-0.3v1.8h-1V106.7z
				 M-5.3,108.6h0.4c0.5,0,0.8-0.3,0.8-0.7c0-0.4-0.3-0.6-0.8-0.6c-0.3,0-0.4,0-0.5,0V108.6z"/>
			<path class="st5" d="M-1.2,110l-0.3,1.2h-1.1l1.4-4.6h1.4l1.4,4.6H0.5L0.1,110H-1.2z M0,109.2l-0.3-1c-0.1-0.3-0.2-0.6-0.2-0.9h0
				c-0.1,0.3-0.1,0.6-0.2,0.9l-0.3,1H0z"/>
			<path class="st5" d="M2.2,111.2v-4.6h1.2l0.9,1.7c0.3,0.5,0.5,1.1,0.7,1.6h0C5,109.3,5,108.6,5,108v-1.3H6v4.6H4.9l-1-1.8
				c-0.3-0.5-0.6-1.1-0.8-1.6l0,0c0,0.6,0,1.2,0,2v1.4H2.2z"/>
			<path class="st5" d="M7.7,107.5H6.5v-0.9H10v0.9H8.8v3.7h-1V107.5z"/>
			<path class="st5" d="M13.3,109.3h-1.7v1.1h1.9v0.8h-2.9v-4.6h2.8v0.8h-1.8v0.9h1.7V109.3z"/>
			<path class="st5" d="M16.9,109.3h-1.7v1.1h1.9v0.8h-2.9v-4.6H17v0.8h-1.8v0.9h1.7V109.3z"/>
		</g>
		<g>
			<path class="st6" d="M13,120.3c0,0-1-1.1-2.1-0.9c-1.2,0.2-8.4,8.6-8.6,8.8c-0.8,1.3,0.8,1.7,1.4,1.2c0.4-0.3,1.1-1.2,1.1-1.2
				l-0.4-0.3c0,0,6.5-7.2,6.8-7.4c0.6-0.5,1.2,0.2,1.2,0.2L13,120.3z"/>
			<polygon points="17.6,124.5 17.2,125 9.1,134.5 8.9,134.8 8.6,135.2 3.2,130.4 3.6,130.1 3.8,129.8 12.3,120.7 12.3,120.7 
				12.8,120.2 12.8,120.3 12.9,120.3 12.9,120.4 17.5,124.5 			"/>
			<polygon class="st6" points="3.2,130.4 1.5,132.4 6.9,137.2 8.6,135.2 			"/>
			<polygon class="st6" points="-4.2,141.2 -1.4,143.8 -4.2,145.7 -5.9,144.1 			"/>
			<polygon class="st7" points="-5.9,144.2 -10.7,151.3 -10.1,151.4 -9.7,151 -4.7,148.5 -4.2,145.7 			"/>
			<polygon points="6.9,137.2 6.6,137.4 6.4,137.6 -0.8,143.3 -1.1,143.5 -1.4,143.8 -4.2,141.3 -4.2,141.3 -3.8,140.6 1.1,133 
				1.5,132.4 			"/>
			<path d="M17.6,124.5L17.6,124.5l-4.7-4.2l-0.1-0.1l0,0c0,0,0,0,0.1-0.1c0,0,0,0,0,0c0.5-0.3,2.6-1.3,4.2,0.1
				c1.7,1.4,0.8,3.6,0.6,4.1C17.6,124.5,17.6,124.5,17.6,124.5z"/>
			<rect x="11.9" y="122.2" transform="matrix(-0.7564 -0.6541 0.6541 -0.7564 -53.5695 224.9554)" width="6.3" height="0.6"/>
			<path class="st6" d="M12.8,120.1L12.8,120.1L12.8,120.1l-0.5,0.5l0,0l0.1,0.1l4.9,4.3l0.4-0.5c0,0,0,0,0.1-0.1l0,0l-4.7-4.2l0,0
				L12.8,120.1z"/>
			<polygon class="st6" points="1.3,132.7 6.6,137.4 6.4,137.6 1.1,133 			"/>
			<polygon class="st6" points="9.1,134.5 8.9,134.8 3.6,130.1 3.8,129.8 			"/>
			<polygon class="st6" points="-0.8,143.3 -1.1,143.5 -4,140.9 -3.8,140.6 			"/>
		</g>
		<rect x="-20.9" y="152" class="st4" width="18.2" height="1.4"/>
	</g>
</g>
</svg>
