<?xml version="1.0" encoding="utf-8"?>
<!-- Generator: Adobe Illustrator 19.0.0, SVG Export Plug-In . SVG Version: 6.00 Build 0)  -->
<svg version="1.1" xmlns="http://www.w3.org/2000/svg" xmlns:xlink="http://www.w3.org/1999/xlink" x="0px" y="0px"
	 viewBox="-63 65 128 128" style="enable-background:new -63 65 128 128;" xml:space="preserve">
<style type="text/css">
	.st0{fill:none;stroke:#CCEBF8;stroke-width:4;stroke-miterlimit:10;}
	.st1{fill:#80397B;}
	.st2{fill-rule:evenodd;clip-rule:evenodd;fill:#FFFFFF;}
	.st3{fill-rule:evenodd;clip-rule:evenodd;fill:#CACACA;}
	.st4{fill-rule:evenodd;clip-rule:evenodd;fill:#80BDAA;}
	.st5{fill-rule:evenodd;clip-rule:evenodd;fill:#C0F0E4;}
	.st6{fill-rule:evenodd;clip-rule:evenodd;fill:#AFE3D6;}
	.st7{fill-rule:evenodd;clip-rule:evenodd;fill:#9ED6C6;}
	.st8{fill-rule:evenodd;clip-rule:evenodd;fill:#8ECAB9;}
	.st9{fill-rule:evenodd;clip-rule:evenodd;fill:#AD0000;}
	.st10{fill-rule:evenodd;clip-rule:evenodd;fill:#B91817;}
	.st11{fill-rule:evenodd;clip-rule:evenodd;fill:#C42525;}
	.st12{fill-rule:evenodd;clip-rule:evenodd;fill:#D03333;}
	.st13{fill:#B51A3B;}
	.st14{font-family:'Courier-Bold';}
	.st15{font-size:8.4794px;}
	.st16{font-family:'ArialNarrow-Bold';}
</style>
<g id="Layer_1">
	<g id="Layer_1_3_">
		<g id="Layer_1_2_">
			<g id="Layer_1_1_">
				<circle id="XMLID_1_" class="st0" cx="1" cy="129" r="62"/>
			</g>
			<g id="Layer_2">
				<circle id="XMLID_2_" class="st1" cx="1" cy="129" r="52.5"/>
			</g>
		</g>
		<g id="Layer_3">
		</g>
	</g>
</g>
<g id="Layer_2_1_">
	<g>
		<g>
			
				<rect x="-21" y="95.5" transform="matrix(-1 -9.837028e-03 9.837028e-03 -1 3.7025 257.4204)" class="st2" width="46.9" height="66.4"/>
			
				<rect x="-16.5" y="107.6" transform="matrix(-1 -9.825782e-03 9.825782e-03 -1 4.3117 216.2092)" class="st3" width="38.3" height="1"/>
			
				<rect x="-16.5" y="109.3" transform="matrix(-1 -9.825893e-03 9.825893e-03 -1 4.2597 219.7049)" class="st3" width="38.3" height="1"/>
			
				<rect x="-16.5" y="111.1" transform="matrix(-1 -9.819294e-03 9.819294e-03 -1 4.209 223.1992)" class="st3" width="38.3" height="1"/>
			
				<rect x="-16.5" y="112.8" transform="matrix(-1 -9.837468e-03 9.837468e-03 -1 4.1561 226.694)" class="st3" width="38.3" height="1"/>
			
				<rect x="-16.5" y="114.6" transform="matrix(-1 -9.838440e-03 9.838440e-03 -1 4.1043 230.1883)" class="st3" width="38.3" height="1"/>
			<g>
				
					<ellipse transform="matrix(9.807849e-03 -1 1 9.807849e-03 -116.6276 144.9489)" class="st4" cx="14.9" cy="131.4" rx="6.9" ry="6.5"/>
				<path class="st5" d="M11.2,137.1c-0.9-0.7-1.7-1.6-2.2-2.7l5.8-3.1L11.2,137.1z"/>
				<path class="st6" d="M9,134.5c-0.4-1-0.7-2-0.7-3.2c0-2.2,1-4.2,2.6-5.4l4,5.5L9,134.5z"/>
				<path class="st7" d="M10.9,125.9c1.1-0.9,2.5-1.4,4-1.4l-0.1,6.9L10.9,125.9z"/>
				<path class="st8" d="M14.9,124.4l-0.1,6.9l4.7-4.8C18.4,125.3,16.8,124.4,14.9,124.4z"/>
			</g>
			<g>
				
					<rect x="-16.3" y="119.7" transform="matrix(-1 -9.729705e-03 9.729705e-03 -1 -28.7826 258.0807)" class="st9" width="5" height="18.8"/>
				
					<rect x="-10.5" y="126.9" transform="matrix(-1 -9.819041e-03 9.819041e-03 -1 -17.295 265.3501)" class="st10" width="5" height="11.7"/>
				
					<rect x="-4.7" y="130.9" transform="matrix(-1 -9.836394e-03 9.836394e-03 -1 -5.7539 269.4927)" class="st11" width="5" height="7.8"/>
				
					<rect x="1.1" y="127.3" transform="matrix(-1 -9.730387e-03 9.730387e-03 -1 5.9159 266.0278)" class="st12" width="5" height="11.4"/>
				
					<rect x="12.7" y="138.8" transform="matrix(-1 -9.964915e-03 9.964915e-03 -1 26.3201 278.664)" class="st3" width="2.2" height="0.9"/>
				
					<rect x="16" y="138.9" transform="matrix(-1 -9.729554e-03 9.729554e-03 -1 37.2152 278.8213)" class="st3" width="6.6" height="0.9"/>
			</g>
			
				<rect x="-16.8" y="141.3" transform="matrix(-1 -9.816132e-03 9.816132e-03 -1 -17.4129 283.7783)" class="st3" width="17.6" height="1.2"/>
			
				<rect x="-16.8" y="143.4" transform="matrix(-1 -9.832379e-03 9.832379e-03 -1 -17.476 287.8669)" class="st3" width="17.6" height="1.2"/>
			
				<rect x="-16.8" y="145.4" transform="matrix(-1 -9.847794e-03 9.847794e-03 -1 -17.5387 291.954)" class="st3" width="17.6" height="1.2"/>
			
				<rect x="-16.9" y="147.5" transform="matrix(-1 -9.832061e-03 9.832061e-03 -1 -17.5963 296.0425)" class="st3" width="17.6" height="1.2"/>
			
				<rect x="-16.9" y="149.5" transform="matrix(-1 -9.848272e-03 9.848272e-03 -1 -17.6589 300.1301)" class="st3" width="17.6" height="1.2"/>
			
				<rect x="-16.9" y="151.6" transform="matrix(-1 -9.832188e-03 9.832188e-03 -1 -17.7167 304.2194)" class="st3" width="17.6" height="1.2"/>
			
				<rect x="-16.9" y="153.6" transform="matrix(-1 -9.802875e-03 9.802875e-03 -1 -17.7729 308.3078)" class="st3" width="17.6" height="1.2"/>
			
				<rect x="-16.9" y="155.6" transform="matrix(-1 -9.786475e-03 9.786475e-03 -1 -26.6195 312.2658)" class="st3" width="8.8" height="1.2"/>
			
				<rect x="3.9" y="141.6" transform="matrix(-1 -9.799480e-03 9.799480e-03 -1 24.0394 284.3891)" class="st3" width="17.6" height="1.2"/>
			
				<rect x="3.9" y="143.6" transform="matrix(-1 -9.786507e-03 9.786507e-03 -1 23.9813 288.4769)" class="st3" width="17.6" height="1.2"/>
			
				<rect x="3.9" y="145.6" transform="matrix(-1 -9.815689e-03 9.815689e-03 -1 23.9157 292.5653)" class="st3" width="17.6" height="1.2"/>
			
				<rect x="3.9" y="147.7" transform="matrix(-1 -9.819568e-03 9.819568e-03 -1 23.8561 296.6534)" class="st3" width="17.6" height="1.2"/>
			
				<rect x="3.8" y="149.7" transform="matrix(-1 -9.864645e-03 9.864645e-03 -1 23.7886 300.7414)" class="st3" width="17.6" height="1.2"/>
			
				<rect x="3.8" y="151.8" transform="matrix(-1 -9.848113e-03 9.848113e-03 -1 23.7315 304.8301)" class="st3" width="17.6" height="1.2"/>
			
				<rect x="3.8" y="153.8" transform="matrix(-1 -9.865544e-03 9.865544e-03 -1 23.6697 308.9175)" class="st3" width="17.6" height="1.2"/>
			
				<rect x="3.8" y="155.8" transform="matrix(-1 -9.853889e-03 9.853889e-03 -1 18.4036 312.9297)" class="st3" width="12.4" height="1.2"/>
			<text transform="matrix(1 0 0 1 -2.1582 104.9214)"><tspan x="0" y="0" class="st13 st14 st15">1</tspan><tspan x="5.1" y="0" class="st13 st16 st15">ะก</tspan></text>
		</g>
	</g>
</g>
</svg>
