<?xml version="1.0" encoding="utf-8"?>
<!-- Generator: Adobe Illustrator 19.0.0, SVG Export Plug-In . SVG Version: 6.00 Build 0)  -->
<svg version="1.1" id="Layer_1" xmlns="http://www.w3.org/2000/svg" xmlns:xlink="http://www.w3.org/1999/xlink" x="0px" y="0px"
	 viewBox="0 0 256 256" style="enable-background:new 0 0 256 256;" xml:space="preserve">
<style type="text/css">
	.st0{fill:#4F8D5D;}
	.st1{fill:#FFFFFF;}
	.st2{fill:#3E2E21;stroke:#FFFFFF;stroke-width:0.8602;stroke-miterlimit:10;}
	.st3{fill:#E8E7E5;}
	.st4{fill:#C38048;}
	.st5{fill:#ECCD4B;}
	.st6{fill:#944B4C;}
</style>
<g id="XMLID_7_">
	
		<image style="overflow:visible;opacity:0.25;" width="1093" height="901" id="XMLID_344_" xlink:href="D9B484DEEA879B0C.png"  transform="matrix(0.24 0 0 0.24 -2.0402 46.3635)">
	</image>
	<g id="XMLID_206_">
		<g id="XMLID_294_">
			<g id="XMLID_313_">
				
					<rect id="XMLID_318_" x="185.7" y="51.3" transform="matrix(0.9912 -0.1325 0.1325 0.9912 -18.4307 29.727)" class="st0" width="57.1" height="204.2"/>
				
					<rect id="XMLID_317_" x="186.3" y="57.6" transform="matrix(0.9912 -0.1326 0.1326 0.9912 -13.1633 28.6825)" class="st1" width="45" height="111.1"/>
				<path id="XMLID_316_" class="st2" d="M207.5,188.4c-0.8-6.2,3.5-11.8,9.7-12.6c6.2-0.8,11.8,3.5,12.6,9.6
					c0.8,6.2-3.5,11.8-9.7,12.6C214,198.8,208.4,194.5,207.5,188.4z"/>
				<polygon id="XMLID_315_" class="st3" points="204.2,157.7 192.6,71.4 213.5,68.7 225,155 				"/>
				<polygon id="XMLID_314_" class="st3" points="248.9,242.7 204.2,248.6 203,239.7 247.7,233.7 				"/>
			</g>
			<g id="XMLID_307_">
				<rect id="XMLID_312_" y="50" class="st4" width="59" height="205"/>
				<rect id="XMLID_311_" x="8" y="59" class="st1" width="46" height="109"/>
				<rect id="XMLID_310_" x="23" y="68" class="st3" width="23" height="92"/>
				<path id="XMLID_309_" class="st2" d="M19.8,187.2c0-6.2,5-11.2,11.2-11.2c6.2,0,11.2,5,11.2,11.2c0,6.2-5,11.2-11.2,11.2
					C24.8,198.4,19.8,193.4,19.8,187.2z"/>
				<rect id="XMLID_308_" x="8" y="233" class="st3" width="46" height="9"/>
			</g>
			<g id="XMLID_301_">
				<rect id="XMLID_306_" x="59" y="50" class="st5" width="55" height="205"/>
				<rect id="XMLID_305_" x="68" y="59" class="st1" width="42" height="109"/>
				<path id="XMLID_304_" class="st2" d="M76.8,187.2c0-6.2,5-11.2,11.2-11.2c6.2,0,11.2,5,11.2,11.2c0,6.2-5,11.2-11.2,11.2
					C81.9,198.4,76.8,193.4,76.8,187.2z"/>
				<rect id="XMLID_303_" x="78" y="68" class="st3" width="22" height="92"/>
				<rect id="XMLID_302_" x="68" y="233" class="st3" width="42" height="9"/>
			</g>
			<g id="XMLID_295_">
				<rect id="XMLID_300_" x="114" y="50" class="st6" width="63" height="205"/>
				<rect id="XMLID_299_" x="122" y="59" class="st1" width="46" height="109"/>
				<path id="XMLID_298_" class="st2" d="M133.9,187.2c0-6.2,5-11.2,11.2-11.2c6.2,0,11.2,5,11.2,11.2c0,6.2-5,11.2-11.2,11.2
					C138.9,198.4,133.9,193.4,133.9,187.2z"/>
				<rect id="XMLID_297_" x="137" y="68" class="st3" width="18" height="92"/>
				<rect id="XMLID_296_" x="122" y="233" class="st3" width="46" height="9"/>
			</g>
		</g>
	</g>
</g>
</svg>
