<?xml version="1.0" encoding="utf-8"?>
<!-- Generator: Adobe Illustrator 19.0.0, SVG Export Plug-In . SVG Version: 6.00 Build 0)  -->
<svg version="1.1" xmlns="http://www.w3.org/2000/svg" xmlns:xlink="http://www.w3.org/1999/xlink" x="0px" y="0px"
	 viewBox="0 0 128 128" style="enable-background:new 0 0 128 128;" xml:space="preserve">
<style type="text/css">
	.st0{fill:none;stroke:#CCEBF8;stroke-width:4;stroke-miterlimit:10;}
	.st1{fill:#80397B;}
	.st2{fill:#BDAFDB;}
	.st3{fill:#5C546A;}
	.st4{fill:#FFFFFF;}
	.st5{fill:#FFE1B2;}
	.st6{fill:#8B8996;}
	.st7{fill:#9F6459;}
	.st8{fill:none;stroke:#8B8996;stroke-width:0.5;stroke-miterlimit:10;}
	.st9{fill:#FFEBB7;}
	.st10{fill:#00C37A;}
	.st11{fill:#009BCA;}
	.st12{fill:#E6BE94;}
	.st13{fill:#5243AF;}
</style>
<g id="Layer_1">
	<g id="Layer_1_3_">
		<g id="Layer_1_2_">
			<g id="Layer_1_1_">
				<circle id="XMLID_1_" class="st0" cx="64" cy="64" r="62"/>
			</g>
			<g id="Layer_2">
				<circle id="XMLID_2_" class="st1" cx="64" cy="64" r="52.5"/>
			</g>
		</g>
	</g>
</g>
<g id="Layer_2_2_">
	<g id="Layer_2_1_">
		<g>
			<path class="st2" d="M83.5,95.7l-5.2-17.5c-0.2-0.5-0.7-0.9-1.3-0.7c-0.5,0.2-0.9,0.7-0.7,1.3l1.4,4.9H50.2l1.4-4.9
				c0.2-0.5-0.2-1.1-0.7-1.3c-0.6-0.2-1.1,0.2-1.3,0.7l-5.1,17.5c-0.2,0.5,0.2,1.1,0.7,1.3c0.1,0,0.2,0,0.3,0c0.4,0,0.9-0.3,1-0.7
				l3.1-10.6h28.9l3.1,10.6c0.1,0.4,0.5,0.7,1,0.7c0.1,0,0.2,0,0.3,0C83.4,96.8,83.7,96.2,83.5,95.7L83.5,95.7z"/>
			<path class="st3" d="M64,37.1c0.6,0,1-0.5,1-1V32c0-0.6-0.5-1-1-1c-0.6,0-1,0.5-1,1v4.1C63,36.7,63.4,37.1,64,37.1L64,37.1z"/>
			<path class="st4" d="M93.9,35.1H34.1c-0.6,0-1,0.5-1,1v40.2c0,1.7,1.4,3.1,3.1,3.1h55.7c1.7,0,3.1-1.4,3.1-3.1V36.1
				C94.9,35.5,94.5,35.1,93.9,35.1L93.9,35.1z"/>
			<path class="st5" d="M41.3,78.5"/>
			<path class="st6" d="M92.9,37.1v39.2c0,0.6-0.5,1-1,1H36.2c-0.6,0-1-0.5-1-1V37.1H92.9 M93.9,35.1H34.1c-0.6,0-1,0.5-1,1v40.2
				c0,1.7,1.4,3.1,3.1,3.1h55.7c1.7,0,3.1-1.4,3.1-3.1V36.1C94.9,35.5,94.5,35.1,93.9,35.1L93.9,35.1z"/>
			<path class="st7" d="M32.1,38.2H96c0.6,0,1-0.5,1-1v-2.1c0-0.6-0.5-1-1-1H32.1c-0.6,0-1,0.5-1,1v2.1C31,37.7,31.5,38.2,32.1,38.2
				L32.1,38.2z"/>
		</g>
		<line class="st8" x1="41.3" y1="49" x2="65.4" y2="49"/>
		<line class="st8" x1="67.5" y1="49" x2="87.4" y2="49"/>
		<line class="st8" x1="60" y1="53" x2="87.4" y2="53"/>
		<line class="st8" x1="41" y1="53" x2="57.3" y2="53"/>
		<line class="st8" x1="41.3" y1="58" x2="87.4" y2="58"/>
		<line class="st8" x1="41.3" y1="62" x2="64" y2="62"/>
		<line class="st8" x1="66.3" y1="62" x2="87.4" y2="62"/>
		<line class="st8" x1="41.3" y1="45" x2="64" y2="45"/>
		<line class="st8" x1="66.3" y1="45" x2="87.4" y2="45"/>
		<line class="st8" x1="41.3" y1="67.1" x2="87.4" y2="67.1"/>
		<line class="st8" x1="57.3" y1="71.1" x2="67.9" y2="71.1"/>
		<line class="st8" x1="72.1" y1="71.1" x2="87.4" y2="71.1"/>
		<line class="st8" x1="41.3" y1="71.1" x2="53.4" y2="71.1"/>
	</g>
	<g>
		<path class="st9" d="M53.6,76.2l-11.8,0c-1.3,0-1.1-0.9-1.1-2.2l0-0.6c0-1.2-0.1-2.2,1.2-2.2l11.8,0L53.6,76.2z M53.6,76.2"/>
		<path class="st9" d="M40.9,70.5c-0.4,0-0.7-0.3-0.7-0.7l0-2.1c0-0.4,0.3-0.7,0.7-0.7l13.2,0l0,3.5L40.9,70.5L40.9,70.5z
			 M40.9,70.5"/>
		
			<rect x="41" y="62.5" transform="matrix(-1 -8.785240e-04 8.785240e-04 -1 94.5599 128.8418)" class="st9" width="12.6" height="3.7"/>
		<path class="st10" d="M53.6,76.7l-11.4,0c-1.6,0-2.3-1.3-2.3-3c0-1.6,0.6-3,2.3-3l11.4,0c0.3,0,0.5,0.2,0.5,0.5
			c0,0.3-0.2,0.5-0.5,0.5l-11.4,0c-1.1,0-1.3,0.9-1.3,2c0,1.1,0.2,2,1.3,2l11.4,0c0.3,0,0.5,0.2,0.5,0.5
			C54.1,76.4,53.9,76.7,53.6,76.7L53.6,76.7z M53.6,76.7"/>
		<path class="st11" d="M41.3,70.7c-0.7,0-1.2-0.6-1.2-1.2l0-1.5c0-0.7,0.6-1.2,1.2-1.2l13.1,0c0.1,0,0.2,0.1,0.2,0.2
			c0,0.1-0.1,0.2-0.2,0.2l-13.1,0c-0.4,0-0.7,0.3-0.7,0.7l0,1.5c0,0.4,0.3,0.7,0.7,0.7l13.1,0c0.1,0,0.2,0.1,0.2,0.2
			c0,0.1-0.1,0.2-0.2,0.2L41.3,70.7L41.3,70.7z M41.3,70.7"/>
		<path class="st12" d="M53.6,63.8l-11.4,0c-0.1,0-0.2-0.1-0.2-0.2c0-0.1,0.1-0.2,0.2-0.2l11.4,0L53.6,63.8z M53.6,63.8"/>
		<path class="st12" d="M53.6,64.8l-11.4,0c-0.1,0-0.2-0.1-0.2-0.2c0-0.1,0.1-0.2,0.2-0.2l11.4,0L53.6,64.8z M53.6,64.8"/>
		<path class="st12" d="M53.6,65.8l-11.4,0c-0.1,0-0.2-0.1-0.2-0.2c0-0.1,0.1-0.2,0.2-0.2l11.4,0L53.6,65.8z M53.6,65.8"/>
		<path class="st12" d="M54.1,68.2l-12.9,0c-0.1,0-0.2-0.1-0.2-0.2c0-0.1,0.1-0.2,0.2-0.2l12.9,0L54.1,68.2z M54.1,67.8"/>
		<path class="st12" d="M54.1,69.2l-12.9,0c-0.1,0-0.2-0.1-0.2-0.2c0-0.1,0.1-0.2,0.2-0.2l12.9,0L54.1,69.2z M54.1,68.7"/>
		<path class="st12" d="M54.1,70.2l-12.9,0c-0.1,0-0.2-0.1-0.2-0.2c0-0.1,0.1-0.2,0.2-0.2l12.9,0L54.1,70.2z M54.1,69.7"/>
		<path class="st13" d="M53.9,66.8l-11.9,0c-0.8,0-1.5-0.7-1.5-1.5l0-2c0-0.8,0.7-1.5,1.5-1.5l11.9,0c0.3,0,0.5,0.2,0.5,0.5
			c0,0.3-0.2,0.5-0.5,0.5l-11.9,0c-0.3,0-0.5,0.2-0.5,0.5l0,2c0,0.3,0.2,0.5,0.5,0.5l11.9,0c0.3,0,0.5,0.2,0.5,0.5
			C54.4,66.5,54.2,66.8,53.9,66.8L53.9,66.8z M53.9,66.8"/>
		<path class="st12" d="M42.2,75.2c-0.1,0-0.2,0.1-0.2,0.3c0,0.1,0.1,0.3,0.2,0.3l11.4,0l0-0.5L42.2,75.2z M42.2,75.2"/>
		<path class="st12" d="M42.2,74.2c-0.1,0-0.2,0.1-0.2,0.3c0,0.1,0.1,0.3,0.2,0.3l11.4,0l0-0.5L42.2,74.2z M42.2,74.2"/>
		<path class="st12" d="M42.2,73.1c-0.1,0-0.2,0.1-0.2,0.3c0,0.1,0.1,0.3,0.2,0.3l11.4,0l0-0.5L42.2,73.1z M42.2,73.1"/>
		<path class="st12" d="M42.2,72.1c-0.1,0-0.2,0.1-0.2,0.3c0,0.1,0.1,0.3,0.2,0.3l11.4,0l0-0.5L42.2,72.1z M42.2,72.1"/>
	</g>
</g>
</svg>
