<?xml version="1.0" encoding="utf-8"?>
<!-- Generator: Adobe Illustrator 19.0.0, SVG Export Plug-In . SVG Version: 6.00 Build 0)  -->
<svg version="1.1" id="Layer_1" xmlns="http://www.w3.org/2000/svg" xmlns:xlink="http://www.w3.org/1999/xlink" x="0px" y="0px"
	 viewBox="0 0 128 128" style="enable-background:new 0 0 128 128;" xml:space="preserve">
<style type="text/css">
	.st0{fill:none;stroke:#CCEBF8;stroke-width:4;stroke-miterlimit:10;}
	.st1{fill:#FAA93B;}
	.st2{fill:#78B9EB;}
	.st3{fill:#5A8BB0;}
	.st4{fill:#3C5D76;}
	.st5{fill:#FFFFFF;}
	.st6{fill:#FFDA44;}
	.st7{fill:#FF5023;}
	.st8{fill:#F4F3F2;}
	.st9{fill:#EFBA0F;}
	.st10{font-family:'Arial-BoldMT';}
	.st11{font-size:14.5889px;}
	.st12{font-family:'ArialMT';}
	.st13{font-size:16.4342px;}
	.st14{font-size:14.1177px;}
	.st15{font-size:6.8672px;}
</style>
<g id="Layer_1_2_">
	<g id="Layer_1_1_">
		<circle id="XMLID_1_" class="st0" cx="64" cy="64" r="62"/>
	</g>
	<g id="Layer_2">
		<circle id="XMLID_2_" class="st1" cx="64" cy="64" r="52.5"/>
	</g>
</g>
<g id="Layer_2_1_">
	<g id="Layer_2_2_">
		<g>
			<path class="st2" d="M39.7,91.9v-5.7h24.7v-9.5H33.9v22.8h30.5v-7.6H39.7z"/>
			<rect x="33.9" y="63.4" class="st2" width="30.5" height="5.7"/>
			<rect x="64.4" y="63.4" class="st3" width="30.5" height="5.7"/>
			<path class="st3" d="M64.4,86.2v13.3h30.5V76.7H64.4V86.2z M75.8,84.3c1.6,0,2.9,0.7,3.8,1.9c0.9-1.2,2.3-1.9,3.8-1.9
				c2.6,0,4.8,2.1,4.8,4.8s-2.1,4.8-4.8,4.8c-1.6,0-2.9-0.7-3.8-1.9c-0.9,1.2-2.3,1.9-3.8,1.9c-2.6,0-4.8-2.1-4.8-4.8
				S73.2,84.3,75.8,84.3L75.8,84.3z"/>
			<rect x="33.9" y="69.1" class="st4" width="60.9" height="7.6"/>
			<rect x="39.7" y="86.2" class="st5" width="24.7" height="5.7"/>
			<path class="st6" d="M75.8,93.8c1.6,0,2.9-0.7,3.8-1.9c-0.6-0.8-1-1.8-1-2.9s0.4-2.1,1-2.9c-0.9-1.2-2.3-1.9-3.8-1.9
				c-2.6,0-4.8,2.1-4.8,4.8S73.2,93.8,75.8,93.8L75.8,93.8z"/>
			<path class="st7" d="M79.6,91.9c0.9,1.2,2.3,1.9,3.8,1.9c2.6,0,4.8-2.1,4.8-4.8s-2.1-4.8-4.8-4.8c-1.6,0-2.9,0.7-3.8,1.9
				c-0.6,0.8-1,1.8-1,2.9C78.7,90.1,79,91.1,79.6,91.9L79.6,91.9z"/>
		</g>
		<ellipse class="st8" cx="34.7" cy="50.1" rx="9.2" ry="9.1"/>
		<ellipse class="st8" cx="57.8" cy="42" rx="5.3" ry="5.2"/>
		<ellipse class="st8" cx="74.5" cy="31.6" rx="6.8" ry="6.7"/>
		<ellipse class="st8" cx="61.5" cy="59.6" rx="7.4" ry="7.3"/>
		<ellipse class="st8" cx="88" cy="53.3" rx="8.4" ry="8.3"/>
	</g>
	<text transform="matrix(1 0 0 1 29.5757 55.4375)" class="st9 st10 st11">S</text>
	<text transform="matrix(0.8579 0 0 1 70.999 35.6211)" class="st9 st12 st13">c</text>
	<rect x="70.9" y="30.3" class="st9" width="5.8" height="0.6"/>
	<rect x="70.9" y="31.5" class="st9" width="5.8" height="0.6"/>
	<rect x="33.5" y="42.7" class="st9" width="1.6" height="2.7"/>
	<rect x="33.5" y="54.7" class="st9" width="1.6" height="2.7"/>
	<text transform="matrix(0.8653 0 0 1 57.2886 63.6211)" class="st9 st12 st13">c</text>
	<rect x="57.2" y="58.3" class="st9" width="6.4" height="0.6"/>
	<rect x="57.2" y="59.5" class="st9" width="6.4" height="0.6"/>
	<text transform="matrix(1 0 0 1 83.4004 58.9741)" class="st9 st10 st14">S</text>
	<rect x="87.2" y="46.7" class="st9" width="1.6" height="2.6"/>
	<rect x="87.2" y="58.3" class="st9" width="1.6" height="2.6"/>
	<text transform="matrix(1 0 0 1 55.2683 44.5235)" class="st9 st10 st15">S</text>
	<rect x="57.1" y="38.5" class="st9" width="0.8" height="1.3"/>
	<rect x="57.1" y="44.2" class="st9" width="0.8" height="1.3"/>
</g>
</svg>
