<?xml version="1.0" encoding="utf-8"?>
<!-- Generator: Adobe Illustrator 19.0.0, SVG Export Plug-In . SVG Version: 6.00 Build 0)  -->
<svg version="1.1" xmlns="http://www.w3.org/2000/svg" xmlns:xlink="http://www.w3.org/1999/xlink" x="0px" y="0px"
	 viewBox="-10 12 128 128" style="enable-background:new -10 12 128 128;" xml:space="preserve">
<style type="text/css">
	.st0{fill:none;stroke:#CCEBF8;stroke-width:4;stroke-miterlimit:10;}
	.st1{fill:#80397B;}
	.st2{fill:#7C6349;}
	.st3{fill:#5B4837;}
	.st4{fill:#77BC4A;}
	.st5{fill:#A3D284;}
	.st6{fill:#F5F0E1;}
	.st7{fill:#53645B;}
	.st8{fill:#937655;stroke:#4C3D2D;stroke-width:0.25;stroke-miterlimit:10;}
	.st9{fill:#937655;stroke:#5B4838;stroke-width:0.25;stroke-miterlimit:10;}
	.st10{fill:#CDCDD0;}
	.st11{fill:none;stroke:#5B4838;stroke-width:0.25;stroke-miterlimit:10;}
	.st12{fill:none;stroke:#725B44;stroke-width:0.25;stroke-miterlimit:10;}
	.st13{fill:none;stroke:#493A2C;stroke-width:0.25;stroke-miterlimit:10;}
	.st14{fill:#7C7E7F;stroke:#725B44;stroke-width:0.25;stroke-miterlimit:10;}
	.st15{fill:#6D6D6D;}
	.st16{fill:#1B5E60;}
</style>
<g id="Layer_1">
	<g id="Layer_1_2_">
		<g id="Layer_1_1_">
			<circle id="XMLID_1_" class="st0" cx="54" cy="76" r="62"/>
		</g>
		<g id="Layer_2">
			<circle id="XMLID_2_" class="st1" cx="54" cy="76" r="52.5"/>
		</g>
	</g>
</g>
<g id="Layer_4">
	<path class="st2" d="M57.6,95.8h-37c-0.3,0-0.6-0.2-0.6-0.6V72.7c0-0.3,0.2-0.6,0.6-0.6h37c0.3,0,0.6,0.2,0.6,0.6v22.5
		C58.2,95.5,57.9,95.8,57.6,95.8z"/>
	<path class="st3" d="M90.3,95.8H55.2c-0.2,0-0.3-0.1-0.3-0.3V72.4c0-0.1,0.1-0.2,0.2-0.2h35.1c0.3,0,0.6,0.2,0.6,0.6v22.5
		C90.8,95.5,90.6,95.8,90.3,95.8z"/>
</g>
<g id="Layer_3_1_">
	<g id="Layer_3_2_">
		<polygon class="st4" points="60.1,77.2 59.4,77.4 59.1,75.8 59.8,75.6 		"/>
		<path class="st5" d="M49.8,71.3L49.8,71.3L49.8,71.3 M49.8,71.3L49.8,71.3L49.8,71.3 M49.8,71.3L49.8,71.3L49.8,71.3 M49.8,71.4
			C49.8,71.4,49.8,71.3,49.8,71.4C49.8,71.3,49.8,71.4,49.8,71.4 M49.5,71.3c0.1-0.1,0.1-0.1,0.2-0.1C49.7,71.3,49.7,71.4,49.5,71.3
			"/>
		<g>
			<g>
				<g>
					<polygon class="st6" points="76.1,57.7 81.2,74.3 46.2,90.5 41,73.9 					"/>
					<g>
						<path class="st7" d="M51.1,87.1l24.8-11.5l4.2-1.9l-1.2-4.5l-1.7-5.7l-1.4-4.4L71.6,61L46.5,72.5l-4.2,1.9l1.4,4.4l1.7,5.7
							l1.3,4.4L51.1,87.1z M75.7,64.5l1.6,5.2c-1.8,0.9-2.7,3-2.1,4.8l-10,4.6c1.7-1.9,2.2-4.8,1.5-7.3c-0.8-2.6-2.8-4.3-5.1-4.4
							l10-4.6l0,0C72,64.4,74,65.2,75.7,64.5z M45.1,78.5c1.8-0.9,2.7-3,2.1-4.8l0,0l10-4.6c-1.7,1.9-2.2,4.8-1.5,7.3
							c0.8,2.6,2.8,4.3,5.1,4.4l-10.1,4.7c-0.6-1.8-2.5-2.7-4.2-1.8L45.1,78.5z"/>
					</g>
				</g>
			</g>
		</g>
		<g>
			<g>
				<g>
					<polygon class="st6" points="59.5,49 71.9,59.5 47.5,92.1 35.1,81.6 					"/>
					<g>
						<path class="st7" d="M50.4,86.7l17.4-23.1l3-3.9l-3.3-2.8l-4.3-3.6l-3.3-2.8l-3,3.9L39.5,77.4l-3,3.9l3.3,2.8l4.3,3.6l3.3,2.8
							L50.4,86.7z M62.3,54.7l3.9,3.2c-1.1,1.6-1.1,4,0.3,5l-6.9,9.3c0.6-2.4-0.3-5.1-2.2-6.8c-2-1.6-4.6-1.9-6.7-0.8l6.9-9.3l0,0
							C58.9,56.7,61.1,56.2,62.3,54.7z M40.9,83.1c1.1-1.6,1.1-4-0.3-5l0,0l7-9.3c-0.6,2.4,0.3,5.1,2.2,6.8c2,1.6,4.6,1.9,6.7,0.8
							l-6.9,9.3c-1.4-1.1-3.5-0.8-4.7,0.8L40.9,83.1z"/>
					</g>
				</g>
			</g>
		</g>
		<g>
			<g>
				<g>
					<polygon class="st6" points="38.3,45.5 54.9,45 52,85.2 35.4,85.6 					"/>
					<g>
						<path class="st7" d="M51.4,79.2l2.2-28.4l0.4-4.8l-4.4,0.1l-5.8,0.1l-4.4,0.1L39,51l-2,28.5l-0.3,4.7l4.4-0.1l5.7-0.1l4.4-0.1
							L51.4,79.2z M43.9,47.8l5.1-0.2c-0.1,1.9,1.3,3.6,3,3.5l-0.8,11.3c-0.8-2.2-3-3.6-5.6-3.6c-2.7,0.1-5,1.6-6.2,3.8l0.7-11.3
							l0,0C42.3,51.4,43.7,49.7,43.9,47.8z M41.3,82.8c0.1-1.9-1.3-3.6-3-3.5l0,0L39.1,68c0.8,2.2,3,3.6,5.6,3.6
							c2.7-0.1,5-1.6,6.2-3.8l-0.8,11.3c-1.8,0.1-3.4,1.7-3.6,3.7L41.3,82.8z"/>
					</g>
				</g>
			</g>
		</g>
	</g>
</g>
<g id="Layer_2_2_">
	<g id="Layer_2_1_">
		<g>
			<path class="st8" d="M57.6,99.7h-37c-0.3,0-0.6-0.2-0.6-0.6V74.3c0-0.3,0.2-0.6,0.6-0.6h37c0.3,0,0.6,0.2,0.6,0.6v24.9
				C58.2,99.5,57.9,99.7,57.6,99.7z"/>
			<path class="st8" d="M89.9,99.7H54.8c-0.2,0-0.3-0.1-0.3-0.3V74c0-0.1,0.1-0.2,0.2-0.2h35.1c0.3,0,0.6,0.2,0.6,0.6v24.9
				C90.5,99.5,90.2,99.7,89.9,99.7z"/>
			<rect x="59.9" y="78.5" class="st9" width="25.8" height="17.2"/>
			<path class="st10" d="M74.1,86.7c0,0.8-0.8,1.3-1.7,1.3c-0.9-0.1-1.6-0.7-1.5-1.5c0.1-0.8,0.8-1.4,1.7-1.3S74.2,85.9,74.1,86.7
				L74.1,86.7z"/>
			<path class="st11" d="M59.9,78.5c0,0,11.7,11,12.6,11s13.1-11,13.1-11"/>
			<line class="st9" x1="55.3" y1="73.7" x2="55.3" y2="99.7"/>
			<line class="st12" x1="23.6" y1="78.6" x2="51.1" y2="78.6"/>
			<line class="st12" x1="23.6" y1="82.4" x2="51.1" y2="82.4"/>
			<line class="st13" x1="60" y1="76" x2="85.8" y2="76"/>
			<rect x="24.2" y="84.6" class="st14" width="26.9" height="12"/>
			<rect x="26" y="74.7" class="st15" width="22.3" height="3.4"/>
			<rect x="26" y="79.7" class="st16" width="22.3" height="2.2"/>
		</g>
	</g>
</g>
</svg>
