<?xml version="1.0" encoding="utf-8"?>
<!-- Generator: Adobe Illustrator 19.0.0, SVG Export Plug-In . SVG Version: 6.00 Build 0)  -->
<svg version="1.1" xmlns="http://www.w3.org/2000/svg" xmlns:xlink="http://www.w3.org/1999/xlink" x="0px" y="0px"
	 viewBox="1 -2 128 128" style="enable-background:new 1 -2 128 128;" xml:space="preserve">
<style type="text/css">
	.st0{fill:none;stroke:#CCEBF8;stroke-width:4;stroke-miterlimit:10;}
	.st1{fill:#FAA93B;}
	.st2{fill:#FFFFFF;}
	.st3{fill:#2E7493;}
	.st4{opacity:0.4;fill:#B9BCBE;}
	.st5{opacity:0.4;fill:#9D9FA0;}
	.st6{opacity:0.4;fill:#B9BCBE;stroke:#FFFFFF;stroke-width:2;stroke-miterlimit:10;}
	.st7{fill:#DF5A59;}
	.st8{opacity:0.45;fill:#2E7493;}
	.st9{fill:#B9BCBE;}
</style>
<g id="Layer_1">
	<g id="Layer_1_2_">
		<g id="Layer_1_1_">
			<circle id="XMLID_1_" class="st0" cx="65" cy="62" r="62"/>
		</g>
		<g id="Layer_2">
			<circle id="XMLID_2_" class="st1" cx="65" cy="62" r="52.5"/>
		</g>
	</g>
</g>
<g id="Layer_2_1_">
	<g>
		<rect x="44" y="31" class="st2" width="45" height="63"/>
		<rect x="44" y="90" class="st3" width="45" height="4"/>
		<rect x="44" y="31" class="st3" width="45" height="1"/>
		<rect x="51" y="87" class="st4" width="11.7" height="0"/>
		<rect x="49" y="52" class="st5" width="33" height="1"/>
		<rect x="49" y="50" class="st4" width="33" height="1"/>
		<rect x="49" y="48" class="st5" width="33" height="1"/>
		<rect x="49" y="46" class="st5" width="33" height="1"/>
		<rect x="49" y="66" class="st5" width="33" height="1"/>
		<rect x="49" y="68" class="st5" width="33" height="1"/>
		<rect x="49.4" y="50" class="st5" width="32.3" height="0"/>
		<rect x="49" y="54" class="st5" width="33" height="1"/>
		<rect x="49" y="60" class="st5" width="33" height="1"/>
		<rect x="49" y="62" class="st5" width="33" height="1"/>
		<rect x="49" y="72" class="st5" width="33" height="1"/>
		<rect x="57" y="40" class="st5" width="19" height="1"/>
		<rect x="49" y="44" class="st5" width="21" height="1"/>
		<rect x="49.5" y="53" class="st6" width="32.2" height="0"/>
		<rect x="49" y="56" class="st5" width="33" height="1"/>
		<rect x="49" y="58" class="st5" width="33" height="1"/>
		<rect x="49.5" y="63" class="st6" width="32.2" height="0"/>
		<rect x="49.5" y="65" class="st6" width="32.2" height="0"/>
		<rect x="49" y="64" class="st5" width="33" height="1"/>
		<rect x="49.4" y="71" class="st4" width="17.2" height="0"/>
		<rect x="70" y="87" class="st4" width="11.7" height="0"/>
		<rect x="44" y="31" class="st7" width="45.3" height="0"/>
		<g>
			<circle class="st8" cx="66.5" cy="87" r="2.2"/>
			<circle class="st3" cx="66.5" cy="87" r="1.6"/>
		</g>
	</g>
	<g>
		<g>
			<g>
				<path class="st9" d="M72.9,81.4c-0.1,0.1-0.1,0.3-0.2,0.4c0,0,0,0,0,0C72.8,81.7,72.9,81.5,72.9,81.4c0.2-0.1,0.3-0.2,0.4-0.2
					c-0.1,0-0.1,0-0.2,0c0.3-0.5,0.5-1,0.6-1.5c0.1,1,0.3,2.1,0.4,3.1c0,0.1,0,0.1,0,0.2c0,0.2-0.1,0.5-0.1,0.7
					c-0.2,0.9-0.8,2.9,0.5,3.5c0.1,0,0.2,0,0.2-0.1c0.3-0.9,0-1.8-0.1-2.6c-0.1-0.5-0.1-1-0.2-1.4c0.2-1,0.6-2.1,0.8-3.1
					c0,0.1,0,0.1,0,0.2c0.1,0.8,0.3,1.6,0.9,2.3c0.1,0.1,0.2,0.1,0.2,0c0.2-0.9,0.1-1.8,0.3-2.7c0.3,0.4,0.6,0.8,1.2,1
					c0.1,0,0.1,0,0.2,0c0.2-0.2,0.3-0.5,0.7-0.6c0.2-0.1,0.6,0.3,0.7,0.4c0.3,0.2,0.7,0.5,1.2,0.6c1.3,0.3,2.5-0.3,3.8-0.4
					c0.2,0,0.2-0.2,0-0.2c-0.9,0.1-1.7,0.3-2.5,0.4c-1.2,0.2-1.8-0.4-2.7-0.9c-0.2-0.2-0.6-0.2-0.8,0c-0.2,0.1-0.4,0.6-0.7,0.4
					c-0.4-0.2-0.7-0.7-1-1c-0.1-0.1-0.2-0.1-0.2,0c-0.2,0.9-0.1,1.8-0.3,2.7c-0.4-0.6-0.6-1.4-0.7-2.1c0-0.3-0.1-0.6-0.1-0.9
					c0.1-0.5,0.1-1,0.1-1.5c0-0.1-0.2-0.1-0.2,0c-0.1,0.5-0.2,1.1-0.1,1.6c-0.2,0.7-0.4,1.5-0.6,2.2c-0.1,0.3-0.2,0.7-0.2,1
					c-0.1-0.4-0.1-0.8-0.2-1.2c-0.1-0.6-0.2-1.2-0.3-1.9c0.2-0.8,0.4-1.6,0.6-2.4c0.2-1.3,0.4-2.9-0.7-3.9c0,0-0.1,0-0.2,0
					c-0.7,2-0.1,4.2,0.1,6.2c0,0.1,0,0.1,0,0.2c-0.2,0.6-0.4,1.2-0.7,1.7 M73.4,75.1c0-0.5,0-1,0.1-1.5c0-0.2,0-0.5,0.3-0.2
					c0.2,0.2,0.3,0.4,0.3,0.6c0.3,0.8,0.3,1.7,0.2,2.5c-0.1,0.9-0.3,1.8-0.5,2.7C73.6,77.8,73.4,76.5,73.4,75.1z M74.7,86.2
					c0,0.1-0.1,0.8-0.1,0.8c-0.2-0.1-0.2-0.3-0.3-0.4c-0.1-0.3-0.2-0.7-0.2-1c0-0.6,0.1-1.3,0.2-1.9C74.5,84.5,74.6,85.4,74.7,86.2z
					"/>
			</g>
		</g>
	</g>
</g>
</svg>
