<?xml version="1.0" encoding="utf-8"?>
<!-- Generator: Adobe Illustrator 19.0.0, SVG Export Plug-In . SVG Version: 6.00 Build 0)  -->
<svg version="1.1" id="Layer_1" xmlns="http://www.w3.org/2000/svg" xmlns:xlink="http://www.w3.org/1999/xlink" x="0px" y="0px"
	 viewBox="-10 12 128 128" style="enable-background:new -10 12 128 128;" xml:space="preserve">
<style type="text/css">
	.st0{fill:none;stroke:#CCEBF8;stroke-width:4;stroke-miterlimit:10;}
	.st1{fill:#FAA93B;}
	.st2{fill:#429B7F;}
	.st3{fill:#EFE416;}
	.st4{fill:#B53628;}
	.st5{fill:url(#XMLID_5_);}
	.st6{fill:url(#XMLID_6_);}
	.st7{fill:#EFD620;}
	.st8{fill:url(#XMLID_7_);}
	.st9{fill:url(#XMLID_8_);}
	.st10{fill:url(#XMLID_9_);}
	.st11{fill:url(#XMLID_10_);}
	.st12{fill:url(#XMLID_11_);}
	.st13{fill:url(#XMLID_12_);}
	.st14{fill:url(#XMLID_13_);}
	.st15{fill:url(#XMLID_14_);}
	.st16{fill:url(#XMLID_15_);}
	.st17{fill:url(#XMLID_16_);}
	.st18{fill:url(#XMLID_17_);}
	.st19{fill:#2877A3;}
	.st20{fill:#3A95B5;}
</style>
<g id="Layer_1_4_">
	<g id="Layer_1_3_">
		<g id="Layer_1_2_">
			<g id="Layer_1_1_">
				<circle id="XMLID_1_" class="st0" cx="54" cy="76" r="62"/>
			</g>
			<g id="Layer_2">
				<circle id="XMLID_2_" class="st1" cx="54" cy="76" r="52.5"/>
			</g>
		</g>
	</g>
</g>
<g id="Layer_2_1_">
	<path id="XMLID_67_" class="st2" d="M38.3,84.9c0,0,0.2-0.9,0.4-1.2c0.2-0.3,0.2-0.5,0.2-0.3C39,83.6,38.3,84.9,38.3,84.9
		L38.3,84.9z M36.7,86.7c-1,1-2.1,1.7-2.7,1c-0.7-0.7-1.1-1.9-1.3-3.3c-0.1-0.4-0.1-0.9-0.1-1.3c0.2-0.2,0.5-0.6,0.6-0.9
		c0.3-0.5,0.6-1,0.8-1.5c0.2-0.5,0.3-1,0.2-1.2c-0.1-0.5-0.3-0.7-0.8-0.6c-0.2,0-0.5,0.2-0.7,0.4c-0.4,0.4-0.7,1.2-0.9,2.2
		c-0.1,0.4-0.2,0.9-0.2,1.4c-1,1.2-2.4,2.2-3.4,1.4c-1-0.6-1.6-2-1.9-3.4c-0.5-2.2-0.4-4.7-0.1-5.4l-0.8-0.3c-0.3,0.9-0.6,3.6,0,6
		c0.4,1.6,1.1,3.1,2.3,4c1.3,0.9,2.7,0.2,3.9-1c0,0.2,0,0.3,0.1,0.6c0.2,1.4,0.6,2.9,1.5,3.8c1.1,1,2.6,0.2,3.9-1.1
		c0.1-0.1,0.2-0.2,0.2-0.2c0.1,1,0.2,1.9,0.6,2.8c0.2,0.5,0.4,1,0.6,1.4c0.6,0.8,1.3,1.1,2.1,1.1c0.6,0,1-0.2,1.5-0.5
		c0.3-0.2,0.6-0.4,1-0.7c0.2,1.1,0.7,2.2,1.4,3c1,1.3,2.5,1.8,4.5,0.2c0.8-0.6,2.1-0.4,3-0.1l-0.2-1c-1.1-0.3-2.4-0.4-3.3,0.4
		c-1.5,1.2-2.6,0.9-3.4-0.1c-0.6-0.8-1-2.1-1.3-3.3c0.6-0.8,0.9-1.8,0.6-2.6c-0.3-1-0.7-1.4-1.1-1.2c-0.5,0.2-0.6,1.5-0.4,3.2
		c0,0.2,0,0.2,0.1,0.4l-0.1,0.1c-0.3,0.3-0.7,0.6-1.1,0.9c-0.4,0.2-0.8,0.3-1.2,0.4c-0.5,0-1-0.2-1.4-0.7c-0.2-0.3-0.4-0.7-0.6-1.2
		c-0.4-1.1-0.6-2.3-0.6-3.4c0.3-0.4,0.6-0.9,0.8-1.3c0.5-0.9,0.7-1.7,0.6-2c-0.2-0.3-0.4-0.5-0.8-0.3c-0.1,0-0.2,0.1-0.2,0.2
		c-0.7,0.5-1.1,1.6-1.2,3v0.2C37.2,86,36.9,86.3,36.7,86.7L36.7,86.7z M33.3,80.5c-0.2,0.3-0.3,0.6-0.5,1c0.2-0.7,0.4-1.3,0.6-1.6
		l0.1-0.1C33.5,80,33.4,80.2,33.3,80.5L33.3,80.5z M43.8,88.9c-0.1-0.9-0.2-1.5-0.1-1.6C43.9,87.2,43.9,88.6,43.8,88.9z"/>
	<path id="XMLID_3_" class="st3" d="M72.3,60.3c0,0-1.5,0.4-1.7,0.3c-0.2-0.1,0-0.2,0.4-0.2C71.4,60.3,72.3,60.3,72.3,60.3
		L72.3,60.3z M74.4,59.1c-0.3,0.2-0.7,0.4-1,0.6h-0.2c-1.4-0.2-2.6-0.1-3.2,0.5c-0.1,0.1-0.2,0.2-0.2,0.2c-0.2,0.4-0.2,0.6,0.1,0.9
		c0.3,0.2,1.1,0.2,2.1-0.2c0.5-0.2,1-0.3,1.4-0.6c1.1,0.2,2.2,0.7,3.3,1.4c0.4,0.2,0.7,0.6,1,0.8c0.5,0.5,0.6,1,0.4,1.5
		c-0.1,0.4-0.3,0.7-0.6,1c-0.3,0.3-0.7,0.6-1.1,0.9l-0.1,0.1c-0.2-0.2-0.3-0.2-0.4-0.2c-1.5-0.6-3-0.7-3.2-0.3
		c-0.2,0.3,0,0.8,0.9,1.4c0.7,0.5,1.8,0.4,2.6,0c1.1,0.5,2.2,1.2,2.9,2c0.7,1,0.8,2.1-0.7,3.3c-1,0.7-1.1,2-1.1,3.1l0.9,0.5
		c-0.1-1-0.1-2.3,0.8-3c2-1.6,1.9-3.2,0.9-4.5c-0.6-0.8-1.6-1.4-2.6-2c0.3-0.2,0.6-0.5,0.9-0.8c0.4-0.4,0.6-0.9,0.8-1.4
		c0.2-0.8,0.1-1.6-0.6-2.3c-0.3-0.3-0.7-0.6-1.1-1c-0.8-0.5-1.7-1-2.6-1.2c0.1-0.1,0.2-0.1,0.2-0.2c1.6-1,2.7-2.2,1.9-3.5
		c-0.6-1-1.9-1.8-3.3-2.3c-0.2-0.1-0.3-0.1-0.5-0.2c1.4-0.9,2.4-2.2,1.8-3.6c-0.5-1.4-1.8-2.4-3.4-3.1c-2.2-1.1-4.9-1.5-5.8-1.4
		l0.2,0.8c0.8-0.2,3.3,0.3,5.3,1.3c1.4,0.6,2.5,1.5,2.9,2.7s-0.8,2.2-2.2,3c-0.3,0-0.8-0.1-1.2-0.1c-1-0.1-1.8,0.1-2.3,0.4
		c-0.2,0.2-0.5,0.4-0.6,0.6c-0.2,0.5,0,0.8,0.5,1c0.3,0.1,0.7,0.1,1.3,0c0.5-0.1,1-0.2,1.6-0.5c0.3-0.2,0.6-0.2,1-0.4
		c0.4,0.1,0.9,0.2,1.3,0.4c1.2,0.5,2.3,1.1,2.9,2C76.5,57.5,75.6,58.4,74.4,59.1L74.4,59.1z M69.2,54.4c-0.3,0.1-0.6,0.1-0.7,0.1
		l0.1-0.1c0.3-0.2,1-0.3,1.7-0.2C69.8,54.3,69.5,54.3,69.2,54.4L69.2,54.4z M73.3,66.2c0.1-0.1,0.6,0.1,1.5,0.4
		C74.6,66.6,73.2,66.3,73.3,66.2z"/>
	<g id="XMLID_33_">
		<polygon id="XMLID_1089_" class="st4" points="74.9,69.3 75.6,71.7 74.4,72.9 73.6,70.4 		"/>
		<polygon id="XMLID_1081_" class="st4" points="69.6,67.7 70.9,68 70.2,69.4 		"/>
		
			<linearGradient id="XMLID_5_" gradientUnits="userSpaceOnUse" x1="25.2394" y1="74.9611" x2="25.2394" y2="73.163" gradientTransform="matrix(0.864 -0.5035 -0.5035 -0.864 70.4316 162.0399)">
			<stop  offset="0.4894" style="stop-color:#FC8B60"/>
			<stop  offset="0.6344" style="stop-color:#FA855A"/>
			<stop  offset="0.8325" style="stop-color:#F67448"/>
			<stop  offset="1" style="stop-color:#F16034"/>
		</linearGradient>
		<polygon id="XMLID_436_" class="st5" points="54.2,84.7 55.5,85 54.8,86.4 		"/>
		<polygon id="XMLID_439_" class="st4" points="42.6,76.6 43.8,76.9 43.2,78.4 		"/>
		
			<linearGradient id="XMLID_6_" gradientUnits="userSpaceOnUse" x1="11.0029" y1="79.4345" x2="11.0029" y2="77.638" gradientTransform="matrix(0.864 -0.5035 -0.5035 -0.864 70.4316 162.0399)">
			<stop  offset="0.4894" style="stop-color:#FC8B60"/>
			<stop  offset="0.6344" style="stop-color:#FA855A"/>
			<stop  offset="0.8325" style="stop-color:#F67448"/>
			<stop  offset="1" style="stop-color:#F16034"/>
		</linearGradient>
		<polygon id="XMLID_438_" class="st6" points="39.8,87.9 41,88.3 40.3,89.8 		"/>
		<polygon id="XMLID_1071_" class="st7" points="57.9,61.1 60.1,62.8 59.6,64.4 57.8,62.9 		"/>
		<polygon id="XMLID_1069_" class="st7" points="52.5,49.6 53.4,50.9 52.4,51.8 51.5,50.6 		"/>
		<polygon id="XMLID_1068_" class="st7" points="46.3,40.3 46.7,41.9 45.4,42.2 45,40.8 		"/>
		
			<linearGradient id="XMLID_7_" gradientUnits="userSpaceOnUse" x1="38.2712" y1="87.1517" x2="38.2712" y2="83.7458" gradientTransform="matrix(0.864 -0.5035 -0.5035 -0.864 70.4316 162.0399)">
			<stop  offset="0.5738" style="stop-color:#9DBF9F"/>
			<stop  offset="0.8929" style="stop-color:#72A376"/>
		</linearGradient>
		<polygon id="XMLID_1066_" class="st8" points="61.7,68.6 61.7,70.2 59.4,69.6 59,67.9 		"/>
		<polygon id="XMLID_1065_" class="st7" points="65.1,77.2 65.9,79.9 64.5,80.8 63.9,78.5 		"/>
		
			<linearGradient id="XMLID_8_" gradientUnits="userSpaceOnUse" x1="32.7282" y1="91.96" x2="32.7282" y2="90.3589" gradientTransform="matrix(0.864 -0.5035 -0.5035 -0.864 70.4316 162.0399)">
			<stop  offset="0.5738" style="stop-color:#9DBF9F"/>
			<stop  offset="0.8929" style="stop-color:#72A376"/>
		</linearGradient>
		<polygon id="XMLID_1059_" class="st9" points="53,65.8 53.4,67.3 52.6,67.8 52.3,66.6 		"/>
		
			<linearGradient id="XMLID_9_" gradientUnits="userSpaceOnUse" x1="23.0319" y1="71.5355" x2="23.0319" y2="69.9345" gradientTransform="matrix(0.864 -0.5035 -0.5035 -0.864 70.4316 162.0399)">
			<stop  offset="0.5738" style="stop-color:#9DBF9F"/>
			<stop  offset="0.8929" style="stop-color:#72A376"/>
		</linearGradient>
		<polygon id="XMLID_435_" class="st10" points="54.9,88.3 55.4,89.9 54.6,90.3 54.2,89.1 		"/>
		<polygon id="XMLID_1058_" class="st4" points="56.4,72.9 56.4,75.4 55,74.5 		"/>
		<polygon id="XMLID_1057_" class="st4" points="59.7,78.7 60.5,79.9 59.1,80.9 58.5,79.7 		"/>
		<polygon id="XMLID_1054_" class="st7" points="51.5,65.8 50.9,68.6 49.2,68.7 49.8,66.5 		"/>
		<polygon id="XMLID_1039_" class="st4" points="41.4,58.6 41.7,60.2 40.4,60.5 40,59.1 		"/>
		
			<linearGradient id="XMLID_10_" gradientUnits="userSpaceOnUse" x1="22.395" y1="90.3589" x2="22.395" y2="89.0043" gradientTransform="matrix(0.864 -0.5035 -0.5035 -0.864 70.4316 162.0399)">
			<stop  offset="0.5738" style="stop-color:#9DBF9F"/>
			<stop  offset="0.8929" style="stop-color:#72A376"/>
		</linearGradient>
		<polygon id="XMLID_1031_" class="st11" points="44.8,72.4 45.8,73.4 44.2,74.4 44.3,73.3 		"/>
		<polygon id="XMLID_1030_" class="st7" points="43,69.3 42.5,70.7 41.2,69.3 		"/>
		
			<linearGradient id="XMLID_11_" gradientUnits="userSpaceOnUse" x1="19.1384" y1="115.4743" x2="19.1384" y2="113.6404" gradientTransform="matrix(0.864 -0.5035 -0.5035 -0.864 70.4316 162.0399)">
			<stop  offset="0.5738" style="stop-color:#9DBF9F"/>
			<stop  offset="0.8929" style="stop-color:#72A376"/>
		</linearGradient>
		<polygon id="XMLID_1027_" class="st12" points="29.7,52.4 30.1,54 28.8,54.3 28.4,52.9 		"/>
		
			<linearGradient id="XMLID_12_" gradientUnits="userSpaceOnUse" x1="19.2711" y1="101.1991" x2="19.2711" y2="99.9278" gradientTransform="matrix(0.864 -0.5035 -0.5035 -0.864 70.4316 162.0399)">
			<stop  offset="0.5738" style="stop-color:#9DBF9F"/>
			<stop  offset="0.8929" style="stop-color:#72A376"/>
		</linearGradient>
		<polygon id="XMLID_1026_" class="st13" points="35.7,65.1 37.3,65.7 36.2,66.3 		"/>
		
			<linearGradient id="XMLID_13_" gradientUnits="userSpaceOnUse" x1="11.6814" y1="91.0354" x2="11.6814" y2="89.764" gradientTransform="matrix(0.864 -0.5035 -0.5035 -0.864 70.4316 162.0399)">
			<stop  offset="0.5738" style="stop-color:#9DBF9F"/>
			<stop  offset="0.8929" style="stop-color:#72A376"/>
		</linearGradient>
		<polygon id="XMLID_440_" class="st14" points="34.3,77.7 35.9,78.3 34.8,78.9 		"/>
		<polygon id="XMLID_1024_" class="st7" points="41.2,73.8 41.8,74.8 40.1,75.7 40.1,73.8 		"/>
	</g>
	<g id="XMLID_32_">
		
			<linearGradient id="XMLID_14_" gradientUnits="userSpaceOnUse" x1="57.5133" y1="125.897" x2="57.5133" y2="108.8831" gradientTransform="matrix(0.3123 -1.2494 -1.2283 -0.3071 181.4427 163.7637)">
			<stop  offset="0.1377" style="stop-color:#FC6460"/>
			<stop  offset="1" style="stop-color:#EF3A4B"/>
		</linearGradient>
		<path id="XMLID_1091_" class="st15" d="M47.5,42.5l1.4-1.2c0.3,0.2,1.4,0.7,1.5,1.8c0.1,0.7-0.3,1.3-0.7,1.9
			c-0.9,1.4-1.8,1.6-1.8,2.5c0,0.1,0,0.4,0.2,0.8c0.9,1.4,3.8-0.4,6.6,0.8c0.2,0.1,2.6,1.1,3,3.4c0.4,2.1-1.1,4-1.4,4.2
			c-0.3,0.4-1.1,1.3-1.9,2c-0.7,0.7-1,0.9-1.1,1.3c-0.3,1,0,2.2,0.8,2.8c0.6,0.4,1.2,0.2,2,0.2c2.1-0.1,4.4,1,5.5,2.5
			c1.4,1.8,1.1,4.1,1,4.9h-1.8c0.1-0.7,0.1-2-0.5-3.4c-0.2-0.5-0.6-1.4-1.4-2.1c-1-0.8-2.1-1-3.4-1.2c-2.2-0.4-3.3,0.1-4.1-0.7
			c-0.1-0.1-0.6-0.6-0.6-1.4c0-1,0.7-1.8,1-2.1c0.3-0.3,0.6-0.5,0.9-0.7c1.6-1.1,2.5-1.8,3-2.8c0.1-0.2,0.6-1.2,0.2-2.3
			c-0.2-1-1-1.6-1.4-2c-1.4-1.2-3-1.4-3.4-1.4c-1.3-0.2-1.8,0.2-2.8-0.3c-0.7-0.4-1.1-1-1.2-1.1C47,48,47,47.3,47,47.1
			c0-0.8,0.3-1.4,0.6-1.8c0.5-1,1-1.2,0.9-1.7C48.5,43.3,48.3,42.9,47.5,42.5z"/>
		
			<linearGradient id="XMLID_15_" gradientUnits="userSpaceOnUse" x1="48.1518" y1="126.3382" x2="48.1518" y2="116.2931" gradientTransform="matrix(0.3123 -1.2494 -1.2283 -0.3071 181.4427 163.7637)">
			<stop  offset="0.5738" style="stop-color:#9DBF9F"/>
			<stop  offset="0.8929" style="stop-color:#72A376"/>
		</linearGradient>
		<path id="XMLID_1061_" class="st16" d="M41.5,64c1.2-1,2.5-1.6,3.8-1.2c2.7,0.9,6.5,2.9,7.7,7.3c0.1,0.2,0.1,0.3,0.1,0.5
			c-0.7-0.2-1.4-0.3-1.9-0.4c-0.7-1.9-2.6-4.3-5.1-5.7C44.3,63.7,42.8,63.6,41.5,64z"/>
		
			<linearGradient id="XMLID_16_" gradientUnits="userSpaceOnUse" x1="45.5458" y1="134.8219" x2="45.5458" y2="126.3382" gradientTransform="matrix(0.3123 -1.2494 -1.2283 -0.3071 181.4427 163.7637)">
			<stop  offset="0.5738" style="stop-color:#9DBF9F"/>
			<stop  offset="0.8929" style="stop-color:#72A376"/>
		</linearGradient>
		<path id="XMLID_1052_" class="st17" d="M38.2,65.9c0.7-0.8,1.9-1.6,3.3-1.9c-1.4,1.1-2.6,2.8-3.6,3.8c-1.8,2-3.7,3.4-6.3,2.2
			c-2.6-1.2-1.4-5.3-1.4-5.3s0.6,3,2.8,3.4C35.1,68.6,36.8,67.4,38.2,65.9z"/>
		
			<linearGradient id="XMLID_17_" gradientUnits="userSpaceOnUse" x1="44.3336" y1="119.8049" x2="44.3336" y2="112.2221" gradientTransform="matrix(0.3123 -1.2494 -1.2283 -0.3071 181.4427 163.7637)">
			<stop  offset="0.5738" style="stop-color:#9DBF9F"/>
			<stop  offset="0.8929" style="stop-color:#72A376"/>
		</linearGradient>
		<path id="XMLID_1042_" class="st18" d="M53,72.1c-0.4,1.9-2.5,2.4-3.4,2.1c-1.5-0.6-1.9-1.9-1-3.2c0.3-0.5,1.3-0.8,2.6-0.7
			c0.6,0,1.3,0.2,1.9,0.4c1.5,0.5,3.2,1.5,4.5,3.2l-1.8,1.5c0,0-0.7-1.8-1.8-2.7C53.5,72.4,53.3,72.2,53,72.1z M51.3,71.7
			c-0.6-0.1-1.2-0.1-1.5,0.1c-0.5,0.2-1.3,1.4,0.1,1.7c0.6,0.2,1-0.4,1.3-0.9C51.2,72.2,51.3,71.9,51.3,71.7z"/>
	</g>
	<g id="XMLID_404_">
		<path id="XMLID_411_" class="st19" d="M77.5,105.9l-20.3-14L37.1,78.1c-0.2-0.1-0.2-0.1-0.3-0.2c-0.9-1.3,4.9-6.8,12.9-12.3
			c8.1-5.5,15.2-8.9,16.1-7.7c0.1,0.1,0.1,0.2,0.1,0.4L71.6,82L77.5,105.9z"/>
		<path id="XMLID_410_" class="st20" d="M48.5,85.9c1-6.8,5-13.5,11.7-18c2.3-1.6,4.8-2.8,7.3-3.6l-0.7-2.9
			C56.2,63.8,47.3,73.2,45.5,84L48.5,85.9z"/>
		<path id="XMLID_409_" class="st20" d="M53,89l2.9,2c1.8-7.6,7-14,13.8-17.6l-0.7-3C61.2,73.7,55,80.8,53,89z"/>
		<path id="XMLID_408_" class="st20" d="M71.1,79.3c-5.5,3.8-9.2,9.1-10.8,14.8l2.9,2c1.3-4.9,4.3-9.7,8.7-13.5L71.7,82L71.1,79.3z"
			/>
		<path id="XMLID_407_" class="st20" d="M73.5,89.3c-2.6,3.1-4.4,6.6-5.3,10.2l2.9,2c0.6-2.8,1.8-5.4,3.4-8L73.5,89.3z"/>
	</g>
</g>
</svg>
