<?xml version="1.0" encoding="utf-8"?>
<!-- Generator: Adobe Illustrator 19.0.0, SVG Export Plug-In . SVG Version: 6.00 Build 0)  -->
<svg version="1.1" id="Layer_1" xmlns="http://www.w3.org/2000/svg" xmlns:xlink="http://www.w3.org/1999/xlink" x="0px" y="0px"
	 viewBox="0 0 128 128" style="enable-background:new 0 0 128 128;" xml:space="preserve">
<style type="text/css">
	.st0{fill:none;stroke:#CCEBF8;stroke-width:4;stroke-miterlimit:10;}
	.st1{fill:#80397B;}
	.st2{fill:#F4EDE4;}
	.st3{opacity:0.5;}
	.st4{fill:none;stroke:#D8D8D8;stroke-miterlimit:10;}
	.st5{opacity:0.3;fill:#C6C6C6;fill-opacity:0.7769;enable-background:new    ;}
	.st6{fill:#C6C6C6;}
	.st7{opacity:0.1;}
	.st8{fill:#9AA541;}
	.st9{fill:#A9B355;}
	.st10{fill:#C4422C;}
	.st11{fill:#A21E1E;}
	.st12{fill:#BE3E2C;}
	.st13{fill:#C96441;}
	.st14{fill:#DA8D5B;}
	.st15{fill:#D28144;}
	.st16{fill:#CC7432;}
	.st17{opacity:0.15;}
	.st18{fill:#785B56;}
	.st19{clip-path:url(#XMLID_5_);fill:none;stroke:#BC755B;stroke-width:0.9505;stroke-miterlimit:10;}
	.st20{fill:#EBD8C7;}
	.st21{fill:#DBB38F;}
	.st22{clip-path:url(#SVGID_2_);}
	.st23{fill:#985741;}
</style>
<g id="Layer_1_2_">
	<g id="Layer_1_1_">
		<circle id="XMLID_1_" class="st0" cx="64" cy="64" r="62"/>
	</g>
	<g id="Layer_2">
		<circle id="XMLID_2_" class="st1" cx="64" cy="64" r="52.5"/>
	</g>
</g>
<g id="Layer_2_1_">
	<g>
		<ellipse class="st2" cx="60.8" cy="65.3" rx="25.4" ry="24.9"/>
		<g class="st3">
		</g>
		<ellipse class="st4" cx="60.9" cy="65.2" rx="20" ry="19.4"/>
		<g>
			<path id="path3811_1_" class="st5" d="M108.1,48.6C108.1,48.7,108,48.7,108.1,48.6C108,48.7,107.9,48.6,108.1,48.6
				c-0.1-0.2,0-0.2,0-0.2C108.1,48.5,108.1,48.5,108.1,48.6z"/>
			<g>
				<path id="path3688_1_" class="st6" d="M89.2,65.6c0,10-2.2,16-1,19.5c0.6,1.6,3.2,1.5,3.6,0c1-3.4-0.9-8.5-0.8-19.4
					c0-1.6,2.1-0.6,2.2-6.6c0-6.1-0.8-14.6-4.2-14.6c0,4.5-0.5,10.9-0.5,16.8C88.6,63.8,89.2,64.4,89.2,65.6L89.2,65.6z"/>
			</g>
			<g>
				<path id="path3642_1_" class="st6" d="M29.1,61.2c0,11.3-2.1,17-0.9,21.6c0.5,1.9,3.1,1.6,3.5,0c1.1-4.3-0.9-10.7-0.9-21.7
					c0-1.5,1.4-1,2.2-2.9c0.6-1.7-0.3-11.6-0.5-11.6c-0.4,0-0.2,8.1-0.8,8.1s-0.4-8-0.7-8.1c-0.5-0.1-0.1,8.1-0.9,8.1
					s-0.3-8.1-0.7-8.1c-0.5,0-0.3,8.1-1,8.1s-0.4-8.1-0.6-8.1c-0.5,0-1.2,9.4-0.8,11.3C27.1,59.5,29.1,59.4,29.1,61.2L29.1,61.2z"/>
			</g>
			<g>
				<path id="path3686_1_" class="st6" d="M97.6,62.6c0,11.3-2.2,18.3-0.9,22.2c0.5,1.9,3.1,1.6,3.5,0c1-3.8-0.9-11.2-0.9-22.2
					c0-1.3,3.8-1.2,3.8-5.6c0-5.5-2.5-8.8-4.7-8.8c-2.2,0-4.5,3.7-4.5,8.8C93.9,61.2,97.6,61.5,97.6,62.6L97.6,62.6z"/>
			</g>
		</g>
	</g>
</g>
<g>
	<g>
		<g>
			<g>
				<g class="st7">
					<path d="M69.6,61.1c0.3-0.1,0.2-0.1,0.1-0.6c0-0.2-0.5-0.4-0.5-0.6c-0.1-0.2,0.3-0.6,0.2-0.8c-0.1-0.2-0.5-0.4-0.5-0.6
						c-0.1-0.2,0.2-0.6,0.2-0.8c-0.1-0.2-0.5-0.4-0.6-0.6c-0.1-0.2,0.2-0.6,0.1-0.8C68.5,56,68,55.9,68,55.7c-0.1-0.3,0.1-0.8-0.1-1
						c-0.2-0.3-0.7-0.3-0.9-0.5c-0.2-0.2-0.3-0.7-0.6-0.8c-0.3-0.1-0.7,0.2-1,0.2c-0.3,0-0.7-0.3-1-0.2c-0.3,0.1-0.4,0.6-0.6,0.8
						c-0.2,0.2-0.7,0.1-0.9,0.4c-0.2,0.2,0,0.7-0.2,1c-0.3,0.5-0.8,0.8-1,1.2c-0.2,0.5,0.1,1,0.2,1.4c0.1,0.4,0.1,1,0.6,1.3
						c0.3,0.2,0.9,0.1,1.5,0.3c0.4,0.1,0.7,0.7,1.3,0.8c0.4,0.1,1-0.1,1.5,0c0.4,0.1,0.8,0.6,1.3,0.6C68.6,61.3,69.1,61,69.6,61.1"
						/>
				</g>
				<g>
					<path class="st8" d="M69.6,61.4c0.3-0.1,0.2-0.1,0.1-0.6c0-0.2-0.5-0.4-0.5-0.6c-0.1-0.2,0.3-0.6,0.2-0.8
						c-0.1-0.2-0.5-0.4-0.5-0.6c-0.1-0.2,0.2-0.6,0.2-0.8c-0.1-0.2-0.5-0.4-0.6-0.6c-0.1-0.2,0.2-0.6,0.1-0.8
						c-0.1-0.3-0.5-0.4-0.6-0.6c-0.1-0.3,0.1-0.8-0.1-1c-0.2-0.3-0.7-0.3-0.9-0.5c-0.2-0.2-0.3-0.7-0.6-0.8c-0.3-0.1-0.7,0.2-1,0.2
						c-0.3,0-0.7-0.3-1-0.2c-0.3,0.1-0.4,0.6-0.6,0.8c-0.2,0.2-0.7,0.1-0.9,0.4c-0.2,0.2,0,0.7-0.2,1c-0.3,0.5-0.8,0.8-1,1.2
						c-0.2,0.5,0.1,1,0.2,1.4c0.1,0.4,0.1,1,0.6,1.3c0.3,0.2,0.9,0.1,1.5,0.3c0.4,0.1,0.7,0.7,1.3,0.8c0.4,0.1,1-0.1,1.5,0
						c0.4,0.1,0.8,0.6,1.3,0.6C68.7,61.6,69.1,61.4,69.6,61.4"/>
				</g>
			</g>
		</g>
		<path class="st9" d="M63.6,55.6c0,0,0.1,0.1,0.2,0.2c0,0.1,0.1,0.1,0.2,0.2c0.1,0.1,0.2,0.2,0.2,0.3c0.1,0.1,0.2,0.2,0.3,0.4
			c0.1,0.1,0.2,0.3,0.3,0.4c0.1,0.1,0.2,0.3,0.4,0.4c0.1,0.1,0.3,0.3,0.4,0.4c0.1,0.1,0.3,0.3,0.4,0.4c0.1,0.1,0.3,0.3,0.4,0.4
			c0.1,0.1,0.2,0.3,0.4,0.4c0.1,0.1,0.2,0.2,0.3,0.3c0.2,0.2,0.4,0.4,0.5,0.5c0.1,0.1,0.2,0.2,0.2,0.2s-0.1-0.1-0.2-0.2
			c-0.1-0.1-0.3-0.3-0.5-0.4c-0.1-0.1-0.2-0.2-0.3-0.3c-0.1-0.1-0.2-0.2-0.4-0.4c-0.1-0.1-0.3-0.3-0.4-0.4c-0.1-0.1-0.3-0.3-0.4-0.4
			c-0.1-0.1-0.3-0.3-0.4-0.4c-0.1-0.1-0.2-0.3-0.4-0.4c-0.1-0.1-0.2-0.3-0.3-0.4c-0.1-0.1-0.2-0.3-0.3-0.4c-0.2-0.2-0.3-0.4-0.4-0.6
			C63.7,55.7,63.6,55.6,63.6,55.6"/>
	</g>
	<g>
		<g>
			<g>
				<g class="st7">
					<path d="M51.5,54.1c-0.1,0.4,0,0.2,0.4,0.4c0.2,0.1,0.6-0.2,0.8-0.1c0.2,0.1,0.3,0.5,0.6,0.6c0.2,0.1,0.6-0.2,0.8-0.1
						c0.2,0.1,0.4,0.5,0.6,0.6c0.2,0.1,0.6-0.2,0.8-0.1c0.2,0.1,0.4,0.5,0.6,0.6c0.3,0.1,0.6-0.2,0.8-0.2c0.3,0.1,0.6,0.5,0.9,0.5
						c0.3,0,0.6-0.4,0.9-0.5c0.3-0.1,0.7,0.1,1,0c0.3-0.2,0.2-0.7,0.4-0.9c0.2-0.3,0.6-0.4,0.7-0.7c0.1-0.3-0.3-0.6-0.3-1
						c0-0.3,0.3-0.7,0.2-1c-0.1-0.3-0.6-0.4-0.7-0.7c-0.3-0.5-0.2-1.1-0.5-1.4c-0.3-0.4-0.9-0.5-1.3-0.6c-0.4-0.1-0.9-0.4-1.4-0.2
						c-0.4,0.2-0.6,0.7-1.1,1.1c-0.3,0.3-0.9,0.3-1.3,0.6c-0.3,0.3-0.4,0.9-0.8,1.3c-0.3,0.3-0.9,0.4-1.3,0.8
						C51.9,53.2,51.9,53.8,51.5,54.1"/>
				</g>
				<g>
					<path class="st8" d="M51.6,54.5c-0.1,0.4,0,0.2,0.4,0.4c0.2,0.1,0.6-0.2,0.8-0.1c0.2,0.1,0.3,0.5,0.6,0.6
						c0.2,0.1,0.6-0.2,0.8-0.1c0.2,0.1,0.4,0.5,0.6,0.6c0.2,0.1,0.6-0.2,0.8-0.1c0.2,0.1,0.4,0.5,0.6,0.6c0.3,0.1,0.6-0.2,0.8-0.2
						c0.3,0.1,0.6,0.5,0.9,0.5c0.3,0,0.6-0.4,0.9-0.5c0.3-0.1,0.7,0.1,1,0c0.3-0.2,0.2-0.7,0.4-0.9c0.2-0.3,0.6-0.4,0.7-0.7
						c0.1-0.3-0.3-0.6-0.3-1c0-0.3,0.3-0.7,0.2-1c-0.1-0.3-0.6-0.4-0.7-0.7c-0.3-0.5-0.2-1.1-0.5-1.4c-0.3-0.4-0.9-0.5-1.3-0.6
						c-0.4-0.1-0.9-0.4-1.4-0.2c-0.4,0.2-0.6,0.7-1.1,1.1c-0.3,0.3-0.9,0.3-1.3,0.6c-0.3,0.3-0.4,0.9-0.8,1.3
						c-0.3,0.3-0.9,0.4-1.3,0.8C51.9,53.6,51.9,54.1,51.6,54.5"/>
				</g>
			</g>
		</g>
		<path class="st9" d="M59.7,52.6c0,0-0.1,0-0.3,0c-0.1,0-0.2,0-0.3,0c-0.1,0-0.2,0-0.4,0c-0.1,0-0.3,0-0.5,0.1
			c-0.2,0-0.3,0-0.5,0.1c-0.2,0-0.4,0.1-0.5,0.1c-0.2,0-0.4,0.1-0.6,0.1c-0.2,0-0.4,0.1-0.6,0.1c-0.2,0-0.4,0.1-0.5,0.1
			c-0.2,0-0.3,0.1-0.5,0.1c-0.2,0-0.3,0.1-0.4,0.1c-0.3,0.1-0.5,0.1-0.7,0.2c-0.2,0-0.3,0.1-0.3,0.1s0.1,0,0.2-0.1
			c0.2,0,0.4-0.1,0.7-0.2c0.1,0,0.3-0.1,0.4-0.1c0.2,0,0.3-0.1,0.5-0.1c0.2,0,0.4-0.1,0.5-0.1c0.2,0,0.4-0.1,0.6-0.1
			c0.2,0,0.4-0.1,0.6-0.1c0.2,0,0.4,0,0.5-0.1c0.2,0,0.3,0,0.5,0c0.2,0,0.3,0,0.5,0c0.3,0,0.5,0,0.7,0
			C59.7,52.6,59.7,52.6,59.7,52.6"/>
	</g>
	<g>
		<g>
			<g>
				<g class="st7">
					<path d="M50.1,57.5c-0.2,0.3-0.1,0.2,0.3,0.5c0.2,0.1,0.6,0,0.8,0.1c0.2,0.1,0.2,0.6,0.4,0.7c0.2,0.1,0.6,0,0.8,0.1
						c0.2,0.1,0.2,0.6,0.4,0.7c0.2,0.1,0.6,0,0.8,0.1c0.2,0.1,0.2,0.6,0.4,0.7c0.2,0.1,0.6-0.1,0.8,0c0.3,0.2,0.4,0.6,0.7,0.7
						c0.3,0.1,0.7-0.2,1-0.2c0.3,0,0.7,0.3,1,0.3c0.3-0.1,0.4-0.6,0.7-0.8c0.2-0.2,0.7-0.2,0.9-0.5c0.1-0.3-0.1-0.7,0-1
						c0.1-0.3,0.5-0.6,0.4-0.9c0-0.3-0.4-0.6-0.5-0.9c-0.1-0.5,0.1-1.1,0-1.5c-0.2-0.5-0.7-0.7-1.1-1c-0.3-0.2-0.7-0.7-1.3-0.6
						c-0.4,0-0.8,0.5-1.3,0.7c-0.4,0.1-1,0-1.5,0.2c-0.4,0.2-0.7,0.7-1.1,1c-0.4,0.2-1,0.1-1.4,0.4C50.7,56.7,50.5,57.2,50.1,57.5"
						/>
				</g>
				<g>
					<path class="st8" d="M50.1,57.8c-0.2,0.3-0.1,0.2,0.3,0.5c0.2,0.1,0.6,0,0.8,0.1c0.2,0.1,0.2,0.6,0.4,0.7
						c0.2,0.1,0.6,0,0.8,0.1c0.2,0.1,0.2,0.6,0.4,0.7c0.2,0.1,0.6,0,0.8,0.1c0.2,0.1,0.2,0.6,0.4,0.7c0.2,0.1,0.6-0.1,0.8,0
						c0.3,0.2,0.4,0.6,0.7,0.7c0.3,0.1,0.7-0.2,1-0.2c0.3,0,0.7,0.3,1,0.3c0.3-0.1,0.4-0.6,0.7-0.8c0.2-0.2,0.7-0.2,0.9-0.5
						c0.1-0.3-0.1-0.7,0-1c0.1-0.3,0.5-0.6,0.4-0.9c0-0.3-0.4-0.6-0.5-0.9c-0.1-0.5,0.1-1.1,0-1.5c-0.2-0.5-0.7-0.7-1.1-1
						c-0.3-0.2-0.7-0.7-1.3-0.6c-0.4,0-0.8,0.5-1.3,0.7c-0.4,0.1-1,0-1.5,0.2c-0.4,0.2-0.7,0.7-1.1,1c-0.4,0.2-1,0.1-1.4,0.4
						C50.7,57.1,50.6,57.6,50.1,57.8"/>
				</g>
			</g>
		</g>
		<path class="st9" d="M58.5,58.4c0,0-0.1,0-0.3-0.1c-0.1,0-0.2,0-0.3-0.1c-0.1,0-0.2,0-0.4-0.1c-0.1,0-0.3-0.1-0.5-0.1
			c-0.2,0-0.3-0.1-0.5-0.1c-0.2,0-0.4-0.1-0.5-0.1c-0.2,0-0.4,0-0.6-0.1c-0.2,0-0.4-0.1-0.6-0.1c-0.2,0-0.4,0-0.5-0.1
			c-0.2,0-0.3,0-0.5-0.1c-0.2,0-0.3,0-0.5,0c-0.3,0-0.5,0-0.7-0.1c-0.2,0-0.3,0-0.3,0s0.1,0,0.3,0c0.2,0,0.4,0,0.7,0
			c0.1,0,0.3,0,0.5,0c0.2,0,0.3,0,0.5,0c0.2,0,0.4,0,0.6,0c0.2,0,0.4,0,0.6,0.1c0.2,0,0.4,0,0.6,0.1c0.2,0,0.4,0.1,0.5,0.1
			c0.2,0,0.3,0.1,0.5,0.1c0.2,0,0.3,0.1,0.4,0.1c0.3,0.1,0.5,0.1,0.7,0.2C58.4,58.4,58.5,58.4,58.5,58.4"/>
	</g>
	<g>
		<path class="st8" d="M68.6,52.3c0.1-0.3,0-0.2-0.4-0.5c-0.2-0.1-0.6,0.1-0.8,0c-0.2-0.1-0.2-0.6-0.5-0.7c-0.2-0.1-0.6,0.1-0.8,0
			c-0.2-0.1-0.3-0.6-0.5-0.7c-0.2-0.1-0.6,0.1-0.8,0c-0.2-0.1-0.3-0.6-0.5-0.6C64,49.8,63.7,50,63.5,50c-0.3-0.1-0.5-0.6-0.8-0.6
			c-0.3,0-0.6,0.3-0.9,0.4c-0.3,0-0.7-0.2-1-0.1c-0.3,0.1-0.3,0.6-0.5,0.8c-0.2,0.2-0.7,0.3-0.8,0.6c-0.1,0.3,0.2,0.7,0.2,1
			c0,0.3-0.4,0.6-0.3,1c0.1,0.3,0.5,0.5,0.6,0.8c0.2,0.5,0,1.1,0.2,1.5c0.3,0.5,0.8,0.6,1.2,0.8c0.4,0.2,0.8,0.6,1.4,0.4
			c0.4-0.1,0.7-0.6,1.2-0.9c0.4-0.2,1-0.1,1.4-0.4c0.4-0.2,0.6-0.8,1-1.1c0.4-0.3,1-0.3,1.4-0.6C68.1,53.1,68.2,52.6,68.6,52.3"/>
		<path class="st9" d="M60.2,52.9c0,0,0.1,0,0.3,0c0.1,0,0.2,0,0.3,0c0.1,0,0.2,0,0.4,0c0.1,0,0.3,0,0.5,0c0.2,0,0.3,0,0.5,0
			c0.2,0,0.4,0,0.5,0c0.2,0,0.4,0,0.6,0c0.2,0,0.4,0,0.6,0c0.2,0,0.4,0,0.5,0c0.2,0,0.4,0,0.5,0c0.2,0,0.3,0,0.5,0
			c0.3,0,0.5,0,0.7,0c0.2,0,0.3,0,0.3,0s-0.1,0-0.3,0c-0.2,0-0.4,0.1-0.7,0.1c-0.1,0-0.3,0-0.5,0.1c-0.2,0-0.3,0-0.5,0
			c-0.2,0-0.4,0-0.6,0c-0.2,0-0.4,0-0.6,0c-0.2,0-0.4,0-0.6,0c-0.2,0-0.4,0-0.6,0c-0.2,0-0.4,0-0.5,0c-0.2,0-0.3,0-0.5,0
			c-0.3,0-0.5-0.1-0.7-0.1C60.3,52.9,60.2,52.9,60.2,52.9"/>
	</g>
	<g>
		<path class="st10" d="M58.8,53.5c-0.9-2-0.8-4.9,1.6-6c2.6-1.2,4.6,0.6,5.5,2.6L58.8,53.5z"/>
		<g>
			<g>
				<g class="st7">
					<path d="M59.1,53.7c-0.9-2,0-4.3,1.9-5.2c2-0.9,4.3-0.1,5.2,1.9L59.1,53.7z"/>
				</g>
				<g>
					<path class="st11" d="M58.8,53.5c-0.9-2,0-4.3,1.9-5.2c2-0.9,4.3-0.1,5.2,1.9L58.8,53.5z"/>
				</g>
			</g>
		</g>
		<path class="st12" d="M60.5,52.7c-0.4-0.8,0.1-1.8,1.1-2.3c1-0.5,2.2-0.3,2.6,0.6L60.5,52.7z"/>
		<g>
			<path class="st13" d="M64.2,50.3c0,0,0.5-0.1,0.3-0.3C64.5,49.9,64.3,49.8,64.2,50.3z"/>
			<path class="st13" d="M63.4,49.5c0,0,0.4-0.3,0.2-0.4C63.6,49.1,63.4,49.1,63.4,49.5z"/>
			<path class="st13" d="M62.6,49.4c0,0,0.1-0.5-0.1-0.4C62.5,48.9,62.3,49.1,62.6,49.4z"/>
			<path class="st13" d="M61.6,49.5c0,0,0.1-0.5-0.2-0.4C61.4,49.1,61.2,49.2,61.6,49.5z"/>
			<path class="st13" d="M60.8,50.1c0,0-0.2-0.5-0.4-0.2C60.4,49.8,60.4,50.1,60.8,50.1z"/>
			<path class="st13" d="M60.3,50.9c0,0-0.2-0.5-0.4-0.2C60,50.7,59.9,50.9,60.3,50.9z"/>
			<path class="st13" d="M60,52c0,0-0.4-0.3-0.5,0C59.6,51.9,59.6,52.2,60,52z"/>
		</g>
	</g>
	<g>
		<path class="st10" d="M67.8,52.3c1.5,1.6,2.3,4.4,0.3,6.2c-2.1,1.9-4.6,0.8-6.1-0.8L67.8,52.3z"/>
		<g>
			<g>
				<g class="st7">
					<path d="M67.5,52.2c1.5,1.6,1.3,4.1-0.2,5.6c-1.6,1.5-4.1,1.4-5.5-0.2L67.5,52.2z"/>
				</g>
				<g>
					<path class="st11" d="M67.8,52.3c1.5,1.6,1.3,4.1-0.2,5.6c-1.6,1.5-4.1,1.4-5.5-0.2L67.8,52.3z"/>
				</g>
			</g>
		</g>
		<path class="st12" d="M66.4,53.6c0.6,0.7,0.4,1.8-0.4,2.6c-0.8,0.8-2,0.9-2.6,0.2L66.4,53.6z"/>
		<g>
			<path class="st13" d="M63.6,57c0,0-0.4,0.3-0.2,0.4C63.4,57.4,63.6,57.4,63.6,57z"/>
			<path class="st13" d="M64.5,57.5c0,0-0.3,0.4-0.1,0.5C64.5,57.9,64.7,57.9,64.5,57.5z"/>
			<path class="st13" d="M65.4,57.4c0,0,0,0.5,0.3,0.4C65.6,57.8,65.8,57.5,65.4,57.4z"/>
			<path class="st13" d="M66.3,57c0,0,0.1,0.5,0.3,0.4C66.6,57.3,66.7,57.1,66.3,57z"/>
			<path class="st13" d="M66.9,56.2c0,0,0.4,0.4,0.4,0.1C67.3,56.3,67.3,56,66.9,56.2z"/>
			<path class="st13" d="M67.1,55.2c0,0,0.4,0.4,0.4,0.1C67.5,55.3,67.5,55.1,67.1,55.2z"/>
			<path class="st13" d="M67,54.1c0,0,0.5,0.2,0.4-0.1C67.5,54,67.3,53.8,67,54.1z"/>
		</g>
	</g>
	<g>
		<g>
			<g>
				<g class="st7">
					
						<ellipse transform="matrix(-0.9998 1.946878e-02 -1.946878e-02 -0.9998 140.7586 109.9192)" cx="69.8" cy="55.6" rx="2.2" ry="2.2"/>
				</g>
				<g>
					
						<ellipse transform="matrix(-0.9998 1.946878e-02 -1.946878e-02 -0.9998 140.8709 110.5841)" class="st14" cx="69.9" cy="56" rx="2.2" ry="2.2"/>
				</g>
			</g>
		</g>
		
			<ellipse transform="matrix(0.9998 -1.968263e-02 1.968263e-02 0.9998 -1.0882 1.3866)" class="st15" cx="69.9" cy="56" rx="1.6" ry="1.6"/>
		
			<ellipse transform="matrix(0.9998 -1.937930e-02 1.937930e-02 0.9998 -1.0717 1.3651)" class="st16" cx="69.9" cy="56" rx="0.6" ry="0.6"/>
	</g>
	<g>
		<g>
			<g>
				<g class="st7">
					<path d="M62.2,63.7c0.4,0.1,0.2,0,0.4-0.4c0.1-0.2-0.2-0.6-0.1-0.8c0.1-0.2,0.5-0.3,0.6-0.6c0.1-0.2-0.2-0.6-0.1-0.8
						c0.1-0.2,0.5-0.3,0.6-0.6c0.1-0.2-0.2-0.6-0.1-0.8c0.1-0.2,0.5-0.4,0.6-0.6c0.1-0.3-0.2-0.6-0.2-0.8c0.1-0.3,0.5-0.6,0.5-0.9
						c0-0.3-0.4-0.6-0.5-0.9c-0.1-0.3,0.1-0.7,0-1c-0.2-0.3-0.7-0.2-0.9-0.4c-0.2-0.2-0.4-0.6-0.7-0.7c-0.3-0.1-0.6,0.3-1,0.3
						c-0.3,0-0.7-0.3-1-0.2c-0.3,0.1-0.4,0.6-0.7,0.7c-0.5,0.3-1.1,0.2-1.4,0.4c-0.5,0.3-0.5,0.9-0.6,1.3c-0.1,0.4-0.5,0.9-0.2,1.4
						c0.2,0.4,0.7,0.6,1.1,1.1c0.2,0.3,0.3,1,0.6,1.4c0.3,0.3,0.9,0.4,1.3,0.8c0.3,0.3,0.4,0.9,0.8,1.3
						C61.4,63.4,61.9,63.4,62.2,63.7"/>
				</g>
				<g>
					<path class="st8" d="M62.3,64.1c0.4,0.1,0.2,0,0.4-0.4c0.1-0.2-0.2-0.6-0.1-0.8c0.1-0.2,0.5-0.3,0.6-0.6
						c0.1-0.2-0.2-0.6-0.1-0.8c0.1-0.2,0.5-0.3,0.6-0.6c0.1-0.2-0.2-0.6-0.1-0.8c0.1-0.2,0.5-0.4,0.6-0.6c0.1-0.3-0.2-0.6-0.2-0.8
						c0.1-0.3,0.5-0.6,0.5-0.9c0-0.3-0.4-0.6-0.5-0.9c-0.1-0.3,0.1-0.7,0-1c-0.2-0.3-0.7-0.2-0.9-0.4c-0.2-0.2-0.4-0.6-0.7-0.7
						c-0.3-0.1-0.6,0.3-1,0.3c-0.3,0-0.7-0.3-1-0.2c-0.3,0.1-0.4,0.6-0.7,0.7c-0.5,0.3-1.1,0.2-1.4,0.4c-0.5,0.3-0.5,0.9-0.6,1.3
						c-0.1,0.4-0.5,0.9-0.2,1.4c0.2,0.4,0.7,0.6,1.1,1.1c0.2,0.3,0.3,1,0.6,1.4c0.3,0.3,0.9,0.4,1.3,0.8c0.3,0.3,0.4,0.9,0.8,1.3
						C61.4,63.7,61.9,63.7,62.3,64.1"/>
				</g>
			</g>
		</g>
		<path class="st9" d="M60.6,55.9c0,0,0,0.1,0,0.3c0,0.1,0,0.2,0,0.3c0,0.1,0,0.2,0,0.4c0,0.1,0,0.3,0,0.5c0,0.2,0,0.3,0.1,0.5
			c0,0.2,0,0.4,0.1,0.5c0,0.2,0.1,0.4,0.1,0.6c0,0.2,0.1,0.4,0.1,0.6c0,0.2,0.1,0.4,0.1,0.5c0,0.2,0.1,0.3,0.1,0.5
			c0,0.2,0.1,0.3,0.1,0.5c0.1,0.3,0.1,0.5,0.1,0.7c0,0.2,0,0.3,0,0.3s0-0.1-0.1-0.3c0-0.2-0.1-0.4-0.2-0.7c0-0.1-0.1-0.3-0.1-0.4
			c0-0.2-0.1-0.3-0.1-0.5c0-0.2-0.1-0.4-0.1-0.5c0-0.2-0.1-0.4-0.1-0.6c0-0.2-0.1-0.4-0.1-0.6c0-0.2,0-0.4-0.1-0.5
			c0-0.2,0-0.3,0-0.5c0-0.2,0-0.3,0-0.5c0-0.3,0-0.5,0-0.7C60.6,56,60.6,55.9,60.6,55.9"/>
	</g>
	<g>
		<g>
			<g>
				<g class="st7">
					
						<ellipse transform="matrix(-0.9998 1.956286e-02 -1.956286e-02 -0.9998 116.8538 116.2964)" cx="57.9" cy="58.7" rx="2.2" ry="2.2"/>
				</g>
				<g>
					
						<ellipse transform="matrix(-0.9998 1.956286e-02 -1.956286e-02 -0.9998 116.9661 116.9614)" class="st14" cx="57.9" cy="59.1" rx="2.2" ry="2.2"/>
				</g>
			</g>
		</g>
		
			<ellipse transform="matrix(0.9998 -1.954647e-02 1.954647e-02 0.9998 -1.1432 1.1432)" class="st15" cx="57.9" cy="59.1" rx="1.6" ry="1.6"/>
		
			<ellipse transform="matrix(0.9998 -1.930829e-02 1.930829e-02 0.9998 -1.1294 1.1292)" class="st16" cx="57.9" cy="59.1" rx="0.6" ry="0.6"/>
	</g>
	<g>
		<path class="st10" d="M60.2,55.1c-0.6,2.1-2.5,4.3-5.1,3.5c-2.7-0.8-3.1-3.5-2.5-5.6L60.2,55.1z"/>
		<g>
			<g>
				<g class="st7">
					<path d="M60.1,54.8c-0.6,2.1-2.8,3.3-4.9,2.7c-2.1-0.6-3.3-2.7-2.7-4.8L60.1,54.8z"/>
				</g>
				<g>
					<path class="st11" d="M60.2,55.1c-0.6,2.1-2.8,3.3-4.9,2.7c-2.1-0.6-3.3-2.7-2.7-4.8L60.2,55.1z"/>
				</g>
			</g>
		</g>
		<path class="st12" d="M58.3,54.6c-0.2,0.9-1.3,1.3-2.4,1c-1.1-0.3-1.8-1.2-1.6-2.1L58.3,54.6z"/>
		<g>
			<path class="st13" d="M54,54c0,0-0.5-0.2-0.5,0.1C53.5,54.1,53.6,54.3,54,54z"/>
			<path class="st13" d="M54.1,55.1c0,0-0.5-0.1-0.4,0.2C53.6,55.3,53.8,55.5,54.1,55.1z"/>
			<path class="st13" d="M54.6,55.8c0,0-0.4,0.3-0.2,0.4C54.4,56.2,54.7,56.2,54.6,55.8z"/>
			<path class="st13" d="M55.4,56.3c0,0-0.4,0.3-0.2,0.4C55.3,56.8,55.6,56.8,55.4,56.3z"/>
			<path class="st13" d="M56.4,56.4c0,0-0.1,0.5,0.1,0.4C56.6,56.8,56.8,56.7,56.4,56.4z"/>
			<path class="st13" d="M57.3,56.1c0,0-0.1,0.5,0.1,0.4C57.5,56.5,57.7,56.3,57.3,56.1z"/>
			<path class="st13" d="M58.2,55.4c0,0,0.1,0.5,0.3,0.3C58.6,55.8,58.7,55.5,58.2,55.4z"/>
		</g>
	</g>
	<g>
		<g>
			<g>
				<g class="st7">
					
						<ellipse transform="matrix(-0.9998 1.957235e-02 -1.957235e-02 -0.9998 126.5806 108.0893)" cx="62.8" cy="54.7" rx="2.2" ry="2.2"/>
				</g>
				<g>
					
						<ellipse transform="matrix(-0.9998 1.957235e-02 -1.957235e-02 -0.9998 126.6929 108.7543)" class="st14" cx="62.8" cy="55" rx="2.2" ry="2.2"/>
				</g>
			</g>
		</g>
		
			<ellipse transform="matrix(0.9998 -1.953780e-02 1.953780e-02 0.9998 -1.0625 1.2377)" class="st15" cx="62.8" cy="55" rx="1.6" ry="1.6"/>
		
			<ellipse transform="matrix(0.9998 -1.956593e-02 1.956593e-02 0.9998 -1.064 1.2395)" class="st16" cx="62.8" cy="55" rx="0.6" ry="0.6"/>
	</g>
</g>
<g>
	<g>
		<g>
			<g class="st17">
				<path d="M46.7,72.5C48.5,59.2,62,63.4,64,64.2c2,0.8,6.9,1.9,10.5,2.7c3.6,0.8,3.5,3.2,3.5,3.2c-4.5-1.5-12.7,0.2-14.2,0.5
					c-1,0.2-1.3,0.9-1.4,1.3c0,0.2,0.2,1.3,1.6,1.5c1.5,0.2,9.8,1.3,14.2-0.5c0,0,0.2,2.4-3.3,3.5c-3.5,1.1-8.3,2.5-10.2,3.5
					C62.7,80.7,46.1,85.4,46.7,72.5"/>
			</g>
			<g>
				<path class="st18" d="M46.1,72.6c1.8-13.4,15.3-9.1,17.3-8.3c2,0.8,6.9,1.9,10.5,2.7c3.6,0.8,3.5,3.2,3.5,3.2
					c-4.5-1.5-12.7,0.2-14.2,0.5c-1,0.2-1.3,0.9-1.4,1.3c0,0.2,0.2,1.3,1.6,1.5c1.5,0.2,9.8,1.3,14.2-0.5c0,0,0.2,2.4-3.3,3.5
					c-3.5,1.1-8.3,2.5-10.2,3.5C62,80.8,45.4,85.4,46.1,72.6"/>
			</g>
		</g>
	</g>
	<g>
		<defs>
			<path id="XMLID_3_" d="M45.9,71.9c1.8-13.4,15.3-9.1,17.3-8.3c2,0.8,6.9,1.9,10.5,2.7c3.6,0.8,3.5,3.2,3.5,3.2
				C72.7,68,64.5,69.7,63,70c-1,0.2-1.3,0.9-1.4,1.3c0,0.2,0.2,1.3,1.6,1.5c1.5,0.2,9.8,1.3,14.2-0.5c0,0,0.2,2.4-3.3,3.5
				c-3.5,1.1-8.3,2.5-10.2,3.5C61.9,80,45.3,84.7,45.9,71.9"/>
		</defs>
		<use xlink:href="#XMLID_3_"  style="overflow:visible;fill:#BC755B;"/>
		<clipPath id="XMLID_5_">
			<use xlink:href="#XMLID_3_"  style="overflow:visible;"/>
		</clipPath>
		<line class="st19" x1="46.6" y1="64.1" x2="53.6" y2="83.5"/>
	</g>
	<g>
		<g>
			
				<ellipse transform="matrix(-2.565619e-02 -0.9997 0.9997 -2.565619e-02 -9.6705 133.4339)" class="st20" cx="60.2" cy="71.4" rx="1.4" ry="1.8"/>
			
				<ellipse transform="matrix(-2.566615e-02 -0.9997 0.9997 -2.566615e-02 -9.6697 133.4343)" class="st21" cx="60.2" cy="71.4" rx="1" ry="1.2"/>
		</g>
		<path class="st20" d="M58.4,71.5c0,0-11,0.9-11.6-0.2c-0.6-1.1,0.2-3.2,0.7-4.4c0,0-3.3,5.5-0.4,10.3c0,0-1.4-3.7-0.2-4.6
			c0.4-0.3,12.1-0.6,12.1-0.6"/>
	</g>
	<g>
		<defs>
			<path id="SVGID_1_" d="M45.9,71.9c1.8-13.4,15.3-9.1,17.3-8.3c2,0.8,6.9,1.9,10.5,2.7c3.6,0.8,3.5,3.2,3.5,3.2
				C72.7,68,64.5,69.7,63,70c-1,0.2-1.3,0.9-1.4,1.3c0,0.2,0.2,1.3,1.6,1.5c1.5,0.2,9.8,1.3,14.2-0.5c0,0,0.2,2.4-3.3,3.5
				c-3.5,1.1-8.3,2.5-10.2,3.5C61.9,80,45.3,84.7,45.9,71.9"/>
		</defs>
		<clipPath id="SVGID_2_">
			<use xlink:href="#SVGID_1_"  style="overflow:visible;"/>
		</clipPath>
		<g class="st22">
			<g>
				
					<rect x="49.8" y="64.5" transform="matrix(0.9684 -0.2495 0.2495 0.9684 -16.6781 14.8085)" class="st23" width="0.5" height="17.3"/>
			</g>
			<g>
				
					<rect x="53.5" y="62.9" transform="matrix(0.9641 -0.2655 0.2655 0.9641 -17.471 16.8906)" class="st23" width="0.5" height="20.4"/>
			</g>
			<g>
				<rect x="57.5" y="61" transform="matrix(0.965 -0.2622 0.2622 0.965 -16.773 17.651)" class="st23" width="0.6" height="21.4"/>
			</g>
			<g>
				
					<rect x="62" y="60.5" transform="matrix(0.965 -0.2623 0.2623 0.965 -16.4893 18.8197)" class="st23" width="0.6" height="21.4"/>
			</g>
			<g>
				
					<rect x="65.6" y="59.6" transform="matrix(0.965 -0.2622 0.2622 0.965 -16.1322 19.7459)" class="st23" width="0.6" height="21.4"/>
			</g>
			<g>
				
					<rect x="69.4" y="59.7" transform="matrix(0.965 -0.2623 0.2623 0.965 -16.0238 20.741)" class="st23" width="0.6" height="21.4"/>
			</g>
			<g>
				
					<rect x="73.2" y="59.3" transform="matrix(0.965 -0.2623 0.2623 0.965 -15.7749 21.7336)" class="st23" width="0.6" height="21.4"/>
			</g>
		</g>
	</g>
</g>
</svg>
